<svg xmlns="http://www.w3.org/2000/svg" xmlns:xlink="http://www.w3.org/1999/xlink" viewBox="0 0 628.52 529.14"><defs><style>.cls-1{opacity:0.52;fill:url(#linear-gradient);}.cls-2{fill:#f7fafc;}.cls-3,.cls-34,.cls-38{fill:#fff;}.cls-4{fill:#78ad04;}.cls-5{fill:#83ce00;}.cls-6{fill:#ade701;}.cls-7{fill:#a32e2e;}.cls-8{fill:#c64f4f;}.cls-9{fill:#f8a547;opacity:0.4;isolation:isolate;}.cls-10{fill:#fbd947;}.cls-11{fill:#fbe481;}.cls-12,.cls-13{fill:#e58220;}.cls-12{opacity:0.45;}.cls-14{fill:#ffc871;}.cls-15{fill:#fcac38;}.cls-16{fill:#e58e1a;}.cls-17{fill:#cc740a;}.cls-18{fill:#ffb999;}.cls-19,.cls-24{fill:#fea42f;}.cls-20{fill:#90eae9;}.cls-21,.cls-28{fill:#f99269;}.cls-21{opacity:0.56;}.cls-22{fill:#fcd32e;}.cls-23,.cls-35{fill:#5abfbc;}.cls-24{opacity:0.53;}.cls-25{fill:#392f2f;}.cls-26{fill:#d85c36;opacity:0.49;}.cls-27{fill:#fc8383;}.cls-28{opacity:0.86;}.cls-29{fill:#ea754b;}.cls-30{fill:#e2ecff;}.cls-31{fill:#90b7f4;}.cls-32{fill:#7a61e5;}.cls-33{fill:#c5d9f9;}.cls-34{opacity:0.7;}.cls-35{opacity:0.48;}.cls-36{opacity:0.2;}.cls-37{fill:#977af3;}.cls-38{opacity:0.67;}</style><linearGradient id="linear-gradient" x1="318.69" y1="118.21" x2="318.69" y2="413.16" gradientUnits="userSpaceOnUse"><stop offset="0" stop-color="#f7fafc" stop-opacity="0.5"/><stop offset="0.16" stop-color="#ecf3fd" stop-opacity="0.61"/><stop offset="0.42" stop-color="#dce9fe" stop-opacity="0.78"/><stop offset="0.66" stop-color="#d1e1fe" stop-opacity="0.9"/><stop offset="0.86" stop-color="#caddff" stop-opacity="0.97"/><stop offset="0.99" stop-color="#c7dbff"/></linearGradient></defs><g id="Layer_2" data-name="Layer 2"><g id="Layer_3" data-name="Layer 3"><rect class="cls-1" x="39.19" y="97.89" width="558.98" height="345.75" rx="37.7"/><path class="cls-2" d="M324.37,392.32H84.93a7,7,0,0,1,0-14H324.37a7,7,0,0,1,0,14Z"/><path class="cls-2" d="M196.75,358.44H84.93a7,7,0,0,1,0-14H196.75a7,7,0,1,1,0,14Z"/><path class="cls-2" d="M196.75,324.56H84.93a7,7,0,0,1,0-14H196.75a7,7,0,0,1,0,14Z"/><path class="cls-2" d="M196.75,256.79H84.93a7,7,0,1,1,0-14H196.75a7,7,0,1,1,0,14Z"/><path class="cls-2" d="M262.25,290.68H84.93a7,7,0,0,1,0-14H262.25a7,7,0,0,1,0,14Z"/><circle class="cls-3" cx="117.97" cy="187.96" r="33.04"/><path class="cls-4" d="M439.75,396.93c1.07,1.77,3.67,1.57,5.28,2.86,3.68,2.95,8,4.53,17.36,4.1-.62,2.44-2.78,4.17-5,5.41a29,29,0,0,1-24.07,1.91"/><path class="cls-5" d="M437.66,395.77c.19,2.81,3.48,4.2,4.63,6.78,2.63,5.88,6.94,10.53,18.53,15.84-2.28,2.58-6,3.33-9.43,3.46a39.66,39.66,0,0,1-30.45-12.74"/><path class="cls-4" d="M384.41,482.39c1.07,1.77,3.67,1.57,5.28,2.86,3.68,2.95,8,4.53,17.36,4.09-.62,2.45-2.78,4.18-5,5.42A29,29,0,0,1,378,496.67"/><path class="cls-5" d="M382.32,481.23c.19,2.81,3.48,4.2,4.63,6.77,2.63,5.89,6.94,10.54,18.53,15.85-2.28,2.58-6,3.33-9.43,3.46a39.64,39.64,0,0,1-30.45-12.74"/><path class="cls-4" d="M420.59,403.82c-2-.4-2.72-2.91-4.48-4-4-2.45-7-6-9.76-14.92-2.09,1.41-3,4-3.4,6.52a29,29,0,0,0,6.4,23.28"/><path class="cls-5" d="M422.4,405.39c-2.71.78-5.14-1.84-7.95-2-6.43-.47-12.27-2.94-21.2-12-1.66,3-1.1,6.77-.05,10.05a39.64,39.64,0,0,0,22.35,24.29"/><path class="cls-4" d="M395.75,428.67c-2-.4-2.73-2.92-4.49-4-4-2.46-7-6-9.76-14.92-2.09,1.41-3,4-3.4,6.51a29.05,29.05,0,0,0,6.4,23.29"/><path class="cls-5" d="M397.55,430.24c-2.71.78-5.14-1.84-7.95-2.05-6.42-.46-12.26-2.93-21.2-12-1.66,3-1.09,6.77,0,10.05a39.64,39.64,0,0,0,22.36,24.28"/><path class="cls-4" d="M364.12,471.21c-2-.4-2.72-2.92-4.48-4-4-2.45-7-6-9.76-14.92-2.09,1.41-3,4-3.4,6.52a29,29,0,0,0,6.4,23.28"/><path class="cls-5" d="M365.93,472.78c-2.71.78-5.14-1.84-7.95-2-6.43-.46-12.27-2.93-21.21-12-1.65,3-1.09,6.77,0,10.05a39.67,39.67,0,0,0,22.35,24.29"/><path class="cls-6" d="M394.14,408.34c6.82,18.28,23.49,28.76,39,34.73,9.36-16.44,19.06-36.05,21.08-55,.72-6.73,2.25-17.65-4.42-18.8-3.36-.57-9.61,3.26-12.49,5.08A271.66,271.66,0,0,0,394.14,408.34Z"/><path class="cls-5" d="M363.64,443.1h0c9.4,18.92,29.89,28.49,46.19,33.26,4.91-5.91,9.59-12,13.94-18.35,3.34-4.88,6.49-9.86,9.38-14.95-15.52-6-32.19-16.45-39-34.73A276.23,276.23,0,0,0,363.64,443.1Z"/><path class="cls-6" d="M326.7,514l47.48.14c12.37-12.11,24.61-24.47,35.65-37.77C393.53,471.6,373,462,363.64,443.11A249.4,249.4,0,0,0,326.7,514Z"/><path class="cls-4" d="M344.7,514.73a.47.47,0,0,1-.3-.1.5.5,0,0,1-.1-.7L446,379.81a.51.51,0,0,1,.7-.1.5.5,0,0,1,.09.7L345.1,514.53A.51.51,0,0,1,344.7,514.73Z"/><path class="cls-4" d="M433.18,426.28A63,63,0,0,1,414,423a.5.5,0,0,1,.35-.94,60.29,60.29,0,0,0,22.1,3.08.48.48,0,0,1,.53.46.49.49,0,0,1-.46.53C435.38,426.25,434.27,426.28,433.18,426.28Z"/><path class="cls-4" d="M411,426.55a.46.46,0,0,1-.33-.13,45.41,45.41,0,0,1-10-13.67.5.5,0,1,1,.92-.4,44.39,44.39,0,0,0,9.76,13.32.5.5,0,0,1-.33.88Z"/><path class="cls-4" d="M395.81,446.19a.51.51,0,0,1-.35-.13,45.73,45.73,0,0,1-9.55-14,.5.5,0,0,1,.27-.65.49.49,0,0,1,.65.28,44.59,44.59,0,0,0,9.32,13.64.5.5,0,0,1-.34.86Z"/><path class="cls-4" d="M371.83,477.9a.47.47,0,0,1-.39-.2,45.21,45.21,0,0,1-7.31-15.28.5.5,0,1,1,1-.24,44.29,44.29,0,0,0,7.13,14.91.51.51,0,0,1-.4.81Z"/><path class="cls-4" d="M388,487.27A63,63,0,0,1,368.81,484a.52.52,0,0,1-.3-.65.49.49,0,0,1,.64-.29,60.16,60.16,0,0,0,22.1,3.07.5.5,0,1,1,.07,1C390.21,487.23,389.09,487.27,388,487.27Z"/><path class="cls-4" d="M400.7,460.33h-.06A63,63,0,0,1,388,457.48a.52.52,0,0,1-.3-.65.5.5,0,0,1,.64-.29,61.23,61.23,0,0,0,12.4,2.79.51.51,0,0,1,.44.56A.5.5,0,0,1,400.7,460.33Z"/><path class="cls-4" d="M442.2,405.55h-.06a62.39,62.39,0,0,1-12.63-2.85.49.49,0,0,1-.29-.64.5.5,0,0,1,.64-.3,61.39,61.39,0,0,0,12.4,2.8.5.5,0,0,1-.06,1Z"/><path class="cls-4" d="M415.1,441.41H415a62.17,62.17,0,0,1-12.63-2.85.5.5,0,0,1,.34-.94,61.61,61.61,0,0,0,12.4,2.8.5.5,0,0,1,0,1Z"/><path class="cls-4" d="M422,412a.48.48,0,0,1-.36-.16,55.09,55.09,0,0,1-4.8-6,.51.51,0,0,1,.13-.7.5.5,0,0,1,.69.13,54.88,54.88,0,0,0,4.71,5.92.5.5,0,0,1,0,.71A.52.52,0,0,1,422,412Z"/><path class="cls-4" d="M359.25,494.88a.48.48,0,0,1-.36-.16,55.09,55.09,0,0,1-4.8-6,.5.5,0,1,1,.82-.57,55.67,55.67,0,0,0,4.7,5.92.5.5,0,0,1,0,.71A.49.49,0,0,1,359.25,494.88Z"/><path class="cls-4" d="M342.33,490.83c-2.85,3-5.51,6.33-7,10.28-1.62,4.35-1.62,9.11-1.29,13.68.06,1,1.57,1,1.5,0-.31-4.36-.34-8.86,1.14-13,1.36-3.81,4-7,6.68-9.87.66-.71-.4-1.77-1.06-1.06Z"/><path class="cls-4" d="M147.19,411c-1.18,1-2.94.17-4.38.66-3.29,1.12-6.7,1.12-13.05-1.51-.19,1.85.88,3.59,2.09,5a21.41,21.41,0,0,0,16.2,7.35"/><path class="cls-5" d="M148.92,410.68c-.83,1.9-3.46,2.05-4.9,3.54-3.29,3.42-7.44,5.57-16.8,6.34.93,2.37,3.31,3.81,5.66,4.77a29.22,29.22,0,0,0,24.29-1.22"/><path class="cls-4" d="M164.14,484c-1.17,1-2.93.17-4.37.66-3.29,1.12-6.7,1.12-13.05-1.51-.19,1.85.88,3.59,2.09,5a21.36,21.36,0,0,0,16.2,7.35"/><path class="cls-5" d="M165.88,483.76c-.83,1.9-3.46,2-4.9,3.54-3.29,3.42-7.44,5.56-16.8,6.34.93,2.36,3.31,3.8,5.66,4.76a29.22,29.22,0,0,0,24.29-1.21"/><path class="cls-4" d="M158.74,420.54c1.5.23,2.62-1.34,4.1-1.64,3.41-.7,6.36-2.42,10.5-7.9,1.1,1.5,1.06,3.54.73,5.37a21.38,21.38,0,0,1-10.26,14.53"/><path class="cls-5" d="M157.09,421.17c1.68,1.22,4,0,6,.58,4.57,1.28,9.24,1,17.71-3,.39,2.51-.94,5-2.49,7a29.18,29.18,0,0,1-21.56,11.23"/><path class="cls-4" d="M169.74,444c1.5.23,2.62-1.34,4.1-1.65,3.41-.69,6.36-2.42,10.5-7.89,1.1,1.5,1.06,3.54.72,5.36a21.34,21.34,0,0,1-10.26,14.54"/><path class="cls-5" d="M168.09,444.61c1.68,1.22,4,0,6,.57,4.57,1.29,9.24,1,17.71-3,.39,2.51-.94,5-2.49,7a29.2,29.2,0,0,1-21.57,11.24"/><path class="cls-4" d="M181,481.37c1.5.23,2.62-1.34,4.11-1.64,3.4-.69,6.35-2.42,10.5-7.9,1.09,1.5,1,3.54.72,5.37a21.38,21.38,0,0,1-10.26,14.53"/><path class="cls-5" d="M179.36,482c1.68,1.21,4,0,6,.57,4.57,1.29,9.23,1,17.7-3,.39,2.5-.93,5-2.48,7A29.26,29.26,0,0,1,179,497.77"/><path class="cls-6" d="M175.94,430.29c-9.3,11-23.48,14-35.73,14.3-2.37-13.73-4.18-29.75-.83-43.42,1.19-4.84,2.86-12.79,7.77-11.92,2.47.45,5.84,4.67,7.38,6.65A199.64,199.64,0,0,1,175.94,430.29Z"/><path class="cls-5" d="M188.37,462h0c-11.25,10.76-27.84,12.26-40.33,11.49-1.93-5.33-3.64-10.73-5.07-16.21-1.09-4.22-2-8.46-2.76-12.71,12.25-.25,26.43-3.34,35.73-14.3A203.23,203.23,0,0,1,188.37,462Z"/><path class="cls-6" d="M196.23,520.39,163.29,508.6A371.54,371.54,0,0,1,148,473.51c12.49.77,29.08-.73,40.33-11.49A183.62,183.62,0,0,1,196.23,520.39Z"/><path class="cls-4" d="M183.7,516.41a.38.38,0,0,1-.36-.26L146.48,397.77a.36.36,0,0,1,.24-.46.37.37,0,0,1,.46.24l36.87,118.39a.37.37,0,0,1-.25.46Z"/><path class="cls-4" d="M158.5,435.5A45,45,0,0,1,142.12,432a.37.37,0,0,1-.18-.49.36.36,0,0,1,.48-.18,44.5,44.5,0,0,0,16.08,3.4.37.37,0,0,1,.38.36.38.38,0,0,1-.37.37Z"/><path class="cls-4" d="M159.82,438.71a.37.37,0,0,1-.13-.71,32.64,32.64,0,0,0,10.1-6.79.37.37,0,1,1,.53.51,33.78,33.78,0,0,1-10.36,7Z"/><path class="cls-4" d="M165.43,456.13a.37.37,0,0,1-.33-.23.35.35,0,0,1,.19-.48,32.71,32.71,0,0,0,9.87-7.12.36.36,0,1,1,.54.49,33.74,33.74,0,0,1-10.12,7.31Z"/><path class="cls-4" d="M174.11,484.1a.37.37,0,0,1-.31-.17.36.36,0,0,1,.12-.51,32.82,32.82,0,0,0,8.66-8.55.38.38,0,0,1,.52-.1.37.37,0,0,1,.1.51,33.62,33.62,0,0,1-8.89,8.76A.36.36,0,0,1,174.11,484.1Z"/><path class="cls-4" d="M174.54,489.07a45,45,0,0,1-16.38-3.46.37.37,0,0,1-.18-.49.36.36,0,0,1,.48-.18,44.4,44.4,0,0,0,16.09,3.4.35.35,0,0,1,.37.36.37.37,0,0,1-.37.37Z"/><path class="cls-4" d="M167.87,465.87a46.16,46.16,0,0,1-9.45-1.18.37.37,0,0,1,.17-.72,44.3,44.3,0,0,0,9.29,1.17.37.37,0,0,1,.37.36.35.35,0,0,1-.36.37Z"/><path class="cls-4" d="M152.82,417.53a45.77,45.77,0,0,1-9.45-1.19.35.35,0,0,1-.27-.44.37.37,0,0,1,.44-.28,43.51,43.51,0,0,0,9.29,1.17.37.37,0,0,1,0,.74Z"/><path class="cls-4" d="M162.63,449.16a46.23,46.23,0,0,1-9.45-1.18.38.38,0,0,1-.28-.45.38.38,0,0,1,.45-.27,43.79,43.79,0,0,0,9.29,1.16.36.36,0,0,1,.37.37.37.37,0,0,1-.37.37Z"/><path class="cls-4" d="M155.83,425.88a.37.37,0,0,1-.16-.7,41.79,41.79,0,0,0,4.74-2.93.37.37,0,0,1,.42.6,39.19,39.19,0,0,1-4.84,3A.29.29,0,0,1,155.83,425.88Z"/><path class="cls-4" d="M178.58,499a.39.39,0,0,1-.33-.21.36.36,0,0,1,.17-.49,41.79,41.79,0,0,0,4.74-2.93.37.37,0,1,1,.42.6,42.44,42.44,0,0,1-4.84,3A.42.42,0,0,1,178.58,499Z"/><path class="cls-4" d="M190.21,500.93a21.7,21.7,0,0,1,2.14,8.42,23,23,0,0,1-2.43,9.28c-.28.65.67,1.21,1,.56a24.41,24.41,0,0,0,2.57-9.84,23,23,0,0,0-2.28-9c-.28-.66-1.23-.09-1,.55Z"/><path class="cls-3" d="M142.14,406.76s.06-.44,0-.3c0-.12,0-.24,0-.36,0-.29.09-.57.13-.86.09-.59.2-1.17.3-1.75.21-1.14.45-2.28.7-3.41a1.11,1.11,0,1,0-2.13-.59c-.54,2.41-1,4.83-1.3,7.27a1.11,1.11,0,0,0,1.1,1.11,1.14,1.14,0,0,0,1.11-1.11Z"/><ellipse class="cls-3" cx="143.1" cy="396.35" rx="1.21" ry="0.9" transform="matrix(0.34, -0.94, 0.94, 0.34, -278.3, 396.29)"/><path class="cls-5" d="M200.4,520H147.81a4.5,4.5,0,1,1,0-9H200.4a4.5,4.5,0,0,1,0,9Z"/><path class="cls-5" d="M380.36,520h-52.6a4.5,4.5,0,0,1,0-9h52.6a4.5,4.5,0,0,1,0,9Z"/><path class="cls-5" d="M477.22,520h-7.6a4.5,4.5,0,0,1,0-9h7.6a4.5,4.5,0,0,1,0,9Z"/><path class="cls-5" d="M67.93,520h-7.6a4.5,4.5,0,0,1,0-9h7.6a4.5,4.5,0,1,1,0,9Z"/><path class="cls-5" d="M624,520h-7.6a4.5,4.5,0,1,1,0-9H624a4.5,4.5,0,0,1,0,9Z"/><path class="cls-5" d="M452.64,520H448a4.5,4.5,0,1,1,0-9h4.6a4.5,4.5,0,0,1,0,9Z"/><path class="cls-4" d="M22.64,395.93c-1.07,1.77-3.68,1.57-5.29,2.86-3.67,2.95-8,4.53-17.35,4.1.62,2.44,2.78,4.17,5,5.41A29,29,0,0,0,29,410.21"/><path class="cls-5" d="M24.72,394.77c-.19,2.81-3.48,4.2-4.63,6.78-2.62,5.88-6.93,10.53-18.52,15.84,2.28,2.58,6,3.33,9.43,3.46a39.66,39.66,0,0,0,30.45-12.74"/><path class="cls-4" d="M78,481.39c-1.07,1.77-3.68,1.57-5.28,2.86-3.68,2.95-8,4.53-17.36,4.09.62,2.45,2.78,4.18,5,5.42a29,29,0,0,0,24.07,1.91"/><path class="cls-5" d="M80.06,480.23c-.19,2.81-3.48,4.2-4.63,6.77-2.62,5.89-6.93,10.54-18.52,15.85,2.28,2.58,6,3.33,9.43,3.46a39.66,39.66,0,0,0,30.45-12.74"/><path class="cls-4" d="M41.79,402.82c2-.4,2.73-2.91,4.49-4,4-2.45,7-6,9.76-14.92,2.09,1.41,3,4,3.4,6.52A29,29,0,0,1,53,413.71"/><path class="cls-5" d="M40,404.39c2.7.78,5.13-1.84,7.95-2,6.42-.47,12.26-2.94,21.2-12,1.65,3,1.09,6.77,0,10.05a39.66,39.66,0,0,1-22.36,24.29"/><path class="cls-4" d="M66.64,427.67c2-.4,2.73-2.92,4.49-4,4-2.46,7-6,9.76-14.92,2.08,1.41,3,4,3.39,6.51a29,29,0,0,1-6.39,23.29"/><path class="cls-5" d="M64.83,429.24c2.71.78,5.14-1.84,8-2.05,6.43-.46,12.27-2.93,21.21-12,1.65,3,1.09,6.77,0,10.05A39.63,39.63,0,0,1,71.68,449.5"/><path class="cls-4" d="M98.26,470.21c2-.4,2.73-2.92,4.49-4,4-2.45,7-6,9.76-14.92,2.09,1.41,3,4,3.4,6.52a29,29,0,0,1-6.4,23.28"/><path class="cls-5" d="M96.46,471.78c2.7.78,5.14-1.84,8-2,6.42-.46,12.26-2.93,21.2-12,1.66,3,1.09,6.77,0,10.05a39.68,39.68,0,0,1-22.36,24.29"/><path class="cls-6" d="M68.25,407.34c-6.82,18.28-23.49,28.76-39,34.73C19.88,425.63,10.18,406,8.16,387c-.72-6.73-2.25-17.65,4.42-18.8,3.36-.57,9.61,3.26,12.49,5.08A271.66,271.66,0,0,1,68.25,407.34Z"/><path class="cls-5" d="M98.75,442.1h0C89.35,461,68.86,470.6,52.56,475.37c-4.91-5.91-9.59-12-13.94-18.35-3.34-4.88-6.49-9.86-9.38-14.95,15.52-6,32.19-16.45,39-34.73A276.23,276.23,0,0,1,98.75,442.1Z"/><path class="cls-6" d="M135.69,513l-47.48.14C75.84,501,63.6,488.67,52.56,475.37c16.3-4.77,36.79-14.34,46.19-33.26A249.4,249.4,0,0,1,135.69,513Z"/><path class="cls-4" d="M117.69,513.73a.51.51,0,0,1-.4-.2L15.64,379.41a.5.5,0,1,1,.8-.6L118.09,512.93a.51.51,0,0,1-.1.7A.49.49,0,0,1,117.69,513.73Z"/><path class="cls-4" d="M29.21,425.28c-1.09,0-2.21,0-3.32-.12a.5.5,0,1,1,.07-1,60,60,0,0,0,22.1-3.08.5.5,0,1,1,.34.94A63,63,0,0,1,29.21,425.28Z"/><path class="cls-4" d="M51.39,425.55a.52.52,0,0,1-.38-.17.51.51,0,0,1,.05-.71,44.58,44.58,0,0,0,9.76-13.32.5.5,0,1,1,.91.4,45.47,45.47,0,0,1-10,13.67A.48.48,0,0,1,51.39,425.55Z"/><path class="cls-4" d="M66.58,445.19a.5.5,0,0,1-.34-.86,44.66,44.66,0,0,0,9.31-13.64.5.5,0,1,1,.93.37,45.86,45.86,0,0,1-9.56,14A.48.48,0,0,1,66.58,445.19Z"/><path class="cls-4" d="M90.56,476.9a.51.51,0,0,1-.31-.11.5.5,0,0,1-.09-.7,44.72,44.72,0,0,0,7.13-14.91.5.5,0,0,1,.6-.37.51.51,0,0,1,.37.61A45.63,45.63,0,0,1,91,476.7.49.49,0,0,1,90.56,476.9Z"/><path class="cls-4" d="M74.39,486.27q-1.65,0-3.33-.12a.5.5,0,0,1,.08-1,60.08,60.08,0,0,0,22.09-3.07.49.49,0,0,1,.64.29.5.5,0,0,1-.29.65A63,63,0,0,1,74.39,486.27Z"/><path class="cls-4" d="M61.69,459.33a.5.5,0,0,1-.06-1A60.79,60.79,0,0,0,74,455.54a.49.49,0,0,1,.64.29.5.5,0,0,1-.29.65,63.2,63.2,0,0,1-12.63,2.85Z"/><path class="cls-4" d="M20.19,404.55a.5.5,0,0,1-.06-1,61.39,61.39,0,0,0,12.4-2.8.5.5,0,0,1,.64.3.5.5,0,0,1-.3.64,62.18,62.18,0,0,1-12.62,2.85Z"/><path class="cls-4" d="M47.29,440.41a.5.5,0,0,1-.06-1,61.17,61.17,0,0,0,12.4-2.8.5.5,0,0,1,.35.94,62.39,62.39,0,0,1-12.63,2.85Z"/><path class="cls-4" d="M40.37,411a.49.49,0,0,1-.34-.14.5.5,0,0,1,0-.71,55.67,55.67,0,0,0,4.7-5.92.51.51,0,0,1,.7-.13.5.5,0,0,1,.12.7,57.33,57.33,0,0,1-4.79,6A.5.5,0,0,1,40.37,411Z"/><path class="cls-4" d="M103.14,493.88a.52.52,0,0,1-.35-.14.5.5,0,0,1,0-.71,54.88,54.88,0,0,0,4.71-5.92.5.5,0,0,1,.69-.13.51.51,0,0,1,.13.7,55.09,55.09,0,0,1-4.8,6A.48.48,0,0,1,103.14,493.88Z"/><path class="cls-4" d="M119,490.89c2.73,2.91,5.33,6.06,6.68,9.87,1.49,4.17,1.46,8.67,1.15,13-.07,1,1.43,1,1.5,0,.33-4.57.32-9.33-1.29-13.68-1.47-3.95-4.13-7.24-7-10.28-.66-.71-1.72.35-1.06,1.06Z"/><path class="cls-3" d="M14.29,393c-.35-1.54-.64-3.09-.9-4.64s-.48-3.07-.65-4.45a1.54,1.54,0,0,0-1.5-1.5c-.73,0-1.6.67-1.5,1.5.42,3.32.92,6.63,1.66,9.89a1.52,1.52,0,0,0,1.84,1.05,1.54,1.54,0,0,0,1-1.85Z"/><ellipse class="cls-3" cx="10.68" cy="379.16" rx="1.22" ry="1.65"/><path class="cls-7" d="M268.64,32.82a1,1,0,0,1-.74-.32,1,1,0,0,1,.07-1.42c.22-.2,23.13-20.72,50-7.94a1,1,0,1,1-.85,1.81c-25.68-12.2-47.63,7.41-47.84,7.61A1,1,0,0,1,268.64,32.82Z"/><path class="cls-7" d="M323.7,36.93a1,1,0,0,1-.74-.34c-18.89-21.3-46.73-11.81-47-11.71a1,1,0,1,1-.66-1.89c.29-.1,29.4-10,49.16,12.27a1,1,0,0,1-.08,1.41A1,1,0,0,1,323.7,36.93Z"/><path class="cls-8" d="M211.69,69.46s-.28,28.24-7.06,37.55a52.43,52.43,0,0,0,13.7-20.89"/><path class="cls-8" d="M212,76.1s-.29,28.23-7.06,37.55a52.44,52.44,0,0,0,13.69-20.89"/><path class="cls-8" d="M251.5,47.93s18.38-21.43,29.56-24.21a52.55,52.55,0,0,0-23.93,7.19"/><path class="cls-8" d="M255.55,42.67s18.38-21.44,29.56-24.21a52.35,52.35,0,0,0-23.92,7.19"/><path class="cls-8" d="M244.62,49.11s16.11-23.2,27-27.09A52.44,52.44,0,0,0,248.5,31.6"/><path class="cls-8" d="M248.12,43.46s16.11-23.19,26.95-27.09A52.57,52.57,0,0,0,252,26"/><circle class="cls-9" cx="543.06" cy="430.78" r="0.16"/><ellipse class="cls-10" cx="543.85" cy="400.48" rx="38.65" ry="37.92"/><path class="cls-11" d="M543.3,362.57c-.23,13.64-4.37,43.74-35.59,51.34a36.56,36.56,0,0,1-2.5-13.43,30.45,30.45,0,0,1,.36-5,38.22,38.22,0,0,1,30.34-32.08A39,39,0,0,1,543.3,362.57Z"/><path class="cls-3" d="M553.25,403.76a7.8,7.8,0,0,0-1.77-2.46,11.45,11.45,0,0,0-2.43-1.71,20,20,0,0,0-2.58-1.17c-1.2-.43-2.3-.88-3.34-1.31a7.84,7.84,0,0,1-2.54-1.57,3,3,0,0,1-1-2.27,3.67,3.67,0,0,1,.44-1.86,3,3,0,0,1,1.34-1.18,6.27,6.27,0,0,1,2.43-.4,4.85,4.85,0,0,1,2.48.61,6.87,6.87,0,0,1,1.84,1.64,18.54,18.54,0,0,1,1.42,2.22l3.91-2.35a11.67,11.67,0,0,0-2-2.94,10.23,10.23,0,0,0-3.2-2.32,9.7,9.7,0,0,0-2.53-.75v-4.69h-4l.12,4.6a10.43,10.43,0,0,0-3,.85,8.61,8.61,0,0,0-3.31,2.63,6.13,6.13,0,0,0-1.21,3.69,7.5,7.5,0,0,0,.77,3.51A8.26,8.26,0,0,0,537,399a10.29,10.29,0,0,0,2.51,1.65,17.4,17.4,0,0,0,2.44,1c1.11.42,2.18.87,3.18,1.32a8.38,8.38,0,0,1,2.45,1.71,3.76,3.76,0,0,1,.94,2.63,4.49,4.49,0,0,1-.48,2.13,3.1,3.1,0,0,1-1.48,1.31,6.15,6.15,0,0,1-2.51.46,6.34,6.34,0,0,1-3.05-.71,7.72,7.72,0,0,1-2.43-2,15.2,15.2,0,0,1-2.12-3.22l-3.8,2.45a12.86,12.86,0,0,0,2.58,3.94,12.14,12.14,0,0,0,3.9,2.74,11,11,0,0,0,2.68.83l-.08,4.4h4l-.08-4.31a11.46,11.46,0,0,0,3.58-.92,7.53,7.53,0,0,0,3.28-2.91,8.19,8.19,0,0,0,1.19-4.44A7.78,7.78,0,0,0,553.25,403.76Z"/><path class="cls-12" d="M543.7,432h-.13a32.34,32.34,0,0,1-22.72-9.33,31,31,0,0,1-9.34-22.33c.08-17.34,14.51-31.39,32.19-31.39h.14c17.67.07,32,14.21,32,31.52v.13C575.82,417.91,561.39,432,543.7,432Zm0-61.05c-16.59,0-30.11,13.16-30.19,29.4a29,29,0,0,0,8.75,20.9A30.39,30.39,0,0,0,543.58,430h.12c16.59,0,30.12-13.17,30.19-29.4v-.13c0-16.21-13.48-29.45-30.06-29.52Z"/><ellipse class="cls-10" cx="437.31" cy="327.07" rx="38.65" ry="37.92"/><path class="cls-11" d="M436.76,289.16c-.23,13.63-4.37,43.74-35.59,51.34a36.78,36.78,0,0,1-2.51-13.43,31.49,31.49,0,0,1,.37-5A38.22,38.22,0,0,1,429.37,290,39,39,0,0,1,436.76,289.16Z"/><path class="cls-3" d="M446.71,330.35a8,8,0,0,0-1.77-2.47,11.78,11.78,0,0,0-2.43-1.7,20.61,20.61,0,0,0-2.58-1.17c-1.2-.43-2.3-.88-3.34-1.31a7.6,7.6,0,0,1-2.54-1.58,3,3,0,0,1-1-2.27,3.64,3.64,0,0,1,.44-1.85,3,3,0,0,1,1.34-1.18,6.27,6.27,0,0,1,2.43-.4,4.78,4.78,0,0,1,2.48.61,6.68,6.68,0,0,1,1.83,1.64,16.77,16.77,0,0,1,1.43,2.22l3.91-2.35a11.67,11.67,0,0,0-2-2.94,10.23,10.23,0,0,0-3.2-2.32,9.4,9.4,0,0,0-2.54-.75v-4.7h-4l.12,4.61a10.43,10.43,0,0,0-3,.85,8.52,8.52,0,0,0-3.31,2.63,6.13,6.13,0,0,0-1.21,3.68,7.39,7.39,0,0,0,.77,3.52,8.39,8.39,0,0,0,1.93,2.47,10.58,10.58,0,0,0,2.51,1.65,17.4,17.4,0,0,0,2.44,1c1.11.42,2.18.87,3.17,1.31a8.33,8.33,0,0,1,2.46,1.72,3.8,3.8,0,0,1,.94,2.63,4.35,4.35,0,0,1-.49,2.12,3,3,0,0,1-1.47,1.32,6.14,6.14,0,0,1-2.51.45,6.37,6.37,0,0,1-3.06-.7,7.8,7.8,0,0,1-2.42-2,15,15,0,0,1-2.12-3.23l-3.8,2.46a12.7,12.7,0,0,0,2.58,3.93,12,12,0,0,0,3.9,2.75,10.4,10.4,0,0,0,2.68.82l-.08,4.41h4l-.08-4.31a11.32,11.32,0,0,0,3.58-.92,7.46,7.46,0,0,0,3.29-2.92,8.15,8.15,0,0,0,1.19-4.43A7.94,7.94,0,0,0,446.71,330.35Z"/><path class="cls-13" d="M437.16,358.55H437a32.29,32.29,0,0,1-22.72-9.32A31,31,0,0,1,405,326.9c.08-17.34,14.51-31.39,32.19-31.39h.14c17.67.07,32.05,14.21,32.05,31.52v.13C469.28,344.5,454.85,358.55,437.16,358.55Zm0-61c-16.59,0-30.12,13.16-30.19,29.4a29,29,0,0,0,8.75,20.9A30.33,30.33,0,0,0,437,356.55h.13c16.59,0,30.12-13.16,30.19-29.39V327c0-16.21-13.48-29.45-30.06-29.52Z"/><ellipse class="cls-10" cx="401.73" cy="54.32" rx="38.65" ry="37.92"/><path class="cls-11" d="M401.18,16.41C401,30,396.81,60.14,365.6,67.74a36.69,36.69,0,0,1-2.51-13.42,31.48,31.48,0,0,1,.36-5,38.54,38.54,0,0,1,37.73-32.87Z"/><path class="cls-3" d="M411.13,57.6a7.84,7.84,0,0,0-1.77-2.47,11.35,11.35,0,0,0-2.42-1.7,20.74,20.74,0,0,0-2.59-1.17c-1.19-.43-2.29-.88-3.34-1.31a7.82,7.82,0,0,1-2.53-1.58,3,3,0,0,1-1-2.27,3.85,3.85,0,0,1,.44-1.85,3,3,0,0,1,1.34-1.18,6.51,6.51,0,0,1,2.43-.41,4.77,4.77,0,0,1,2.48.62A6.72,6.72,0,0,1,406,45.92a16.08,16.08,0,0,1,1.42,2.22l3.92-2.35a11.76,11.76,0,0,0-2-2.94,10.16,10.16,0,0,0-3.21-2.32,9.33,9.33,0,0,0-2.53-.75v-4.7h-4l.12,4.61a10.25,10.25,0,0,0-3,.85,8.62,8.62,0,0,0-3.32,2.62,6.17,6.17,0,0,0-1.2,3.69,7.41,7.41,0,0,0,.76,3.52,8.56,8.56,0,0,0,1.93,2.47,10.79,10.79,0,0,0,2.51,1.65,19.27,19.27,0,0,0,2.44,1c1.11.42,2.19.87,3.18,1.31a8.1,8.1,0,0,1,2.45,1.72,3.76,3.76,0,0,1,.94,2.63,4.37,4.37,0,0,1-.48,2.12,3,3,0,0,1-1.48,1.31,5.94,5.94,0,0,1-2.5.46,6.24,6.24,0,0,1-3.06-.71,7.8,7.8,0,0,1-2.43-2,15.66,15.66,0,0,1-2.12-3.23l-3.79,2.46a12.61,12.61,0,0,0,2.57,3.93,12.17,12.17,0,0,0,3.9,2.75,11,11,0,0,0,2.69.82l-.08,4.41h4l-.08-4.32a11.3,11.3,0,0,0,3.58-.91,7.49,7.49,0,0,0,3.28-2.92,8.16,8.16,0,0,0,1.2-4.43A7.76,7.76,0,0,0,411.13,57.6Z"/><path class="cls-13" d="M401.58,85.8h-.13a32.35,32.35,0,0,1-22.71-9.32,31,31,0,0,1-9.34-22.34c.07-17.33,14.5-31.38,32.18-31.38h.14c17.68.07,32.06,14.21,32.06,31.52v.13C433.7,71.75,419.27,85.8,401.58,85.8Zm0-61c-16.58,0-30.11,13.16-30.18,29.39a29,29,0,0,0,8.74,20.91,30.34,30.34,0,0,0,21.32,8.74h.12c16.59,0,30.13-13.16,30.2-29.39v-.13c0-16.21-13.49-29.46-30.06-29.52Z"/><ellipse class="cls-10" cx="387.54" cy="190.44" rx="32.43" ry="31.83"/><path class="cls-11" d="M387.08,158.63c-.19,11.44-3.67,36.7-29.87,43.08a30.86,30.86,0,0,1-2.1-11.27,27.27,27.27,0,0,1,.3-4.23,32.33,32.33,0,0,1,31.67-27.58Z"/><path class="cls-3" d="M395.43,193.2a6.6,6.6,0,0,0-1.48-2.07,10,10,0,0,0-2-1.44,19.21,19.21,0,0,0-2.17-1c-1-.36-1.93-.73-2.81-1.1a6.47,6.47,0,0,1-2.12-1.32,2.51,2.51,0,0,1-.81-1.9,3,3,0,0,1,.37-1.56,2.51,2.51,0,0,1,1.12-1,5.47,5.47,0,0,1,2-.34,4,4,0,0,1,2.08.52,5.5,5.5,0,0,1,1.54,1.38,13.41,13.41,0,0,1,1.2,1.86l3.28-2a9.43,9.43,0,0,0-1.67-2.47,8.52,8.52,0,0,0-2.69-1.95,7.92,7.92,0,0,0-2.13-.63V174.3h-3.38l.11,3.86a8.71,8.71,0,0,0-2.51.72,7.06,7.06,0,0,0-2.78,2.2,5.12,5.12,0,0,0-1,3.1,6.29,6.29,0,0,0,.64,2.95,7.25,7.25,0,0,0,1.62,2.07,8.77,8.77,0,0,0,2.11,1.39,14.69,14.69,0,0,0,2.05.84c.93.36,1.83.73,2.66,1.11A6.77,6.77,0,0,1,390.7,194a3.14,3.14,0,0,1,.79,2.2,3.72,3.72,0,0,1-.4,1.79,2.56,2.56,0,0,1-1.24,1.1,5.23,5.23,0,0,1-2.11.38,5.29,5.29,0,0,1-2.56-.59,6.61,6.61,0,0,1-2-1.71,13.49,13.49,0,0,1-1.78-2.71l-3.18,2.06a10.75,10.75,0,0,0,2.16,3.31,10.31,10.31,0,0,0,3.27,2.3,9,9,0,0,0,2.26.69l-.07,3.7h3.37l-.06-3.62a9.48,9.48,0,0,0,3-.77,6.31,6.31,0,0,0,2.76-2.45,6.87,6.87,0,0,0,1-3.72A6.58,6.58,0,0,0,395.43,193.2Z"/><path class="cls-13" d="M387.42,216.87h-.12A27.11,27.11,0,0,1,368.24,209a26,26,0,0,1-7.84-18.74c.07-14.55,12.17-26.34,27-26.34h.12c14.84.06,26.9,11.92,26.9,26.45v.11C414.37,205.07,402.26,216.87,387.42,216.87Zm0-51.24c-13.92,0-25.27,11.05-25.33,24.68a24.34,24.34,0,0,0,7.34,17.54,25.49,25.49,0,0,0,17.89,7.34h.11c13.92,0,25.28-11.05,25.34-24.67v-.11c0-13.61-11.32-24.72-25.23-24.78Z"/><ellipse class="cls-10" cx="432.04" cy="465.24" rx="38.65" ry="37.92"/><path class="cls-11" d="M431.49,427.32c-.23,13.64-4.37,43.74-35.59,51.34a36.77,36.77,0,0,1-2.51-13.42,31.41,31.41,0,0,1,.37-5,38.21,38.21,0,0,1,30.34-32.09A39,39,0,0,1,431.49,427.32Z"/><path class="cls-3" d="M441.44,468.52a7.73,7.73,0,0,0-1.77-2.47,11.82,11.82,0,0,0-2.43-1.71,21.51,21.51,0,0,0-2.59-1.16c-1.19-.44-2.29-.88-3.33-1.32a7.74,7.74,0,0,1-2.54-1.57,3,3,0,0,1-1-2.27,3.61,3.61,0,0,1,.44-1.85A2.9,2.9,0,0,1,429.6,455a6.47,6.47,0,0,1,2.43-.41,4.79,4.79,0,0,1,2.48.62,6.52,6.52,0,0,1,1.83,1.64,16.67,16.67,0,0,1,1.43,2.21l3.91-2.34a11.33,11.33,0,0,0-2-2.94,10.1,10.1,0,0,0-3.2-2.33,9.75,9.75,0,0,0-2.54-.74V446h-4l.12,4.6a10.45,10.45,0,0,0-3,.86,8.59,8.59,0,0,0-3.31,2.62,6.16,6.16,0,0,0-1.21,3.69,7.44,7.44,0,0,0,.77,3.52,8.22,8.22,0,0,0,1.93,2.46,10.32,10.32,0,0,0,2.51,1.66,18.68,18.68,0,0,0,2.44,1c1.11.42,2.18.86,3.17,1.31a8.14,8.14,0,0,1,2.46,1.72,3.76,3.76,0,0,1,.94,2.62,4.39,4.39,0,0,1-.49,2.13,3,3,0,0,1-1.47,1.31,6.15,6.15,0,0,1-2.51.46,6.38,6.38,0,0,1-3.06-.71,7.79,7.79,0,0,1-2.42-2,15.26,15.26,0,0,1-2.12-3.23l-3.8,2.45a12.68,12.68,0,0,0,2.58,3.94,12,12,0,0,0,3.9,2.74A10.83,10.83,0,0,0,430,480l-.08,4.41h4l-.08-4.32a11.32,11.32,0,0,0,3.58-.92,7.5,7.5,0,0,0,3.29-2.91,8.19,8.19,0,0,0,1.19-4.44A7.89,7.89,0,0,0,441.44,468.52Z"/><path class="cls-13" d="M431.89,496.72h-.13A32.37,32.37,0,0,1,409,487.4a31,31,0,0,1-9.34-22.34c.08-17.33,14.5-31.39,32.19-31.39H432c17.67.08,32.05,14.22,32.05,31.52v.14C464,482.66,449.58,496.72,431.89,496.72Zm0-61.05c-16.59,0-30.12,13.16-30.19,29.4a29,29,0,0,0,8.75,20.9,30.34,30.34,0,0,0,21.31,8.75h.13c16.59,0,30.12-13.16,30.19-29.4v-.13c0-16.21-13.48-29.45-30.06-29.52Z"/><path class="cls-14" d="M350.51,448.5l-1,.42-5,66.6c-40.43,5.08-73.4,2.34-114.1.29L194.72,514l-3.9,5.06-6.52-81.6,16.34-5.34c22.43-11.69,48.83-12,74.11-12.1,19.57-.05,40.66.37,56.35,12.06C339.77,438.57,350.72,437.7,350.51,448.5Z"/><path class="cls-15" d="M186.06,468.34l-1.76-28.68,16.34-55c22.43-11.69,48.83-12,74.11-12.1,19.57,0,40.66.37,56.35,12.06,8.67,6.46-25.46,12.94-25.67,23.74l44.89,30.3-2.12,29.23-20.28,4a569.64,569.64,0,0,1-122.73-.38Z"/><path class="cls-16" d="M188.47,480.56h-.23a1,1,0,1,1,.08-2h0c.61,0,15,.32,22.7-17.45a1,1,0,0,1,1.31-.53,1,1,0,0,1,.53,1.32c-4.29,9.94-10.72,14.48-15.36,16.55A23.39,23.39,0,0,1,188.47,480.56Z"/><path class="cls-16" d="M346,478.44a24.39,24.39,0,0,1-8.18-1.51c-4.77-1.74-11.5-5.83-16.46-15.45a1,1,0,0,1,1.77-.91c8.88,17.2,23.25,15.9,23.86,15.84a1,1,0,1,1,.21,2A10.49,10.49,0,0,1,346,478.44Z"/><path class="cls-17" d="M208.55,477.54a2.16,2.16,0,1,1,2.15-2.16A2.16,2.16,0,0,1,208.55,477.54Zm0-3.32a1.16,1.16,0,1,0,1.15,1.16A1.16,1.16,0,0,0,208.55,474.22Z"/><path class="cls-17" d="M196.4,484.87a2.16,2.16,0,1,1,2.16-2.16A2.16,2.16,0,0,1,196.4,484.87Zm0-3.32a1.16,1.16,0,1,0,1.16,1.16A1.16,1.16,0,0,0,196.4,481.55Z"/><path class="cls-17" d="M325.44,476.54a2.16,2.16,0,1,1,2.16-2.16A2.16,2.16,0,0,1,325.44,476.54Zm0-3.32a1.16,1.16,0,1,0,1.16,1.16A1.16,1.16,0,0,0,325.44,473.22Z"/><path class="cls-17" d="M337.89,483.05a2.16,2.16,0,1,1,2.16-2.16A2.16,2.16,0,0,1,337.89,483.05Zm0-3.32a1.16,1.16,0,1,0,1.16,1.16A1.16,1.16,0,0,0,337.89,479.73Z"/><path class="cls-16" d="M275.79,514.32a1,1,0,0,1-1-1V494.16a5.79,5.79,0,0,0-5-5.72l-2.32-.3a8.13,8.13,0,0,1-7.07-8.05v-21.7a1,1,0,0,1,2,0v21.7a6.13,6.13,0,0,0,5.33,6.07l2.32.3a7.78,7.78,0,0,1,6.76,7.7v19.16A1,1,0,0,1,275.79,514.32Z"/><path class="cls-18" d="M452.53,233.17c2.73-5.18.76-13.28.76-13.28l6.49-1.25a5.91,5.91,0,0,0,4.61-7.31l-.3-1.16a3.5,3.5,0,0,0-1-1.71l-.55-.52a3.56,3.56,0,0,1-1-3.42h0a3.41,3.41,0,0,0,0-1.62l-1-4.41a5.92,5.92,0,0,0-6.64-4.52l-6.64,1-12.71-8.28L422.3,199.25a5.77,5.77,0,0,0,.62,8.59l5.52,4.24.94,8.76"/><path class="cls-19" d="M443.64,225.48a15.64,15.64,0,0,0,14-2.26l-2-3.29h-5.88l-4.52,2.73Z"/><path class="cls-20" d="M340.58,456.28a13.27,13.27,0,0,0,12.1-15l-11.1-82.84a164.14,164.14,0,0,1-1.42-25.55l1.64-72.81A57.17,57.17,0,0,0,302,199.61L271,189.87l-62.72,19.55a32.06,32.06,0,0,0-22.43,32.89L192.12,330a299.06,299.06,0,0,1-6.73,88l-4.12,18.08a19.42,19.42,0,0,0,3.4,16.28,15.36,15.36,0,0,0,12,6.34l.44,0a1149.14,1149.14,0,0,0,143.5-2.46Z"/><path class="cls-18" d="M290.6,196.8c-2,2.94-5.58,4.27-9,5.23-8.59,2.41-18.09,3.53-26.2-.18a9.64,9.64,0,0,1-3.94-2.91,12,12,0,0,1-1.69-4.92V157.37l42.5,5.68q0,6.8.11,13.59c0,.67,0,1.34,0,2,0,.16,0,.3,0,.44,0,.82,0,1.63,0,2.45,0,1.91,0,9.81,0,11.72C292.48,196.55,292.44,194.07,290.6,196.8Z"/><path class="cls-21" d="M249.77,177.83V163.92c1.75.77,3.54,1.47,5.36,2.08q2.47.84,5,1.47l1.93.48c3.26.82,6.56,1.48,9.88,2a110.46,110.46,0,0,0,16.75,1.28c.44,0,.88,0,1.32-.05l.66,0,.84-.1.83-.14c0,1,0,1.55,0,2,0,.16,0,.3,0,.44,0,.57,0,1.14,0,2.45v6l-.22,0a92.43,92.43,0,0,1-42.43-4Z"/><path class="cls-20" d="M272.12,208.64a57.65,57.65,0,0,1-27.34-7.42,4.5,4.5,0,0,1,4.65-7.71h0c1,.59,24.5,14.36,44.25-1.48a4.5,4.5,0,1,1,5.63,7A42.49,42.49,0,0,1,272.12,208.64Z"/><path class="cls-20" d="M295.88,207.85c13-3.39,27.18-1.17,39.24,4.82s22.12,15.54,29.95,26.49c13.35,18.66,21.69,42.53,41.66,53.82L429.2,219h0l1.07.76a55.41,55.41,0,0,0,23.57,9.65h0c-4.36,22.57-6.83,56.79-11.19,79.36-.93,4.83-1.89,9.73-4.07,14.13C434,332.23,424.18,338.29,414,340s-20.79-.44-30.39-4.36c-19.58-8-37.33-34.53-52.61-49.17"/><path class="cls-22" d="M428.44,175.38l15.2,50.14.55-.33a17.55,17.55,0,0,1,13.43-1.93l-.71-2.72-10.4-45.92Z"/><path class="cls-18" d="M433.05,209.18A5,5,0,0,1,429.2,201l7.15-8.66a5,5,0,0,1,7.71,6.37l-7.15,8.66A5,5,0,0,1,433.05,209.18Z"/><rect class="cls-23" x="175" y="291.7" width="43.58" height="2" transform="translate(-141.86 391.28) rotate(-72.32)"/><rect class="cls-23" x="188.62" y="293.68" width="2" height="19.79" transform="translate(-16.52 10.96) rotate(-3.17)"/><path class="cls-18" d="M141.35,471.89c.45,3.84-1.61,7.39-3.06,11a52.54,52.54,0,0,0-3.38,23.5c.39,5.42.93,11.21,4.33,15.44s9,6,14.43,6.88c5.17.8,10.89.82,15.14-2.23,4.75-3.4,6.42-9.73,6.5-15.56s-7.64-13.51-7.06-19.31c.37-3.7,1.42-7.53.2-11a15.9,15.9,0,0,0-4.19-5.85c-4.45-4.44-2.87-6.51-8.25-9.76"/><path class="cls-23" d="M452.14,235c-12.61,0-24.92-9.48-25.44-9.89a1,1,0,1,1,1.22-1.58c.13.1,12.66,9.75,24.78,9.46a1,1,0,0,1,.05,2Z"/><path class="cls-23" d="M340.72,297.17a1,1,0,0,1-1-.93L338,272.39a1,1,0,0,1,2-.14l1.69,23.84a1,1,0,0,1-.93,1.07Z"/><path class="cls-23" d="M270,209.9a43.09,43.09,0,0,1-8.81-.91,38.3,38.3,0,0,1-12.82-5,1,1,0,0,1-.26-1.39,1,1,0,0,1,1.39-.26c.19.12,18.73,12.47,41.88-.06a1,1,0,0,1,1.35.41,1,1,0,0,1-.4,1.35A46.48,46.48,0,0,1,270,209.9Z"/><path class="cls-24" d="M449.65,188.57c-8.06-2.58-10.81.88-17.52-.89l-1.72-5.84c6.22.77,12.24,1.74,18.39,3.08Z"/><path class="cls-7" d="M218.06,47c-.21-3.66-2.69-7-2.59-10.61q4.68,2.8,9.08,6"/><path class="cls-7" d="M217.45,48.2c-1.89-3.14-5.62-4.9-7.24-8.18q5.44.3,10.85,1.11"/><path class="cls-8" d="M316.88,80.45c4.72,1.83,10.31-1,12.93-5.31s2.79-9.73,2-14.73c-1.87-12-11-26-21.17-32.68a44.08,44.08,0,0,0-34.87-5.65c-3.91,1-7.69,2.61-11.7,3.14-7.26,1-14.58-1.62-21.89-1.1C226.61,25.21,215.12,40.26,212,55.55s-.2,31.08,1.1,46.64c.46,5.38.55,11.31-2.78,15.56"/><path class="cls-18" d="M323.9,129.92A37.07,37.07,0,0,1,323,138a63.3,63.3,0,0,1-15.72,29.63l-3.3,3.48a19.26,19.26,0,0,1-6.19,4.36,17.71,17.71,0,0,1-3.83,1.19h0l-.79.14-.79.1-.63.05c-.42,0-.84,0-1.25,0a99.73,99.73,0,0,1-15.91-1.28q-4.72-.76-9.38-2l-1.83-.48c-1.61-.42-3.21-.91-4.78-1.47-1.72-.61-3.42-1.31-5.09-2.08-.85-.4-1.7-.81-2.54-1.25-.37-.19-.73-.39-1.09-.59s-.61-.33-.9-.5l-.19-.11a60.55,60.55,0,0,1-9-6.3A26.93,26.93,0,0,1,231,146.12l-.82-3.8a176,176,0,0,1-3.74-47.21l1.88-33.28h92.94l-1.11,28.84a92,92,0,0,0,.86,16.67l2.51,17.41A37.33,37.33,0,0,1,323.9,129.92Z"/><ellipse class="cls-25" cx="284.31" cy="108.55" rx="4.52" ry="6.78"/><ellipse class="cls-25" cx="310.85" cy="108.55" rx="4.52" ry="6.78"/><path class="cls-3" d="M287.8,133.79a39,39,0,0,0,11.86,1.81,18.44,18.44,0,0,0,11.17-3.89c.22,3.52-1.93,6.8-4.57,9.14s-6.4,4.22-10,3.56A11,11,0,0,1,291.4,142a15.9,15.9,0,0,1-5.53-9.13"/><path class="cls-26" d="M294.3,127a8.49,8.49,0,0,0,9.61-.77,1.51,1.51,0,0,0,0-2.12,1.55,1.55,0,0,0-2.12,0c-.14.11-.07,0,0,0l-.18.13a4.12,4.12,0,0,1-.45.27l-.4.22s-.27.11-.09,0-.05,0-.09,0a7.26,7.26,0,0,1-.94.27,2.86,2.86,0,0,1-.45.08s.31,0,.05,0l-.28,0c-.31,0-.62,0-.93,0l-.23,0c-.21,0,.27.05.06,0l-.51-.1a6.87,6.87,0,0,1-.88-.27c-.27-.09.15.08,0,0l-.21-.1c-.15-.08-.31-.16-.45-.25A1.5,1.5,0,1,0,294.3,127Z"/><path class="cls-27" d="M303.1,32.38a27.46,27.46,0,0,1,10.35,9.31A1.5,1.5,0,0,0,316,40.17a30.51,30.51,0,0,0-11.43-10.38,1.54,1.54,0,0,0-2.05.54,1.51,1.51,0,0,0,.54,2.05Z"/><path class="cls-27" d="M318.72,49.25a1.5,1.5,0,0,0,0-3,1.5,1.5,0,0,0,0,3Z"/><path class="cls-28" d="M230.91,87.76a1.5,1.5,0,0,1-1.5-1.49,19.75,19.75,0,0,1,19.75-19.85,92.12,92.12,0,0,1,33.39,6.24c9.69,3.49,18.9,4,28.14,1.58a1.5,1.5,0,0,1,.76,2.9c-9.84,2.59-19.64,2-29.95-1.67a89.16,89.16,0,0,0-32.34-6,16.73,16.73,0,0,0-16.75,16.83,1.51,1.51,0,0,1-1.5,1.51Z"/><circle class="cls-3" cx="279.91" cy="106.33" r="1.45"/><circle class="cls-3" cx="306.33" cy="106.33" r="1.45"/><path class="cls-8" d="M220.62,115.7h10.16s.19-20.5.14-30.44a18.25,18.25,0,0,1,18.25-18.34h0A90.9,90.9,0,0,1,282,73.06h0a47.22,47.22,0,0,0,29.06,1.64h0A18.55,18.55,0,0,0,324.9,56.77V56H220.62Z"/><path class="cls-28" d="M238.42,113.2a1.5,1.5,0,0,1-1.5-1.5V89.46A1.49,1.49,0,0,1,238,88c3.77-1.11,6.72-3.24,10-6.09a27.89,27.89,0,0,0,7.36-10,1.5,1.5,0,1,1,2.76,1.17,30.92,30.92,0,0,1-8.14,11,31.22,31.22,0,0,1-10,6.36V111.7A1.5,1.5,0,0,1,238.42,113.2Z"/><ellipse class="cls-8" cx="237.68" cy="69.7" rx="23.11" ry="15.99" transform="translate(20.33 188.48) rotate(-45)"/><path class="cls-8" d="M230.79,115.9h0V88l12.7-4.14,1.93,15.49A14.74,14.74,0,0,1,230.79,115.9Z"/><circle class="cls-18" cx="222.64" cy="119.33" r="14.44"/><path class="cls-29" d="M217.55,112.9a4.33,4.33,0,0,1,4-1.6,3.23,3.23,0,0,1,2.61,2.69,17.4,17.4,0,0,1-.19,2.6,8.85,8.85,0,0,0,2.42,6.48c.67.72,1.74-.36,1.07-1.08a7.39,7.39,0,0,1-2-4.82c0-.92.2-1.82.22-2.74A4.43,4.43,0,0,0,225,112c-2-3.12-6.29-2.76-8.54-.17-.64.73.43,1.82,1.08,1.07Z"/><path class="cls-27" d="M215.64,70.94c.18-5.08.22-10.29,1.46-15.25a1.13,1.13,0,0,0-2.17-.6c-1.28,5.16-1.36,10.57-1.54,15.85a1.13,1.13,0,0,0,2.25,0Z"/><path class="cls-25" d="M275.39,100.56A26.11,26.11,0,0,1,289,96.09c1.93-.07,1.94-3.07,0-3A29.11,29.11,0,0,0,273.87,98a1.56,1.56,0,0,0-.54,2.06,1.52,1.52,0,0,0,2.06.53Z"/><path class="cls-25" d="M319.07,98A29.09,29.09,0,0,0,304,93.09c-1.93-.07-1.92,2.93,0,3a26.14,26.14,0,0,1,13.57,4.47,1.51,1.51,0,0,0,2.05-.53,1.54,1.54,0,0,0-.54-2.06Z"/><path class="cls-20" d="M172.33,485.78l-40-.33a1051.7,1051.7,0,0,1,7.93-111.64c10.53-82.66,28.88-134.18,56.09-157.5l26,30.37c-10.71,9.18-30.46,38.52-42.4,131.83A1034.06,1034.06,0,0,0,172.33,485.78Z"/><path class="cls-3" d="M193,231a58.55,58.55,0,0,1,14.92-12.46,1.5,1.5,0,0,0-1.51-2.59,60.9,60.9,0,0,0-15.53,12.93,1.55,1.55,0,0,0,0,2.12,1.51,1.51,0,0,0,2.12,0Z"/><ellipse class="cls-3" cx="213.3" cy="214.72" rx="3.11" ry="1.84" transform="translate(-54.83 74.33) rotate(-17.55)"/><path class="cls-23" d="M190.36,317.5a1.1,1.1,0,0,1-.31,0,1,1,0,0,1-.65-1.26l13.23-41.52a1,1,0,0,1,1.26-.65,1,1,0,0,1,.65,1.26l-13.23,41.52A1,1,0,0,1,190.36,317.5Z"/><path class="cls-23" d="M190.36,317.5a1,1,0,0,1-1-.94l-1.1-19.76a1,1,0,0,1,2-.11l1.1,19.76a1,1,0,0,1-1,1.05Z"/><path class="cls-23" d="M179.91,372.42a1,1,0,0,1-1-.8l-3.11-15.81a1,1,0,0,1,2-.39l3.1,15.81a1,1,0,0,1-.79,1.18Z"/><path class="cls-3" d="M146.54,375.71l1.74-11.6a1.54,1.54,0,0,0-1.05-1.84,1.5,1.5,0,0,0-1.84,1.05l-1.74,11.59a1.55,1.55,0,0,0,1,1.85,1.51,1.51,0,0,0,1.84-1.05Z"/><ellipse class="cls-3" cx="148.24" cy="357.33" rx="2.92" ry="1.79" transform="translate(-238.13 376.72) rotate(-70.34)"/><path class="cls-30" d="M616.62,197.5a13.57,13.57,0,0,1-6.18,3.54c-.2.05-.39.09-.59.12l-7.81-.81L394.67,178.88a56,56,0,0,0-8.88-.22c-.35,0-.69,0-1,.06a55.89,55.89,0,0,0-8.9,1.32q-.47.09-.93.21a25,25,0,0,1-18.85-2.78,24.47,24.47,0,0,1-11.26-15.2,24.79,24.79,0,0,1,18.29-29.91l.61-.15.65-.17a56.44,56.44,0,0,0,9.5-3.37,57.44,57.44,0,0,0,8.92-5.08L553.85,4.85h0l6-4.14c.37-.13.73-.24,1.11-.34a13.52,13.52,0,0,1,6.93.21c-6.09,17.8-19.87,65.07-9.74,106.5C568.37,148.92,603.09,184.78,616.62,197.5Z"/><ellipse class="cls-3" cx="475.5" cy="69.51" rx="3.61" ry="2.48" transform="translate(91.85 358.9) rotate(-45.34)"/><path class="cls-3" d="M444.54,91.93a1.59,1.59,0,0,1-.89-2.92l22.66-15.09a1.6,1.6,0,0,1,1.77,2.66L445.42,91.67A1.58,1.58,0,0,1,444.54,91.93Z"/><path class="cls-31" d="M619.88,92.26c12,48.74,10.21,92.29-3.26,105.23a13.48,13.48,0,0,1-6.18,3.54c-.2.05-.39.1-.59.13a14.23,14.23,0,0,1-7.81-.81c-17.69-6.58-38.8-43.64-50.54-91.23S541.22,18.86,553.85,4.85h0a14.4,14.4,0,0,1,6-4.15,10.86,10.86,0,0,1,1.11-.33,13.52,13.52,0,0,1,6.93.2C585.85,5.55,607.82,43.35,619.88,92.26Z"/><path class="cls-32" d="M572.73,129.06l-8.43,4.86c-3.84-8.22-5.73-17.22-7.86-26.12-1.84-7.72-4-15.59-4.47-23.5l9.7-.69L561,85.68c-1.39,17.29,2.28,30.84,11.77,43.38Z"/><path class="cls-33" d="M385.79,178.66c-.35,0-.69,0-1,.06a55.89,55.89,0,0,0-8.9,1.32,75.76,75.76,0,0,1-11.49-48,56.44,56.44,0,0,0,9.5-3.37A66.84,66.84,0,0,0,385.79,178.66Z"/><path class="cls-33" d="M560,190.34h-.15l-101.08-9.88a1.5,1.5,0,1,1,.29-3l101.08,9.88a1.5,1.5,0,0,1-.14,3Z"/><path class="cls-23" d="M418.46,296.94h-.13c-.31,0-7.66-1.06-11.48-3a1,1,0,1,1,.89-1.79c3.52,1.75,10.79,2.76,10.86,2.77a1,1,0,0,1-.14,2Z"/><circle class="cls-17" cx="255.1" cy="464.17" r="2.2"/><circle class="cls-17" cx="255.1" cy="472.1" r="2.2"/><circle class="cls-17" cx="255.1" cy="480.03" r="2.2"/><ellipse class="cls-34" cx="527.64" cy="102.34" rx="10.73" ry="22.02"/><ellipse class="cls-34" cx="506.75" cy="84.84" rx="4.01" ry="8.23"/><path class="cls-29" d="M219,118l-.2,0a.76.76,0,0,1-.52-.93,6.56,6.56,0,0,1,5.47-5.06.75.75,0,1,1,.23,1.48,5.08,5.08,0,0,0-4.26,4A.75.75,0,0,1,219,118Z"/><path class="cls-23" d="M271.3,445.07a752.16,752.16,0,0,1-90-5.46,1,1,0,0,1-.86-1.12,1,1,0,0,1,1.13-.86c.93.13,94.18,12.54,169.39-.56a1,1,0,0,1,.34,2C325.29,443.58,297.09,445.07,271.3,445.07Z"/><path class="cls-35" d="M410.28,328.57a44.2,44.2,0,0,1-6,0c-.53,0-1.05-.07-1.58-.12-.23,0-1.63-.21-.77-.08l-.76-.12c-.52-.08-1-.17-1.55-.27a64.33,64.33,0,0,1-11.36-3.42,2.44,2.44,0,0,0-.62-.25s1,.47.44.18l-1.37-.64c-.83-.41-1.66-.86-2.47-1.33a50.41,50.41,0,0,1-4.71-3.11l-.53-.39c-1-.72.19.1.18.14a7.11,7.11,0,0,0-1-.81c-.8-.64-1.58-1.3-2.35-2-1.43-1.23-2.83-2.5-4.22-3.78a210.13,210.13,0,0,1-16.93-18c-.3-.35-.58-.72-.89-1.06s.29.37.3.41a2.19,2.19,0,0,0-.36-.5A18.36,18.36,0,0,1,352.3,291a4.79,4.79,0,0,0-.26-.56s.41,1.11.23.49c-.11-.39-.27-.77-.39-1.16s-.25-.91-.35-1.38c0-.2-.06-.4-.11-.6-.2-.78.09,1.19,0,.38-.08-1.27-.16-2.53-.22-3.79l-.55-10.89c-.16-3.13-2.65-6.15-6-6-3.12.14-6.17,2.64-6,6l.5,10c.07,1.2.12,2.41.19,3.61a24.37,24.37,0,0,0,4,12.38,105.71,105.71,0,0,0,8.93,10.55c2.9,3.21,5.88,6.35,9,9.33,5.94,5.66,12.31,11.44,19.77,15,9,4.3,19.23,6.83,29.21,6.14,3.12-.21,6.15-2.6,6-6-.14-3.07-2.65-6.23-6-6Z"/><path class="cls-35" d="M177.72,397.75q1.09-9.22,2.3-18.42c.12-.85.23-1.7.34-2.55,0-.24.11-.88,0,.23l.09-.66c.07-.49.13-1,.2-1.47q.38-2.78.77-5.54.83-5.77,1.7-11.53c2.39-15.52,5.1-31,8.95-46.26a153.06,153.06,0,0,1,6.5-20.61c.9-2.18-1-5-3.14-5.53-2.62-.6-4.57.8-5.53,3.14-5.33,12.95-8.25,26.94-10.93,40.63-3.05,15.67-5.42,31.46-7.53,47.28q-1.42,10.64-2.69,21.29c-.28,2.34,2.27,4.6,4.5,4.5,2.68-.12,4.2-2,4.5-4.5Z"/><rect class="cls-10" x="518.57" y="452.58" width="77.95" height="6.72" rx="3.36" transform="translate(1115.09 911.89) rotate(180)"/><rect class="cls-11" x="524.96" y="459.32" width="77.95" height="6.72" rx="3.36" transform="translate(1127.87 925.36) rotate(180)"/><rect class="cls-13" x="518.36" y="466.05" width="77.95" height="6.72" rx="3.36" transform="translate(1114.67 938.83) rotate(-180)"/><rect class="cls-10" x="528.79" y="472.79" width="77.95" height="6.72" rx="3.36" transform="translate(1135.54 952.3) rotate(-180)"/><rect class="cls-11" x="535.19" y="479.53" width="77.95" height="6.72" rx="3.36" transform="translate(1148.32 965.78) rotate(-180)"/><rect class="cls-13" x="528.59" y="486.26" width="77.95" height="6.72" rx="3.36" transform="translate(1135.12 979.25) rotate(180)"/><rect class="cls-10" x="509.82" y="493" width="77.95" height="6.72" rx="3.36" transform="translate(1097.59 992.72) rotate(180)"/><rect class="cls-11" x="516.21" y="499.74" width="77.95" height="6.72" rx="3.36" transform="translate(1110.38 1006.19) rotate(-180)"/><rect class="cls-13" x="509.62" y="506.47" width="77.95" height="6.72" rx="3.36" transform="translate(1097.18 1019.67) rotate(180)"/><g class="cls-36"><path class="cls-3" d="M513,506.47H556.5v6.72H513a3.37,3.37,0,0,1-2.38-5.74A3.39,3.39,0,0,1,513,506.47Z"/><path class="cls-3" d="M509.82,496.36a3.36,3.36,0,0,1,1-2.38,3.31,3.31,0,0,1,2.37-1H556.5v6.72H513.18A3.37,3.37,0,0,1,509.82,496.36Z"/><path class="cls-3" d="M519.58,499.73H556.5v6.72H519.58a3.36,3.36,0,0,1,0-6.72Z"/><path class="cls-3" d="M518.57,455.94a3.39,3.39,0,0,1,1-2.38,3.35,3.35,0,0,1,2.38-1H556.5v6.72H521.93A3.36,3.36,0,0,1,518.57,455.94Z"/><path class="cls-3" d="M518.36,469.41a3.35,3.35,0,0,1,1-2.37,3.31,3.31,0,0,1,2.37-1H556.5v6.72H521.72A3.36,3.36,0,0,1,518.36,469.41Z"/><path class="cls-3" d="M528.32,459.31H556.5V466H528.32A3.36,3.36,0,0,1,526,460.3,3.31,3.31,0,0,1,528.32,459.31Z"/><path class="cls-3" d="M532,486.26H556.5V493H532a3.35,3.35,0,0,1-3.36-3.36,3.39,3.39,0,0,1,1-2.38A3.35,3.35,0,0,1,532,486.26Z"/><path class="cls-3" d="M532.16,472.79H556.5v6.72H532.16a3.36,3.36,0,1,1,0-6.72Z"/><path class="cls-3" d="M538.55,479.52h18v6.72h-18a3.36,3.36,0,0,1,0-6.72Z"/><line class="cls-3" x1="556.5" y1="459.3" x2="556.5" y2="459.31"/><line class="cls-3" x1="556.5" y1="466.04" x2="556.5" y2="466.05"/><line class="cls-3" x1="556.5" y1="472.77" x2="556.5" y2="472.79"/><line class="cls-3" x1="556.5" y1="479.51" x2="556.5" y2="479.52"/><line class="cls-3" x1="556.5" y1="486.24" x2="556.5" y2="486.26"/><line class="cls-3" x1="556.5" y1="492.98" x2="556.5" y2="493"/><line class="cls-3" x1="556.5" y1="499.72" x2="556.5" y2="499.73"/><line class="cls-3" x1="556.5" y1="506.45" x2="556.5" y2="506.47"/></g><path class="cls-35" d="M192.1,335.77a331.92,331.92,0,0,1-1.47,51.42c-.07.65-.15,1.3-.23,1.95,0,.29-.07.58-.11.86,0,.11-.16,1.24-.09.7s0,.22,0,.26c0,.43-.12.86-.18,1.29-.09.64-.19,1.28-.29,1.92q-.6,3.88-1.38,7.75c-.46,2.3.66,5,3.15,5.53,2.24.51,5-.67,5.53-3.14,3.7-18.31,4.61-37.18,4.44-55.83q-.06-6.36-.33-12.71a4.5,4.5,0,0,0-9,0Z"/><path class="cls-14" d="M344.7,520.49H188.56a5,5,0,1,1,0-10H344.7a5,5,0,1,1,0,10Z"/><path class="cls-5" d="M131.75,520H84.15a4.5,4.5,0,1,1,0-9h47.6a4.5,4.5,0,0,1,0,9Z"/><polygon class="cls-37" points="582.39 82.17 551.92 84.27 556.77 110.9 564.63 133.68 591.41 118.6 582.39 82.17"/><path class="cls-22" d="M592,99.13c2.22,9,1.89,17.08-.61,19.47a2.55,2.55,0,0,1-1.14.66l-.11,0a2.6,2.6,0,0,1-1.44-.15c-3.28-1.22-7.18-8.07-9.35-16.88s-1.91-16.69.43-19.29h0a2.83,2.83,0,0,1,1.11-.77l.2-.06a2.58,2.58,0,0,1,1.29,0C585.72,83.09,589.79,90.09,592,99.13Z"/><path class="cls-38" d="M588.5,100c1,4,.84,7.58-.27,8.64a1,1,0,0,1-.51.29l0,0a1.24,1.24,0,0,1-.65-.07c-1.45-.54-3.18-3.59-4.15-7.49s-.84-7.41.2-8.57h0a1.24,1.24,0,0,1,.49-.34l.09,0a1.11,1.11,0,0,1,.57,0C585.71,92.88,587.51,96,588.5,100Z"/><path class="cls-30" d="M606.39,195.45a13.66,13.66,0,0,1-5.25-1.15c-16-6.68-34.67-42-45.5-85.93s-10.7-83.78.28-97.17h0l.08-.09a12.76,12.76,0,0,1,5.47-4c.34-.12.69-.23,1-.32a11.87,11.87,0,0,1,6.49.33c16.06,5.12,35.77,41.46,46.86,86.42,11,44.75,10.54,86-1.18,98.18a11.7,11.7,0,0,1-5.71,3.44,6,6,0,0,1-.61.13A10.72,10.72,0,0,1,606.39,195.45ZM557.6,12.31l-.07.08c-10.5,12.65-10.48,52.81.05,95.5s29.16,78.21,44.34,84.56a10.57,10.57,0,0,0,6.13.84,3.09,3.09,0,0,0,.45-.1,9.79,9.79,0,0,0,4.75-2.88c11.28-11.69,11.56-52.2.68-96.32C603,49.66,583.85,13.92,568.4,9a9.87,9.87,0,0,0-5.4-.3,8.16,8.16,0,0,0-.84.26A10.7,10.7,0,0,0,557.6,12.31Z"/><path class="cls-5" d="M599.77,520H497.17a4.5,4.5,0,0,1,0-9h102.6a4.5,4.5,0,0,1,0,9Z"/></g></g></svg>