<?xml version="1.0" encoding="UTF-8"?>
<svg id="Layer_2" data-name="Layer 2" xmlns="http://www.w3.org/2000/svg" viewBox="0 0 279.97 308.72">
  <defs>
    <style>
      .cls-1 {
        fill: #e89176;
      }

      .cls-2 {
        fill: #f7991c;
      }

      .cls-3 {
        fill: #fdc6a2;
      }

      .cls-4 {
        fill: #ef941d;
      }

      .cls-5 {
        fill: #fff;
      }

      .cls-6 {
        fill: #ffdaa9;
      }

      .cls-7 {
        fill: #ef4625;
      }

      .cls-8 {
        fill: #ffbb59;
      }

      .cls-9 {
        fill: #9c8da0;
      }

      .cls-10, .cls-11 {
        fill: #8f90fd;
      }

      .cls-12 {
        fill: #b9cbde;
      }

      .cls-13 {
        fill: #a4a4f6;
      }

      .cls-14 {
        fill: #cc1a02;
      }

      .cls-15 {
        fill: #dbcdd3;
      }

      .cls-16 {
        fill: #d3d6fe;
      }

      .cls-17 {
        fill: #dd8007;
      }

      .cls-18 {
        fill: #453f47;
      }

      .cls-19 {
        fill: #191818;
      }

      .cls-20 {
        fill: #6f6372;
      }

      .cls-21 {
        fill: #63456b;
      }

      .cls-22 {
        fill: #4c55fc;
      }

      .cls-23 {
        fill: #7488a3;
      }

      .cls-24 {
        fill: #7171d8;
      }

      .cls-11 {
        opacity: .22;
      }

      .cls-25 {
        opacity: .31;
      }
    </style>
  </defs>
  <g id="Layer_1-2" data-name="Layer 1">
    <g>
      <polygon class="cls-7" points="274.48 245.68 264.64 236.35 254.74 245.68 254.74 205.58 274.48 205.58 274.48 245.68"/>
      <path class="cls-14" d="M255.14,225.65c5.71,3.62,13.1,3.63,18.76-.11,1.6-1.06,.1-3.66-1.51-2.59-4.81,3.19-10.87,3.19-15.73,.11-1.64-1.04-3.14,1.56-1.51,2.59h0Z"/>
      <path class="cls-19" d="M255.09,230.62v-25.04l-.36,.36h19.74l-.36-.36v40.09l.61-.25c-3.28-3.11-6.55-6.22-9.83-9.33-.14-.14-.36-.14-.51,0-3.3,3.11-6.61,6.22-9.91,9.33l.61,.25v-12.19c0-.46-.72-.46-.72,0v12.19c0,.32,.39,.46,.61,.25,3.3-3.11,6.61-6.22,9.91-9.33h-.51c3.28,3.11,6.55,6.22,9.83,9.33,.22,.21,.61,.06,.61-.25v-40.09c0-.19-.16-.36-.36-.36h-19.74c-.19,0-.36,.16-.36,.36v25.04c0,.46,.72,.46,.72,0h0Z"/>
      <path class="cls-15" d="M139.21,109.04c-3.25,1.46-2.79,6.21-1.89,8.97,1.32,4.03,2.95,8.13,1,12.24-.75,1.58-1.58,3.1-1.72,4.87s.55,3.42,1.61,4.8c2.56,3.32,6.42,4.18,10.43,4,1.92-.09,1.93-3.09,0-3-3.23,.15-6.53-.34-8.4-3.28-1.75-2.76,.72-5.39,1.54-8.03,1.03-3.31,.25-6.79-.78-9.99-.5-1.56-1.25-3.14-1.3-4.8-.04-1.14-.21-2.65,1.01-3.2,1.76-.79,.23-3.38-1.51-2.59h0Z"/>
      <path class="cls-20" d="M128.79,133.35c.58,3.56,2.09,7.65,4.52,10.4s5.55,4.71,8.66,6.49c-1.99-6.77-6.26-12.35-11.95-16.75-.18-.14-.95-.51-.94-.28"/>
      <path class="cls-18" d="M127.87,134.78c.5,3.38,2.41,6.31,4.47,8.95s4.71,4.9,7.42,6.91c.65,.48,1.67,.11,2.05-.54,.45-.76,.11-1.57-.54-2.05-2.43-1.8-4.79-3.86-6.66-6.25s-3.41-4.87-3.85-7.82c-.12-.8-1.13-1.24-1.85-1.05-.86,.24-1.17,1.04-1.05,1.85h0Z"/>
      <path class="cls-13" d="M52.56,50.76c-12.81-1.38-17.59-2.11-30.4-3.48-3.02-.32-6.35-.57-8.83,1.19-2.55,1.82-3.36,5.2-3.98,8.27-.4,2.01-.81,4.01-1.21,6.02-2.76,13.7-4.79,29.8-7.07,43.25-.44,2.63-.79,5.06-.68,7.72s.85,3.95,2.68,5.88c2.39,2.53,6.06,3.3,9.48,3.9,8.44,1.48,14.07,2.74,23.67,4.02"/>
      <path class="cls-24" d="M10.76,64.29c.42-2.27,.93-4.53,1.51-6.76,.5-1.93,.84-4.42,2.17-5.99,1.22-1.44,3.24-1.87,5.04-1.88,2.41-.01,4.82,.5,7.19,.86,.8,.12,1.61-.2,1.85-1.05,.19-.71-.24-1.72-1.05-1.85-4.78-.71-10.8-2.32-14.78,1.41-1.83,1.72-2.4,4.3-3.03,6.63-.7,2.59-1.3,5.19-1.79,7.83-.15,.8,.22,1.62,1.05,1.85,.73,.2,1.7-.25,1.85-1.05h0Z"/>
      <path class="cls-24" d="M25.04,79.73c-1.34,7.94-2.53,15.91-3.54,23.91-.49,3.94-.94,7.88-1.33,11.83-.32,3.2-.66,6.45,1.49,9.11,1.21,1.5,3.32-.63,2.12-2.12-.87-1.08-.91-2.59-.87-3.92,.06-1.65,.27-3.3,.44-4.95,.38-3.64,.8-7.28,1.27-10.91,.95-7.41,2.06-14.79,3.31-22.16,.32-1.89-2.57-2.7-2.89-.8h0Z"/>
      <path class="cls-24" d="M3.58,92.15c-.98,5.21-1.99,10.44-2.72,15.7-.4,2.93-.6,6.09,.41,8.92,1.42,3.95,4.9,5.37,8.72,6.28,5.3,1.26,10.7,1.99,16.05,3.03,1.89,.36,2.69-2.53,.8-2.89-4.32-.84-8.69-1.47-13-2.36-3.25-.66-8-1.1-9.54-4.54-1.07-2.38-.86-5.32-.51-7.85s.83-5.23,1.29-7.83,.92-5.1,1.4-7.65c.35-1.89-2.54-2.7-2.89-.8h0Z"/>
      <path class="cls-12" d="M73.32,53.2c-.57-5.31-4.76-30.92-5.59-38.59l-.23-2.07c-.51-4.68-.99-9.06-1.34-12.35,1.03-.07,2.06,.02,3.06,.28,.26,.07,.53,.15,.72,.35,.22,.23,.28,.57,.34,.88,1.45,8.69,7.24,43.59,8.69,52.28"/>
      <path class="cls-12" d="M86.56,55.38c3.81-8.31,14.37-29.18,18.17-37.49-.95-.39-1.96-.63-2.99-.71-.27-.02-.55-.02-.79,.1-.28,.15-.45,.45-.6,.73-4.13,7.79-15.31,28.66-19.44,36.45"/>
      <path class="cls-16" d="M39.41,127.74c-5.01-1.06-12.34-1.24-14.87-4.67-1.69-2.28-1.47-5.4-1.17-8.22,1.5-14.18,4.02-31.27,6.84-46.37l.42-2.4c1.11-5.87,1.92-12.23,7.28-14.86,3.18-1.56,6.91-1.35,10.44-1.06,23.62,1.92,47.28,6.65,70.68,10.39,2.25,.36,4.6,.76,6.41,2.14,3.56,2.71,3.67,7.94,3.31,12.4-1.33,16.4-4.64,32.56-7.93,48.68-.96,4.72-2.21,9.88-6.11,12.69-4.14,2.98-9.8,2.27-14.83,1.43-19.18-3.22-38.36-6.43-57.53-9.65l-2.93-.49Z"/>
      <path class="cls-20" d="M47.58,64.57c.63-3.16,.86-6.22,3.99-7.01,1-.25,2.04-.14,3.06-.03,20.09,2.29,40.92,5.18,60.82,8.77,1.37,.25,2.79,.52,3.9,1.35,2.4,1.81,2.47,5.38,2.04,8.35-2.01,13.71-3.89,22.93-6.36,36.55l-2.05,9.73c-.48,1.77-1.21,4.61-2.96,5.17-.67,.21-1.4,.13-2.1,.05-20.41-2.39-40.28-5.38-60.49-9.08-2.78-.51-6.52-1.46-7.67-4.05-.61-1.37-.23-3.26-.09-4.75,.43-4.64,.61-5.84,1.6-10.92l2.49-13.88c.47-2.31,.42-2.26,.75-4.14l3.06-16.11Z"/>
      <path class="cls-3" d="M179.22,143.26c-.76,18.05-2.04,36.57-2.81,54.62-.1,2.38,.09,5.14,.72,7.45s2.32,5.02,4.54,5.89,5.37-.21,6.29-2.41c.72-1.71,.65-4.9,.26-6.71-2.34-10.89,2.18-21.67,3.82-32.7,1.11-7.48,.54-15.2-1.64-22.43"/>
      <path class="cls-1" d="M178.89,149.22c2.47,2.3,5.79,4.15,9.24,4.22,.82,.02,1.24-1.25,.44-1.62-2.18-1.01-4.3-2.24-6.67-2.79-1.09-.25-1.56,1.43-.46,1.68,2.23,.51,4.2,1.66,6.25,2.61l.44-1.62c-2.98-.06-5.88-1.73-8.01-3.71-.82-.76-2.05,.47-1.23,1.23h0Z"/>
      <path class="cls-10" d="M200.03,115.81c-10.31,4.02-22.12,14.79-24.52,27.47-.16,.86,.83,1.7,1.31,2.45,.38,.59,.82,.98,1.47,1.27,2.51,1.13,4.09,2.29,6.6,3.42,1,.45,2.05,.91,3.15,.81,1.47-.13,2.64-1.24,3.49-2.41,1.74-2.39,2.66-5.26,3.35-8.11,1.03-4.26,1.63-8.62,1.77-13"/>
      <path class="cls-8" d="M182.05,287.28c-5.53,3.49-9.71,9.06-11.51,15.34-.13,.44-.24,.91-.09,1.34,.18,.51,.69,.83,1.18,1.07,2.32,1.15,4.96,1.49,7.55,1.61,8.51,.37,17.12-1.64,24.58-5.74,.37-.21,.76-.44,.96-.81,.19-.36,.12-.78,.14-1.18,.29-5.39-1.25-6.72-4.45-10.63"/>
      <path class="cls-2" d="M181.38,290.17c5.07,4.72,13.32,3.92,19.12,1.14,1.11-.53,.14-2.17-.96-1.64-4.99,2.39-12.43,3.25-16.82-.84-.9-.84-2.25,.51-1.35,1.35h0Z"/>
      <path class="cls-20" d="M192.74,204.28l-2.66,22.24-2.65,53.68s-.58,1.91-.75,2.12c-.36,.44-1.03,.41-1.59,.52-1.75,.31-2.87,2.3-2.58,4.06,.29,1.75,1.7,3.17,3.33,3.87s3.46,.8,5.23,.75c2.29-.07,5.2,.31,7.09-.99,.83-.57,1.94-1.72,1.96-2.73,.01-.79-.4-2.08-.71-2.81-.35-.83-.57,1.15-.76,.28-.39-1.83,5.71-38.55,6.1-40.41,2.87-13.89,3.49-25.56,10.32-38.43-.67-.03-.36-.33-1.04-.36"/>
      <path class="cls-9" d="M191.45,220.27c-.41,5.53-.83,11.07-1.24,16.6l-.18,2.39c-.08,1.12,1.66,1.11,1.74,0l1.24-16.6,.18-2.39c.08-1.12-1.66-1.11-1.74,0h0Z"/>
      <path class="cls-19" d="M181.87,286.97c-4.05,2.6-7.4,6.21-9.64,10.49-.49,.94-.92,1.9-1.3,2.88s-.97,2.2-.89,3.28c.15,2.14,4.01,2.76,5.6,3.03,5.27,.9,10.92,.38,16.11-.8,2.68-.61,5.3-1.46,7.84-2.53,1.22-.51,2.41-1.08,3.59-1.69,.83-.44,1.78-.82,2.01-1.82,.44-1.91,.37-4.45-.3-6.31-.8-2.21-2.52-3.93-4.21-5.48-.34-.31-.84,.19-.51,.51,1.42,1.31,2.88,2.72,3.73,4.49,.71,1.48,.84,3.08,.73,4.7-.09,1.27-.2,2.42-1.43,3.09-1.03,.56-2.09,1.07-3.17,1.55-2.26,1-4.59,1.81-6.98,2.44-4.51,1.19-9.21,1.71-13.87,1.5-2.45-.11-5.16-.37-7.37-1.56-.9-.48-1.14-.94-.87-2.2,.09-.43,.27-.86,.41-1.28,.39-1.12,.87-2.21,1.41-3.26,2.18-4.24,5.46-7.83,9.47-10.4,.39-.25,.03-.87-.36-.62h0Z"/>
      <path class="cls-21" d="M205.3,241.64c.39-3.59,.97-7.16,1.65-10.7,1.17-6.08,2.55-12.44,5.47-17.95,.57-1.08-1.07-2.05-1.64-.96-3,5.67-4.46,12.16-5.66,18.41-.71,3.71-1.32,7.45-1.72,11.21-.13,1.22,1.77,1.21,1.9,0h0Z"/>
      <path class="cls-19" d="M198.93,285.83c2-9.32,3.06-18.84,4.37-28.27,1.49-10.74,3-21.53,5.52-32.08,1.14-4.79,2.48-9.61,4.58-14.08,.19-.41-.42-.78-.62-.36-4.01,8.52-5.7,18.17-7.29,27.37-1.88,10.85-3.21,21.77-4.78,32.66-.7,4.87-1.43,9.75-2.46,14.57-.1,.45,.59,.64,.69,.19h0Z"/>
      <path class="cls-21" d="M183.2,287.85c1.21,2.97,4.76,3.55,7.62,3.63,1.75,.05,3.52-.15,5.21-.58,1.47-.37,3.1-.8,3.7-2.34,.45-1.14-1.39-1.64-1.84-.51-.16,.4-.85,.56-1.2,.68-.6,.2-1.21,.36-1.83,.49-1.33,.28-2.69,.39-4.05,.35-1.79-.05-4.97-.24-5.78-2.23-.19-.48-.63-.81-1.17-.67-.45,.12-.86,.7-.67,1.17h0Z"/>
      <path class="cls-19" d="M190.88,292.14c1.53,.05,3.06-.07,4.58-.29,1.3-.19,2.64-.5,3.7-1.32,.88-.68,1.55-1.68,1.59-2.82,.05-1.25-.68-2.33-1.51-3.2-.32-.33-.83,.17-.51,.51,.73,.76,1.41,1.72,1.29,2.83-.11,1.05-.89,1.92-1.77,2.43-1.02,.59-2.23,.79-3.39,.94-1.32,.17-2.65,.25-3.98,.21-.46-.01-.46,.7,0,.72h0Z"/>
      <path class="cls-19" d="M186.8,282.33c-2.29,.37-5.06,2.49-4.71,5.08,.17,1.28,1.26,2.21,2.27,2.89,1.13,.76,2.44,1.24,3.77,1.52,.45,.1,.64-.59,.19-.69-1.11-.24-2.19-.6-3.17-1.19-.91-.54-2.06-1.35-2.32-2.45s.45-2.26,1.21-3.01c.81-.79,1.84-1.29,2.95-1.47,.45-.07,.26-.76-.19-.69h0Z"/>
      <path class="cls-5" d="M175.07,301.75c.4-.8,.84-1.57,1.33-2.3,.24-.36,.5-.72,.77-1.06-.05,.07-.06,.08,0,0,.03-.04,.07-.08,.1-.12,.07-.08,.13-.16,.2-.25,.15-.18,.31-.36,.47-.54,.33-.37,.39-.98,0-1.35-.36-.33-.99-.4-1.35,0-1.25,1.41-2.32,2.97-3.16,4.66-.22,.45-.13,1.05,.34,1.3,.43,.23,1.07,.13,1.3-.34h0Z"/>
      <path class="cls-5" d="M180.12,294.68c1.23,0,1.23-1.9,0-1.9s-1.23,1.9,0,1.9h0Z"/>
      <path class="cls-19" d="M187.51,284.09c.64-9.54,1.05-19.09,1.57-28.64,.63-11.59,1.27-23.19,2.24-34.76,.4-4.73,.81-9.48,1.57-14.17,.07-.45-.62-.64-.69-.19-1.52,9.39-2.01,18.98-2.62,28.45-.76,11.69-1.35,23.4-1.97,35.1-.25,4.74-.49,9.48-.81,14.21-.03,.46,.68,.46,.72,0h0Z"/>
      <path class="cls-8" d="M239.13,288.85c5.89,2.82,10.69,7.87,13.21,13.9,.18,.42,.34,.88,.24,1.32-.12,.53-.59,.91-1.05,1.2-2.18,1.41-4.75,2.06-7.31,2.47-8.41,1.36-17.19,.36-25.08-2.85-.39-.16-.81-.34-1.05-.7-.23-.33-.31-.76-.28-1.16,.31-4.3,.91-6.65,3.19-11.08"/>
      <path class="cls-2" d="M238.71,290.37c-4.18,4.92-11.37,4.34-16.87,2.43-1.16-.4-1.66,1.44-.51,1.84,3.43,1.19,7.05,1.89,10.68,1.28,3.03-.51,6.03-1.82,8.05-4.21,.79-.93-.55-2.28-1.35-1.35h0Z"/>
      <path class="cls-19" d="M238.95,289.15c3.55,1.74,6.7,4.21,9.19,7.28,1.27,1.57,2.37,3.28,3.25,5.09,.21,.44,.51,.92,.62,1.4,.25,1.04-.16,1.74-1.03,2.27-1.01,.62-2.13,1.06-3.27,1.41-4.32,1.31-9.07,1.56-13.55,1.3s-9-1.17-13.26-2.71c-.56-.2-1.59-.43-2.03-.81-.7-.6-.71-1.53-.63-2.38,.1-1.13,.25-2.25,.5-3.35,.52-2.29,1.49-4.43,2.55-6.51,.21-.41-.41-.77-.62-.36-1.06,2.09-2.04,4.22-2.58,6.51-.23,.96-.38,1.94-.49,2.93s-.44,2.28,.16,3.16c.46,.67,1.38,.92,2.1,1.19,1.33,.51,2.67,.96,4.04,1.34,2.55,.72,5.16,1.22,7.79,1.51,5.18,.56,10.74,.41,15.78-1,1.59-.45,4.56-1.26,5.32-2.94,.39-.88-.11-1.81-.48-2.61-.48-1.05-1.02-2.07-1.63-3.05-2.75-4.42-6.73-8-11.4-10.28-.41-.2-.77,.42-.36,.62h0Z"/>
      <path class="cls-20" d="M232.51,199.09c1.88,18.66,2.94,68.12,3.18,86.87l.3-2.83c1.78,.21,3.79,.86,4.45,2.54,.43,1.11,.11,2.41-.59,3.38s-1.73,1.64-2.78,2.19c-4.11,2.14-9.07,2.6-13.5,1.25-.95-.29-1.89-.66-2.64-1.31s-1.29-1.59-1.25-2.58c.05-.99,.67-1.87,1.45-2.47s1.72-.96,2.64-1.32l-.27,2.9c-1.18-11.02-3.08-36.3-6-55.86-1.18-7.94-2.66-21.96-2.66-21.96"/>
      <path class="cls-21" d="M231.65,209.84c.88,9.25,1.08,18.58,1.33,27.86,.29,11.1,.44,22.21,.49,33.32,.02,4.65,.03,9.31-.02,13.96-.01,1.23,1.89,1.23,1.9,0,.1-9.3,.01-18.61-.11-27.91-.14-11.1-.36-22.21-.83-33.3-.2-4.64-.42-9.29-.86-13.92-.12-1.21-2.02-1.22-1.9,0h0Z"/>
      <path class="cls-19" d="M232.19,199.47c1.07,10.72,1.42,21.53,1.82,32.3,.47,12.78,.81,25.56,1.07,38.35,.11,5.41,.21,10.82,.28,16.23,0,.46,.72,.46,.72,0-.14-10.79-.37-21.58-.66-32.36-.34-12.78-.74-25.56-1.4-38.33-.28-5.4-.58-10.8-1.12-16.18-.05-.45-.76-.46-.72,0h0Z"/>
      <path class="cls-19" d="M217.54,234.51c.53,5.15,1.06,10.29,1.59,15.44,.94,9.16,1.89,18.31,2.84,27.47,.35,3.39,.7,6.79,1.06,10.18,.05,.45,.76,.46,.72,0-.77-7.24-1.51-14.49-2.26-21.73-.89-8.58-1.77-17.15-2.65-25.73-.19-1.87-.39-3.75-.58-5.62-.05-.45-.76-.46-.72,0h0Z"/>
      <path class="cls-19" d="M214.34,210.55c.78,5.72,1.55,11.43,2.33,17.15,.11,.81,.22,1.62,.33,2.43,.06,.45,.75,.26,.69-.19-.78-5.72-1.55-11.43-2.33-17.15-.11-.81-.22-1.62-.33-2.43-.06-.45-.75-.26-.69,.19h0Z"/>
      <path class="cls-19" d="M222.23,285.45c-2.13,1.05-3.83,3.26-2.26,5.56,1.46,2.14,4.73,2.68,7.11,2.9,2.99,.28,6.04-.19,8.81-1.34,2.23-.93,4.84-2.42,5.1-5.1,.28-2.87-2.64-4.01-4.98-4.32-.45-.06-.45,.66,0,.72,1.23,.16,2.62,.49,3.52,1.41,1.2,1.23,.82,3.07-.22,4.27-1.74,2.01-4.84,2.98-7.36,3.44-2.73,.5-5.61,.35-8.27-.46-1.4-.43-3.02-1.15-3.51-2.67-.58-1.8,.99-3.08,2.42-3.79,.41-.2,.05-.82-.36-.62h0Z"/>
      <path class="cls-20" d="M187.55,185.16c-3.79,8.82-.09,19.41,9.26,25.18,9.35,5.77,23.79,6,33.12,.22,1.99-1.23,3.73-2.69,5.29-4.25,4.29-4.28,6.66-9.19,6.04-14.6"/>
      <path class="cls-21" d="M188.13,193.15c6.59,5.84,15.59,5.87,23.81,4.56,4.75-.75,9.45-1.85,14.24-2.31,2.17-.21,4.37-.3,6.55-.16,1.2,.08,2.39,.23,3.56,.49,.9,.2,2.25,.38,3.03,.88l-.44-.57c-.02-.07-.25,.51-.29,.65-.11,.42-.13,.88-.24,1.31-.26,1.07-.67,2.1-1.16,3.08-.92,1.84-2.13,3.56-3.74,4.86-.96,.77,.4,2.11,1.35,1.35,2.97-2.38,4.83-6.1,5.59-9.77,.13-.65,.59-1.31,.33-1.98-.3-.8-1.19-.86-1.9-1.08-2.19-.69-4.44-1.05-6.74-1.15-9.77-.42-19.12,3.44-28.85,3.27-4.95-.09-9.99-1.43-13.76-4.77-.91-.81-2.27,.53-1.35,1.35h0Z"/>
      <path class="cls-19" d="M231.69,210.38c5.64-4.45,10.95-11.52,9.85-19.1-.07-.45-.75-.26-.69,.19,1.06,7.3-4.27,14.14-9.67,18.41-.36,.28,.15,.79,.51,.51h0Z"/>
      <path class="cls-19" d="M207.36,214.58c4.73,.81,9.58,.73,14.26-.32,.45-.1,.26-.79-.19-.69-4.55,1.02-9.29,1.11-13.88,.32-.45-.08-.64,.61-.19,.69h0Z"/>
      <path class="cls-19" d="M188.82,192.12c6.45,5.02,15.41,5.26,23.18,4.03,4.77-.76,9.4-2.16,14.23-2.52s9.91,.01,14.74,1.04c.45,.1,.64-.59,.19-.69-4.44-.94-9-1.36-13.54-1.15s-8.7,1.23-13.03,2.12c-8.22,1.69-18.29,2.11-25.27-3.33-.36-.28-.87,.22-.51,.51h0Z"/>
      <path class="cls-9" d="M186.74,197.09c1.37,4.16,3.79,7.92,7.04,10.85,.83,.75,2.06-.48,1.23-1.23-3.03-2.73-5.32-6.21-6.59-10.09-.35-1.06-2.03-.61-1.68,.46h0Z"/>
      <path class="cls-19" d="M185.9,189.76c-1.04,7.71,2.8,15.04,8.88,19.64,.37,.28,.72-.34,.36-.62-5.89-4.46-9.52-11.57-8.52-19.02,.06-.45-.65-.45-.72,0h0Z"/>
      <path class="cls-19" d="M218.55,212.47c4.49-.82,8.7-2.76,12.26-5.61,.36-.29-.15-.79-.51-.51-3.47,2.77-7.59,4.63-11.95,5.43-.45,.08-.26,.77,.19,.69h0Z"/>
      <path class="cls-19" d="M230.83,223.25c.21,3.94,.43,7.88,.64,11.82,.03,.57,.06,1.13,.09,1.7,.02,.46,.74,.46,.72,0-.21-3.94-.43-7.88-.64-11.82-.03-.57-.06-1.13-.09-1.7-.02-.46-.74-.46-.72,0h0Z"/>
      <path class="cls-19" d="M200.22,262.4c.5-3.17,1.01-6.35,1.51-9.52,.07-.45,.14-.9,.21-1.35s-.62-.64-.69-.19c-.5,3.17-1.01,6.35-1.51,9.52-.07,.45-.14,.9-.21,1.35s.62,.64,.69,.19h0Z"/>
      <path class="cls-3" d="M238.65,152.59c7.74,17.72,13.38,38.64,14.23,41.04,.2,.58,.61,.56,.6,1.18-.02,.56-.76,2.03-.76,2.59-.03,2.49,1.86,2.29,2.77,2.95,.57,.42,.18,1.5,.12,2.66s.19,2.48,.34,3.2c.29,1.41,1.79,3.32,2.75,4.4,.95,1.08,4.31,.88,5.32-.48,.74-1,2.07-2.75,2.24-3.98,.5-3.58,.74-7.89-1.43-10.79-.55-.73-1.59-1.54-2.39-2.16-.28-.22-.61-.11-.77-.38-.6-1.03-.81-2.24-1.02-3.41-1.65-9.03-4.12-34.08-8.07-42.37"/>
      <path class="cls-1" d="M256.89,202.28c2.07,.13,4.14-1.47,4.51-3.52,.08-.45-.12-.96-.61-1.07-.43-.1-.98,.13-1.07,.61-.04,.21-.1,.4-.17,.6-.05,.15,.09-.18,0-.02-.02,.04-.04,.08-.06,.12-.04,.08-.09,.17-.14,.25-.05,.09-.12,.17-.17,.26,.12-.2,.05-.06,0-.01-.03,.04-.07,.08-.1,.12-.13,.15-.28,.28-.44,.41-.08,.07,.16-.11,.03-.03-.04,.03-.08,.06-.13,.09-.09,.06-.18,.11-.27,.16-.08,.04-.21,.08-.28,.14,.05-.04,.18-.07,.04-.02-.05,.02-.1,.04-.15,.05-.19,.06-.38,.1-.58,.14,.29-.06-.05,0-.13,0-.1,0-.21,0-.31,0-.46-.03-.89,.42-.87,.87,.02,.5,.38,.84,.87,.87h0Z"/>
      <path class="cls-1" d="M241,156.29c4.56,.9,9.87-.55,12.63-4.46,.65-.92-.86-1.79-1.5-.88-2.28,3.23-6.94,4.39-10.67,3.66-1.09-.22-1.56,1.46-.46,1.68h0Z"/>
      <path class="cls-19" d="M239.47,154.66c2.38,4.82,3.83,10.22,5.48,15.31,2.07,6.39,4.06,12.81,6.09,19.21,.59,1.84,1.11,3.74,1.85,5.53,.17,.42,.86,.24,.69-.19-1.77-4.29-2.92-8.92-4.31-13.34-2.09-6.65-4.17-13.31-6.47-19.9-.82-2.35-1.61-4.75-2.71-6.98-.2-.41-.82-.05-.62,.36h0Z"/>
      <path class="cls-19" d="M253.11,150.61c.76,1.7,1.06,3.69,1.45,5.5,.67,3.16,1.26,6.34,1.82,9.52,1.23,6.89,2.34,13.8,3.4,20.72,.33,2.12,.66,4.24,.95,6.37,.06,.45,.78,.46,.72,0-1.61-12.03-3.55-24.1-6.02-35.98-.44-2.14-.79-4.47-1.69-6.48-.19-.42-.8-.06-.62,.36h0Z"/>
      <path class="cls-19" d="M266.74,199.27c-.27-1.44-.99-2.81-1.88-3.97-.97-1.27-2.19-2.34-3.68-2.94-.43-.17-.61,.52-.19,.69,1.36,.55,2.5,1.6,3.37,2.77,.8,1.08,1.44,2.32,1.69,3.64,.08,.45,.77,.26,.69-.19h0Z"/>
      <path class="cls-19" d="M255.58,200.55c-.82,3.48-.25,7.87,2.72,10.22,1.3,1.03,2.97,1.39,4.53,.74,1.65-.7,2.74-2.2,3.33-3.85,.8-2.25,.78-4.59,.64-6.93-.03-.46-.74-.46-.72,0,.18,3.22,.26,7.58-2.71,9.67-1.33,.93-2.93,.96-4.29,.07s-2.2-2.37-2.67-3.87c-.6-1.9-.6-3.92-.14-5.85,.11-.45-.58-.64-.69-.19h0Z"/>
      <path class="cls-10" d="M256.33,147.14c-.19,.89-1.43,2.84-2.16,3.38-3.79,2.82-7.75,4.36-12.46,4.65-.68,.04-2.7-1.06-3.16-.58-.45,.49-.44,1.23-.42,1.89,.22,4.63,1.53,36.32,1.75,40.95-3.63-.59-7.55-1.01-11.21-.83-3.09,.15-7.65,.63-10.67,1.28-5.78,1.25-11.65,2.19-17.54,1.68-5.89-.51-12.43-3.39-16.37-7.79,4.31-7.47,6.31-43.01,4.9-51.5-.1-.63,.7-.95,.34-1.47-.05-.07-.1-.14-.15-.2,.12-.53,.21-1.08,.3-1.61,1.16-6.59,1.98-12.95,5.15-18.85,.03-.05,1.72-.88,1.74-.94,.36-.27,1-.45,1.41-.67,.93-.48,1.7-.57,2.03,.42,.39-2.09,3.33-4.69,5.46-4.77,2.11-.08,3.61,2.82,5.64,3.4,2.05,.59,4.3,.95,6.23,.08,.66-.3,1.27-.74,1.98-.8,.6-.05,2.72,.82,3.29,1.05,13.91,5.7,25.39,14.35,32.48,27.42,.48,.89,1.66,2.84,1.42,3.83Z"/>
      <path class="cls-22" d="M221.72,196.91c-3.02,1.16-2.5,1.08-7.47,1.65-3.22,.37-2.89-6.06-1.59-9.03-2.32,.16-5.07,.48-7.08-4.55-2.36-5.93,1.45-23.79,1.12-24.41-.69-1.26-2.78-.35-3.99-1.12-1.16-.74-.86-2.54-.18-3.74s1.63-2.46,1.34-3.81c-.33-1.48-2.03-2.3-2.47-3.74-.8-2.61,2.81-4.54,3.26-7.23,.25-1.51-.56-2.99-1.43-4.25-.88-1.26-1.88-2.52-2.12-4.04-.23-1.52,.7-3.34,2.23-3.41-1.56-3,.44-6.49,3.32-7.65-1.08-1.89-1.42-5.29,.9-6.38,1.66-.78,6.54-2.93,8.28-2.89,2.64,.05,2.4,.76,4.64,1.53,.87,.3,1.44,1.9,2.5,2.42,2.05,1,4.71,1.75,6.26,2.56,10.66,5.59,19.22,13.72,25.68,24.22,.53,.87,1.66,2.85,1.43,3.84-.2,.88-1.44,2.83-2.17,3.37-3.78,2.82-7.11,4.85-12.47,4.65-.67-.02-2.7-1.07-3.15-.58-.45,.49-.45,1.23-.42,1.89,.12,2.55,1.43,13.69,2.24,23.89,.65,8.27,.81,15.92,.91,17.99-3.62-.59-8.72-1.35-12.38-1.16-3.08,.16-5.65-.12-8.67,.53"/>
      <path class="cls-22" d="M185.61,193.38c5.88,4.96,13.75,7.2,21.37,6.38,1.21-.13,1.22-2.03,0-1.9-7.11,.76-14.52-1.18-20.02-5.82-.93-.78-2.29,.56-1.35,1.35h0Z"/>
      <path class="cls-22" d="M185.6,191.07c.95-2.52,1.33-5.31,1.74-7.96,.63-3.99,1.11-8,1.54-12.01,.76-7.03,1.44-14.1,1.78-21.17,.3-6.15-.06-12.37,1.85-18.31,.38-1.17-1.46-1.67-1.84-.51-1.86,5.79-1.68,11.89-1.88,17.89-.09,2.66-.3,5.31-.51,7.96-.63,8.1-1.39,16.21-2.57,24.25-.46,3.1-.84,6.4-1.95,9.35-.43,1.15,1.41,1.64,1.84,.51h0Z"/>
      <path class="cls-19" d="M189.1,154.06c1.21-8.22-.45-16.8,2.33-24.78,.15-.44-.54-.62-.69-.19-2.78,7.99-1.12,16.55-2.33,24.78-.07,.45,.62,.64,.69,.19h0Z"/>
      <path class="cls-19" d="M187.21,194.26c-1.08-1.1-2.37-1.94-3.45-3.04v.51c.88-1,1.06-2.74,1.3-3.99,.48-2.52,.8-5.07,1.1-7.61,.69-5.94,1.18-11.89,1.75-17.84,.17-1.82,.24-3.72,.66-5.5,.11-.45-.58-.64-.69-.19-.33,1.39-.41,2.87-.55,4.3-.26,2.61-.49,5.23-.73,7.85-.53,5.8-1.02,11.62-1.97,17.37-.18,1.1-.38,2.2-.66,3.29-.15,.59-.29,1.36-.71,1.83-.13,.15-.14,.36,0,.51,1.08,1.1,2.37,1.94,3.45,3.04,.32,.33,.83-.18,.51-.51h0Z"/>
      <path class="cls-19" d="M241.61,197.76c.25-5.82-.43-11.76-.88-17.56-.58-7.53-1.25-15.06-1.99-22.58-.27-2.69-.53-5.39-.86-8.07-.06-.45-.77-.46-.72,0,1.62,13.3,2.74,26.74,3.5,40.12,.15,2.69,.35,5.4,.23,8.1-.02,.46,.7,.46,.72,0h0Z"/>
      <path class="cls-19" d="M241.53,127.27c2.85,2.63,5.51,5.45,7.93,8.49,1.29,1.63,2.51,3.32,3.63,5.08,.51,.81,1,1.63,1.47,2.46s1.36,2.11,1.35,3.13c-.02,1.67-2.15,3.62-3.31,4.63-1.28,1.12-2.77,2.02-4.36,2.65-3.06,1.2-6.4,1.33-9.54,.36-.44-.14-.63,.55-.19,.69,3.37,1.04,6.99,.86,10.24-.49,2.99-1.24,6.33-3.73,7.62-6.81,.69-1.65-.52-3.32-1.31-4.71-1.17-2.08-2.5-4.07-3.93-5.98-2.71-3.61-5.78-6.94-9.1-10-.34-.31-.84,.19-.51,.51h0Z"/>
      <path class="cls-19" d="M222.51,116.59c5.93,2.16,11.78,4.79,16.74,8.75,.36,.28,.87-.22,.51-.51-5.06-4.05-11-6.73-17.06-8.94-.43-.16-.62,.53-.19,.69h0Z"/>
      <circle class="cls-19" cx="240.67" cy="126.09" r=".6"/>
      <g>
        <path class="cls-5" d="M193.54,148.13c.22-1.73,.31-3.47,.29-5.21,0-.5-.43-.98-.95-.95s-.96,.42-.95,.95c.02,1.74-.08,3.48-.29,5.21-.06,.5,.48,.97,.95,.95,.57-.03,.89-.42,.95-.95h0Z"/>
        <path class="cls-5" d="M194.03,138.71c1.23,0,1.23-1.9,0-1.9s-1.23,1.9,0,1.9h0Z"/>
      </g>
      <circle class="cls-19" cx="217.62" cy="232.41" r=".63"/>
      <path class="cls-19" d="M199.8,115.55c-6.52,2.26-12.14,6.74-16.54,11.98-3.92,4.68-7.36,10.35-8.32,16.47-.07,.45,.62,.64,.69,.19,.94-6,4.29-11.57,8.14-16.16,4.32-5.15,9.82-9.58,16.23-11.8,.43-.15,.25-.84-.19-.69h0Z"/>
      <path class="cls-19" d="M175.02,144.35c3.43,4,8.29,6.66,13.51,7.39,.45,.06,.64-.63,.19-.69-5.12-.71-9.83-3.28-13.19-7.21-.3-.35-.8,.16-.51,.51h0Z"/>
      <path class="cls-19" d="M178.66,147.75c-.79,16.71-1.82,33.42-2.61,50.13-.02,.46,.69,.46,.72,0,.79-16.71,1.82-33.42,2.61-50.13,.02-.46-.69-.46-.72,0h0Z"/>
      <path class="cls-19" d="M176.33,203.03c-.36,2.95,.8,6.12,3.39,7.73,2.46,1.52,5.78,1.39,7.8-.78,1.08-1.15,1.68-2.71,1.52-4.29-.05-.45-.76-.46-.72,0,.16,1.64-.55,3.21-1.81,4.26s-3.02,1.36-4.62,.96c-3.52-.87-5.27-4.46-4.85-7.88,.06-.46-.66-.45-.72,0h0Z"/>
      <path class="cls-19" d="M181.93,197.1c1.24,1.28,2.79,2.9,2.37,4.85-.17,.77-.65,1.4-1.44,1.59-.63,.15-1.37-.02-1.71-.61-.23-.4-.85-.04-.62,.36,.72,1.25,2.54,1.29,3.57,.41,1.34-1.14,1.12-3.23,.35-4.62-.52-.94-1.28-1.72-2.02-2.48-.32-.33-.83,.18-.51,.51h0Z"/>
      <path class="cls-3" d="M211.23,120.32h0c-3.2,0-5.79-2.59-5.79-5.79v-10.02s11.58,0,11.58,0v10.02c0,3.2-2.59,5.79-5.79,5.79Z"/>
      <path class="cls-10" d="M232.49,78.4c-1.12-3.8-3.07-7.48-6.19-9.95s-7.52-3.56-11.22-2.08c-3.16,1.26-5.84,4.26-9.22,3.93-2.48-.25-8.31,.26-8.07-2.21,.4-3.99-.09-7.57-1.54-10.76-.6-1.31-2.24-6.77-2.24-6.77,0,0,6.24-1.61,7.87-2.57,3.04-1.78,6.69-2.31,10.21-2.07,7,.49,13.72,4.01,18.07,9.48,2.27,2.85,3.89,6.16,5.21,9.55,1.48,3.81,2.61,7.85,2.39,11.93"/>
      <path class="cls-3" d="M243.56,84.57c-.1,4.02-2.98,7.83-6.87,9.04-1.38,.43-2.84,.52-4.27,.31,0-.02-.02-.05-.03-.07,0,.02,0,.04,0,.06-.08,.32,.52,.4,.51,.73,0,.26-.65,.78-.61,1.03-3.58,6.99-10.17,12.02-17.96,13.17h0c-.53,.08-1.05,.14-1.58,.18-.6,.05-1.21,.07-1.82,.07-13.4,0-24.27-11.41-24.27-25.49,0-7.99,3.51-15.13,9-19.79,1.87-1.95,.96-1.3,1.82-1.4,.54,.94-.31,4.85,.34,5.71,1.49,1.98,5.59,1.9,8.07,2.14,3.39,.33,6.06-2.66,9.22-3.91,.37-.15,.74-.27,1.13-.36,3.44-.88,7.28,.22,10.09,2.43,1.58,1.26,2.85,2.81,3.88,4.54,1.09,1.5,1.96,3.16,2.6,4.9-.08,.18-.16,.34-.25,.51,.12-.07,.24-.13,.37-.19,.25-.11,.5-.21,.74-.3,2.66-.98,5.93-.69,7.94,1.29,1.41,1.39,2.02,3.43,1.98,5.39Z"/>
      <path class="cls-19" d="M201.01,89.35c.03,.75,.41,1.46,1.05,1.86s1.51,.44,2.21,.12c.18-.08,.22-.33,.13-.49-.11-.18-.31-.21-.49-.13-.47,.21-1.05,.17-1.49-.12-.41-.27-.68-.77-.69-1.25,0-.19-.16-.36-.36-.36s-.36,.16-.36,.36h0Z"/>
      <g>
        <g>
          <ellipse class="cls-5" cx="196.4" cy="82.55" rx="4.19" ry="4.18"/>
          <g class="cls-25">
            <path class="cls-9" d="M200.65,82.74c-.1,2.3-2.06,4.09-4.36,3.99s-4.1-2.06-4-4.36c.02-.36,.08-.71,.19-1.04,.37,1.82,1.96,3.23,3.9,3.31s3.64-1.17,4.18-2.95c.08,.34,.11,.69,.1,1.05Z"/>
          </g>
          <path class="cls-19" d="M200.55,82.75c-.09,1.59-1.16,3-2.7,3.47s-3.26-.09-4.21-1.4-.98-3.05-.1-4.38,2.54-1.97,4.08-1.6c1.79,.43,2.99,2.08,2.93,3.91-.01,.46,.7,.46,.72,0,.06-1.88-1.04-3.64-2.78-4.37s-3.87-.28-5.14,1.15-1.52,3.51-.61,5.19,2.8,2.6,4.66,2.33c2.16-.31,3.75-2.15,3.87-4.3,.03-.46-.69-.46-.72,0Z"/>
          <path class="cls-19" d="M197.01,78.33c.37,1.02,.54,2.11,.48,3.2,0,.17-.02,.34-.08,.49-.22,.62-.96,.84-1.61,.98,.47,.57,1.4,.67,1.74,1.33,.14,.27,.14,.59,.14,.9,0,.33,0,.68-.13,.99-.26,.62-1,.94-1.66,.86s-1.25-.48-1.72-.95c-1.1-1.12-1.65-2.77-1.35-4.31s1.48-2.89,2.99-3.31"/>
        </g>
        <path class="cls-5" d="M194.51,81.01c.92,0,.92-1.43,0-1.43s-.92,1.43,0,1.43h0Z"/>
      </g>
      <g>
        <g>
          <circle class="cls-5" cx="207.97" cy="82.56" r="4.19"/>
          <g class="cls-25">
            <path class="cls-9" d="M212.21,82.74c-.1,2.3-2.06,4.09-4.36,3.99-2.31-.1-4.1-2.06-4-4.36,.02-.36,.08-.71,.19-1.04,.37,1.82,1.96,3.23,3.9,3.32s3.64-1.17,4.18-2.96c.08,.34,.11,.69,.1,1.06Z"/>
          </g>
          <path class="cls-19" d="M212.11,82.75c-.09,1.59-1.16,3.01-2.7,3.47s-3.26-.09-4.21-1.4-.98-3.06-.1-4.39,2.54-1.97,4.08-1.6c1.79,.43,2.99,2.09,2.93,3.91-.01,.46,.7,.46,.72,0,.06-1.88-1.04-3.64-2.78-4.37s-3.87-.28-5.14,1.15-1.52,3.52-.61,5.19,2.79,2.6,4.66,2.33c2.16-.31,3.75-2.15,3.87-4.31,.03-.46-.69-.46-.72,0Z"/>
          <path class="cls-19" d="M208.57,78.33c.37,1.02,.54,2.11,.48,3.2,0,.17-.02,.34-.08,.49-.22,.62-.96,.85-1.61,.98,.47,.57,1.4,.67,1.74,1.33,.14,.27,.14,.59,.14,.9,0,.33,0,.68-.13,.99-.26,.62-1,.94-1.66,.86s-1.25-.48-1.72-.95c-1.1-1.12-1.65-2.78-1.35-4.31s1.48-2.9,2.99-3.31"/>
        </g>
        <path class="cls-5" d="M206.07,81.01c.92,0,.92-1.43,0-1.43s-.92,1.43,0,1.43h0Z"/>
      </g>
      <path class="cls-19" d="M193,66.88c1.24-1.48,2.65-2.83,4.2-3.98,.15-.12,.23-.31,.13-.49-.09-.15-.33-.24-.49-.13-1.6,1.19-3.06,2.56-4.34,4.09-.12,.15-.14,.36,0,.51,.13,.13,.38,.15,.51,0h0Z"/>
      <path class="cls-5" d="M204.16,93.16c2.18-.43,3.99-1.88,5.94-2.94s4.45-1.7,6.32-.52c1.75,1.11,2.31,3.54,1.72,5.53s-2.11,3.57-3.78,4.8c-2.35,1.74-5.1,2.96-7.97,3.52-2.01,.39-4.12,.47-6.07-.12s-3.75-1.91-4.62-3.76-.67-4.24,.74-5.73,4-1.77,5.53-.41"/>
      <path class="cls-19" d="M202.05,48.08c7.7-4.39,18.06-1.54,24.47,3.91,3.37,2.87,5.75,6.58,7.52,10.6,1.98,4.48,3.55,9.33,3.35,14.28-.02,.46,.7,.46,.72,0,.16-4.03-.83-7.94-2.24-11.69-1.31-3.48-2.92-6.9-5.19-9.86-4.1-5.35-10.36-8.95-17.04-9.84-4.08-.54-8.32-.09-11.94,1.97-.4,.23-.04,.85,.36,.62h0Z"/>
      <path class="cls-5" d="M215.91,71.82c1.12-.91,2.6-1.28,4.02-1.16,1.19,.1,2.71,.7,3.15,1.92,.17,.48,.65,.81,1.17,.67,.47-.13,.84-.68,.67-1.17-.72-2-2.7-3.04-4.72-3.28s-4.06,.41-5.63,1.69c-.4,.32-.34,1.01,0,1.35,.4,.4,.95,.32,1.35,0h0Z"/>
      <path class="cls-5" d="M225.49,76.03c1.23,0,1.23-1.9,0-1.9s-1.23,1.9,0,1.9h0Z"/>
      <path class="cls-5" d="M212.16,50.54c1.23,0,1.23-1.9,0-1.9s-1.23,1.9,0,1.9h0Z"/>
      <path class="cls-19" d="M194.29,76.96c.24-.15,.49-.29,.74-.42,.11-.06,.23-.11,.34-.16,.1-.05,.06-.03-.11,.04,.07-.03,.13-.05,.2-.08,.26-.1,.54-.19,.81-.25,.1-.02,.21-.04,.31-.07,.17-.03,.14-.03-.08,0,.07,0,.13-.02,.2-.02,.23-.02,.45-.02,.68,0,.06,0,.13,0,.19,.02-.24-.03-.27-.04-.11-.01,.13,.03,.25,.05,.38,.08,.09,.02,.19,.05,.28,.08,.06,.02,.12,.04,.18,.07-.21-.09-.24-.1-.09-.03,.11,.06,.23,.12,.34,.19,.05,.03,.11,.07,.16,.11-.17-.14-.2-.16-.07-.06,.31,.26,.64,.44,1.06,.44,.37,0,.81-.16,1.06-.44,.51-.55,.65-1.59,0-2.12-1.11-.92-2.51-1.41-3.96-1.32s-2.79,.62-4.02,1.36c-.67,.41-.98,1.36-.54,2.05s1.34,.98,2.05,.54h0Z"/>
      <path class="cls-19" d="M205.96,76.96c.24-.15,.49-.29,.74-.42,.11-.06,.23-.11,.34-.16,.1-.05,.06-.03-.11,.04,.07-.03,.13-.05,.2-.08,.26-.1,.54-.19,.81-.25,.1-.02,.21-.04,.31-.07,.17-.03,.14-.03-.08,0,.07,0,.13-.02,.2-.02,.23-.02,.45-.02,.68,0,.06,0,.13,0,.19,.02-.24-.03-.27-.04-.11-.01,.13,.03,.25,.05,.38,.08,.09,.02,.19,.05,.28,.08,.06,.02,.12,.04,.18,.07-.21-.09-.24-.1-.09-.03,.11,.06,.23,.12,.34,.19,.05,.03,.11,.07,.16,.11-.17-.14-.2-.16-.07-.06,.31,.26,.64,.44,1.06,.44,.37,0,.81-.16,1.06-.44,.51-.55,.65-1.59,0-2.12-1.11-.92-2.51-1.41-3.96-1.32s-2.79,.62-4.02,1.36c-.67,.41-.98,1.36-.54,2.05s1.34,.98,2.05,.54h0Z"/>
      <path class="cls-1" d="M233.93,83.82c.22,.03-.19-.03,.03,0,.05,0,.11,.02,.16,.03,.12,.02,.24,.05,.36,.08,.23,.06,.46,.12,.68,.2,.05,.02,.11,.04,.16,.06,.03,.01,.24,.1,.05,.02,.11,.05,.21,.09,.31,.15,.23,.11,.45,.24,.66,.38,.1,.06,.19,.13,.29,.2,.19,.13-.13-.11,.04,.03,.04,.04,.09,.07,.13,.11,.18,.16,.36,.33,.52,.51,.05,.05,.09,.11,.14,.16,.11,.13-.04-.07,.01,.02,.07,.11,.15,.21,.22,.32,.06,.1,.12,.2,.18,.31,.03,.06,.06,.13,.1,.19,.08,.17-.05-.13,.03,.06,.17,.42,.59,.76,1.07,.61,.41-.13,.79-.62,.61-1.07-.96-2.39-3.24-3.8-5.74-4.11-.45-.06-.89,.44-.87,.87,.02,.52,.38,.81,.87,.87h0Z"/>
      <path class="cls-19" d="M233.26,82.42c2.7-.16,5.39,1.52,6.38,4.05,.17,.42,.86,.24,.69-.19-1.1-2.82-4.03-4.75-7.07-4.58-.46,.03-.46,.74,0,.72h0Z"/>
      <path class="cls-19" d="M236.8,82.87c-1.76,1.18-2.82,3.25-2.74,5.37,.02,.46,.73,.46,.72,0-.08-1.86,.83-3.71,2.38-4.75,.38-.26,.02-.88-.36-.62h0Z"/>
      <path class="cls-1" d="M208.54,109.02c4.66,.35,8.98-.22,13.12-2.49,4.69-2.58,8.7-6.67,10.89-11.58,.45-1.01-1.05-1.9-1.5-.88-2.07,4.66-5.8,8.5-10.26,10.95-3.86,2.13-7.88,2.58-12.24,2.25-1.12-.08-1.11,1.66,0,1.74h0Z"/>
      <path class="cls-5" d="M198.54,53.22c1.94,.03,3.89-.29,5.7-.99,1.6-.61,3.16-1.71,4.93-1.69,1.23,0,1.23-1.9,0-1.9-1.87-.01-3.43,.93-5.1,1.63-1.75,.74-3.63,1.08-5.52,1.05-1.23-.02-1.23,1.89,0,1.9h0Z"/>
      <path class="cls-22" d="M198.22,68.34c2.52,1.59,5.63,2.13,8.56,1.66,3.56-.58,6.09-3.34,9.5-4.3,7.74-2.17,14.07,4.98,16.06,11.71,.35,1.17,2.18,.67,1.84-.51-1.92-6.51-7.27-13.16-14.56-13.5-1.89-.09-3.78,.32-5.51,1.05s-3.32,1.95-5.04,2.82c-3.08,1.56-6.99,1.25-9.89-.58-1.04-.65-2,.99-.96,1.64h0Z"/>
      <path class="cls-19" d="M228.62,70.27c.78-2.63,2.98-4.73,5.64-5.39,.45-.11,.26-.8-.19-.69-2.9,.72-5.29,3.03-6.14,5.89-.13,.44,.56,.63,.69,.19h0Z"/>
      <path class="cls-19" d="M231.73,73.72c.98-1.53,2.68-2.56,4.49-2.7,.46-.04,.46-.75,0-.72-2.07,.16-3.99,1.3-5.1,3.05-.25,.39,.37,.75,.62,.36h0Z"/>
      <path class="cls-19" d="M232.83,78.31c-1.66-5.51-5.07-10.9-10.89-12.58-2.56-.74-5.3-.61-7.71,.55-2.73,1.31-5.14,3.82-8.37,3.61-.46-.03-.46,.68,0,.72,2.45,.16,4.47-1.16,6.47-2.41,2.6-1.63,5.19-2.61,8.3-2.04,6.17,1.12,9.83,6.75,11.52,12.35,.13,.44,.82,.25,.69-.19h0Z"/>
      <path class="cls-19" d="M193.27,50.44c2.41,5.58,4.44,11.49,4.16,17.65-.02,.46,.69,.46,.72,0,.28-6.29-1.8-12.31-4.26-18.01-.18-.42-.8-.06-.62,.36h0Z"/>
      <path class="cls-19" d="M198.01,68.69c1.65,.97,3.47,1.58,5.37,1.82,.19,.02,.36-.18,.36-.36,0-.21-.17-.33-.36-.36-1.77-.23-3.47-.82-5-1.72-.4-.23-.76,.38-.36,.62h0Z"/>
      <path class="cls-19" d="M227.38,83.49c1.87-2.38,4.2-4.7,7.22-5.48s6.31,.1,7.78,2.93c2.84,5.49-1.8,12.42-7.66,12.92-3.26,.28-6.59-1.15-8.56-3.76-.27-.36-.9,0-.62,.36,1.88,2.48,4.8,4,7.92,4.14s6.21-1.33,8.19-3.82,2.83-5.82,1.9-8.87-3.85-4.99-7.11-4.88c-4.03,.13-7.19,2.94-9.56,5.95-.28,.36,.22,.87,.51,.51h0Z"/>
      <path class="cls-22" d="M201.08,67.94c3.86,1.51,7.83,.04,11.05-2.19,3.68-2.55,8.21-3.23,12.08-.71,1.03,.67,1.98-.98,.96-1.64-3.71-2.42-7.99-2.33-11.93-.51-1.76,.81-3.16,2.24-4.96,2.95-2.16,.85-4.5,1.13-6.7,.26-1.14-.45-1.64,1.39-.51,1.84h0Z"/>
      <path class="cls-19" d="M225.31,67.17c0-3.93,2.24-7.68,5.71-9.54,.41-.22,.05-.83-.36-.62-3.68,1.97-6.07,5.98-6.06,10.15,0,.46,.72,.46,.72,0h0Z"/>
      <path class="cls-19" d="M216.55,65.77c-4.05-5.5-5.45-12.98-1.66-19,.25-.39-.37-.75-.62-.36-3.92,6.23-2.54,14.03,1.66,19.72,.27,.37,.89,.01,.62-.36h0Z"/>
      <path class="cls-19" d="M221.1,65.42c-.78-4.95-.47-10.86,3.88-14.16,.36-.27,0-.9-.36-.62-4.64,3.52-5.04,9.65-4.21,14.96,.07,.45,.76,.26,.69-.19h0Z"/>
      <path class="cls-1" d="M206.19,110.63c3.39,.98,7.19,1.03,10.49-.32,.43-.18,.74-.58,.61-1.07-.11-.41-.63-.79-1.07-.61-3.04,1.25-6.44,1.23-9.56,.32-1.08-.31-1.54,1.37-.46,1.68h0Z"/>
      <path class="cls-19" d="M232.68,94.25c-4.39,9.99-14.86,16.52-25.84,14.5-10.04-1.84-17.61-10.32-19.41-20.2-1.24-6.79,.22-13.86,4.03-19.61,.25-.38-.36-.74-.62-.36-6.5,9.83-5.96,23.27,1.58,32.38,6.76,8.17,18.24,11.18,28.01,6.85,5.81-2.57,10.33-7.42,12.87-13.2,.18-.42-.43-.78-.62-.36h0Z"/>
      <path class="cls-19" d="M216.66,108.65v4.28c0,.53,0,1.06,0,1.59-.01,1.31-.47,2.58-1.33,3.57-1.8,2.06-4.95,2.46-7.2,.89-1.1-.76-1.88-1.92-2.19-3.22-.16-.68-.14-1.36-.14-2.05v-4.88c0-.46-.72-.46-.72,0v4.75c0,.72-.02,1.43,.12,2.14,.26,1.33,.99,2.57,2.01,3.45,2.08,1.78,5.21,1.99,7.48,.42,1.9-1.32,2.68-3.36,2.68-5.6v-5.35c0-.46-.72-.46-.72,0h0Z"/>
      <path class="cls-19" d="M193.67,50.6c2.11-.53,4.43-.56,6.26-1.88,.37-.27,.01-.89-.36-.62-1.77,1.28-4.04,1.29-6.09,1.81-.45,.11-.26,.8,.19,.69h0Z"/>
      <path class="cls-19" d="M187.71,195.66c6.81,5.31,16.44,5.3,24.57,3.78,4.86-.9,9.57-2.18,14.54-2.32,4.7-.14,9.43,.31,14.03,1.29,.45,.1,.64-.59,.19-.69-4.24-.9-8.58-1.36-12.91-1.34s-8.84,.85-13.26,1.8c-8.63,1.86-19.24,2.74-26.66-3.03-.36-.28-.87,.22-.51,.51h0Z"/>
      <path class="cls-5" d="M179.46,164.24c-.1,2.39-.2,4.77-.3,7.16-.02,.51,.45,.95,.95,.95,.53,0,.93-.44,.95-.95,.1-2.39,.2-4.77,.3-7.16,.02-.51-.45-.95-.95-.95-.53,0-.93,.44-.95,.95h0Z"/>
      <path class="cls-5" d="M179.92,176.3c1.23,0,1.23-1.9,0-1.9s-1.23,1.9,0,1.9h0Z"/>
      <path class="cls-19" d="M217.07,112.5c2.67,.94,6.25,3.08,5.54,6.45-.59,2.78-3.45,4.72-5.93,5.68-3.18,1.24-6.77,1.34-10.02,.3-2.64-.84-5.64-2.63-6.61-5.39-1.28-3.64,2.38-6.04,5.34-7.02,.43-.14,.25-.84-.19-.69-2.87,.95-6.21,2.96-6.12,6.41,.08,3.08,2.94,5.43,5.5,6.64,3.65,1.73,7.98,1.96,11.79,.63,2.85-.99,6.04-3.03,6.88-6.13,1.05-3.88-2.84-6.46-5.98-7.57-.43-.15-.62,.54-.19,.69h0Z"/>
      <path class="cls-19" d="M202.4,115.19c-.77,1.03-1.04,2.41-.69,3.65,.32,1.15,1.15,2.15,2.22,2.67,.41,.2,.77-.41,.36-.62-.91-.45-1.62-1.26-1.89-2.25-.3-1.07-.04-2.22,.62-3.1,.28-.37-.35-.73-.62-.36h0Z"/>
      <path class="cls-11" d="M199.03,95.97c.1-.11,.7-.52,.73-.63-.04,.14-.75-.74-.46-.2,.12,.22,.33,.41,.53,.55,.67,.5,1.61,.62,2.42,.64,1.79,.06,3.56-.61,5.11-1.46,1.43-.78,2.76-1.76,4.22-2.49,1-.5,2.65-1.11,3.61-.22,1.42,1.31,3.54-.81,2.12-2.12-3.26-3.01-7.48-.16-10.49,1.68-.77,.47-1.57,.94-2.43,1.24-.45,.16-.92,.3-1.39,.36s-.92-.07-1.39-.07c.13,0,.29,.37-.05-.08-.17-.22-.29-.36-.54-.52-.42-.27-.88-.35-1.38-.32-1.09,.07-2.01,.74-2.72,1.52-1.3,1.42,.81,3.55,2.12,2.12h0Z"/>
      <path class="cls-19" d="M204.26,93.51c3.42-.77,5.97-3.9,9.56-4.07,2.02-.1,3.63,1.12,4.08,3.09,.4,1.77-.23,3.5-1.31,4.9-2.21,2.87-5.9,4.72-9.35,5.58-3.67,.91-8.39,.79-10.75-2.67-1.1-1.62-1.32-3.89-.23-5.57,1.16-1.79,3.77-2.35,5.45-.97,.35,.29,.86-.21,.51-.51-2.86-2.34-6.86-.2-7.34,3.23-.59,4.29,3.38,7.22,7.24,7.63,4.63,.5,9.65-1.47,13.18-4.4,2.72-2.25,5.05-6.68,2.06-9.75-3.96-4.05-9.4,1.94-13.29,2.81-.45,.1-.26,.79,.19,.69h0Z"/>
      <path class="cls-19" d="M201.66,103.31c-1.61-2.84-1.81-6.31-.59-9.33,.17-.43-.52-.61-.69-.19-1.29,3.19-1.03,6.89,.66,9.88,.23,.4,.84,.04,.62-.36h0Z"/>
      <path class="cls-19" d="M205.4,92.84c1.36,3.29,2.04,6.8,1.99,10.36,0,.46,.71,.46,.72,0,.04-3.61-.64-7.2-2.02-10.55-.17-.42-.87-.24-.69,.19h0Z"/>
      <path class="cls-19" d="M210.45,90.44c1.72,3.02,2.73,6.4,2.94,9.87,.03,.46,.74,.46,.72,0-.22-3.6-1.25-7.1-3.03-10.23-.23-.4-.85-.04-.62,.36h0Z"/>
      <path class="cls-19" d="M208.88,199.78l.22,4.02c.07,1.22,.07,2.48,.25,3.69,.14,.92,.51,1.86,1.35,2.35,.73,.42,1.63,.44,2.28-.13,.35-.31-.16-.81-.51-.51-.59,.52-1.52,.13-1.93-.44-.55-.75-.56-1.78-.61-2.67-.12-2.1-.24-4.21-.35-6.31-.03-.46-.74-.46-.72,0h0Z"/>
      <path class="cls-19" d="M208.07,203.26c1.27,.08,2.55,.04,3.81-.12,.19-.02,.36-.15,.36-.36,0-.17-.16-.38-.36-.36-1.26,.16-2.54,.2-3.81,.12-.46-.03-.46,.69,0,.72h0Z"/>
      <path class="cls-19" d="M208.21,206.37c1.7,.06,3.39,0,5.08-.16,.45-.04,.46-.76,0-.72-1.69,.16-3.38,.22-5.08,.16-.46-.02-.46,.7,0,.72h0Z"/>
      <path class="cls-19" d="M240.54,152.46c5.97,.39,11.89-2.76,14.92-7.91,.23-.4-.38-.76-.62-.36-2.91,4.94-8.58,7.93-14.3,7.56-.46-.03-.46,.69,0,.72h0Z"/>
      <path class="cls-19" d="M175.53,141.96c2.45,3.35,6.29,6.09,10.47,6.62,.46,.06,.45-.66,0-.72-3.91-.49-7.58-3.15-9.86-6.27-.27-.37-.89-.01-.62,.36h0Z"/>
      <path class="cls-19" d="M230.39,192.78l3.34-1.29c.18-.07,.3-.24,.25-.44-.05-.17-.26-.32-.44-.25l-3.34,1.29c-.18,.07-.3,.24-.25,.44,.05,.17,.26,.32,.44,.25h0Z"/>
      <path class="cls-19" d="M231.6,190.63c.97-.45,1.96-.85,2.97-1.19,.18-.06,.3-.25,.25-.44-.05-.18-.26-.31-.44-.25-1.07,.37-2.12,.79-3.14,1.27-.18,.08-.22,.33-.13,.49,.1,.18,.31,.21,.49,.13h0Z"/>
      <path class="cls-19" d="M184.67,187.46c4,5.36,10.45,8.59,17.15,8.55,.46,0,.46-.72,0-.72-6.42,.04-12.68-3.04-16.53-8.19-.27-.36-.89,0-.62,.36h0Z"/>
      <path class="cls-19" d="M203.6,196.11c.51,.06,1.03,0,1.51-.2,.09-.04,.16-.08,.21-.16,.04-.08,.06-.19,.04-.28-.05-.17-.25-.32-.44-.25-.11,.04-.23,.08-.34,.11-.06,.02-.12,.03-.18,.04-.03,0-.05,0-.08,.01-.02,0-.03,0-.05,0,.05,0,.06,0,.03,0-.24,.03-.47,.03-.7,0-.08-.01-.2,.05-.25,.1-.06,.06-.11,.16-.1,.25s.03,.19,.1,.25c.07,.07,.15,.09,.25,.1h0Z"/>
      <path class="cls-19" d="M41.96,128.86c18.85,3.16,37.7,6.32,56.55,9.48,6.74,1.13,14.77,2.18,19.04-4.46,1.87-2.91,2.64-6.4,3.33-9.75,.95-4.63,1.89-9.26,2.8-13.9,1.76-9.06,3.34-18.17,4.41-27.34,.47-4.02,1.11-8.19,.83-12.25-.2-2.99-1.08-6.12-3.57-8-1.43-1.07-3.17-1.57-4.9-1.9-2.22-.43-4.46-.73-6.68-1.1-4.7-.77-9.39-1.57-14.09-2.37-9.33-1.59-18.67-3.16-28.05-4.5-4.5-.64-9.01-1.23-13.53-1.73s-8.96-1.09-13.45-1.17c-3.5-.06-7.17,.57-9.75,3.12-2.19,2.16-3.2,5.21-3.88,8.14-.39,1.7-.69,3.41-1.01,5.13-.08,.45,.6,.64,.69,.19,.6-3.19,1.05-6.51,2.4-9.5,1.5-3.34,4.2-5.49,7.83-6.13,4.07-.71,8.46,.04,12.53,.45,4.41,.43,8.81,.95,13.2,1.54,17.67,2.34,35.25,5.48,52.81,8.48,1.91,.33,3.89,.75,5.46,1.94,1.42,1.07,2.31,2.64,2.78,4.34,.96,3.46,.49,7.19,.15,10.71-.85,8.89-2.24,17.71-3.87,26.48-.79,4.25-1.62,8.48-2.48,12.72-.77,3.8-1.38,7.7-2.52,11.41-1.06,3.45-2.87,6.78-6.24,8.43s-7.6,1.33-11.3,.78c-8.72-1.3-17.41-2.91-26.11-4.36s-17.7-2.97-26.55-4.45l-6.64-1.11c-.45-.08-.64,.61-.19,.69h0Z"/>
      <path class="cls-19" d="M29.44,69.77c-1.95,10.44-3.64,20.93-5.04,31.45-.67,5.01-1.37,10.04-1.78,15.08-.31,3.75,.27,7.5,3.95,9.29s8.35,1.93,12.47,2.78c.45,.09,.64-.6,.19-.69-3.58-.74-7.31-.93-10.8-2.1-1.7-.57-3.37-1.43-4.27-3.04-1.08-1.93-.99-4.29-.81-6.43,.86-9.79,2.34-19.57,3.87-29.28,.89-5.64,1.86-11.26,2.91-16.87,.08-.45-.61-.64-.69-.19h0Z"/>
      <path class="cls-19" d="M43.89,80.88c-.24,1.38-.47,2.77-.75,4.14-.09,.45,.6,.64,.69,.19,.28-1.38,.51-2.76,.75-4.14,.03-.19-.05-.39-.25-.44-.17-.05-.41,.06-.44,.25h0Z"/>
      <path class="cls-19" d="M52.56,50.4c-9.35-1.01-18.68-2.2-28.03-3.23-4.23-.46-9.63-1.5-12.74,2.25-1.32,1.59-1.97,3.62-2.43,5.6-.63,2.66-1.11,5.37-1.64,8.05-2.12,10.64-3.63,21.38-5.27,32.1-.8,5.23-2.02,10.51-2.36,15.79-.13,2.03-.2,4.27,.7,6.15,.82,1.7,2.3,3.24,3.88,4.24,2.16,1.37,4.74,1.94,7.23,2.39,2.69,.49,5.39,.97,8.08,1.47,5.4,1,10.81,1.93,16.26,2.66,.45,.06,.45-.66,0-.72-4.76-.63-9.49-1.42-14.22-2.29-4.37-.81-8.91-1.34-13.19-2.53-2.34-.66-4.39-1.71-6.01-3.55s-2.07-3.64-2.08-6c0-5.08,1.29-10.22,2.06-15.22,1.57-10.16,3-20.35,4.87-30.46,.47-2.51,.97-5,1.48-7.5,.45-2.23,.79-4.55,1.56-6.7,.84-2.36,2.32-4.36,4.81-5.1,2.3-.69,4.79-.37,7.13-.12,9.98,1.07,19.93,2.36,29.91,3.43,.46,.05,.45-.67,0-.72h0Z"/>
      <g>
        <path class="cls-20" d="M26.52,111.69c3.22-.1,6.46,.29,9.56,1.16,.28,.08,.6,.19,.72,.46,.07,.17,.05,.37,0,.54-.31,1.03-1.43,1.57-2.48,1.8-2.95,.63-6.2-.47-8.15-2.77"/>
        <path class="cls-20" d="M27.18,105.85c3.22-.1,6.46,.29,9.56,1.16,.28,.08,.6,.19,.72,.46,.07,.17,.05,.37,0,.54-.31,1.03-1.43,1.57-2.48,1.8-2.95,.63-6.2-.47-8.15-2.77"/>
        <path class="cls-20" d="M28.12,99.83c3.22-.1,6.46,.29,9.56,1.16,.28,.08,.6,.19,.72,.46,.07,.17,.05,.37,0,.54-.31,1.03-1.43,1.57-2.48,1.8-2.95,.63-6.2-.47-8.15-2.77"/>
      </g>
      <path class="cls-8" d="M72.42,122.62c2.63,6.05,5.91,13.14,9.57,18.63,3.66,5.49,8.41,10.42,14.35,13.3,2.8,1.36,5.8,2.24,8.84,2.91,12.79,2.8,27.32,1.3,37.06-7.45-7.52-2.52-13.24-9.75-13.95-17.65-10.01,3.61-21.92,1.28-29.84-5.82"/>
      <path class="cls-19" d="M136.49,133.1c-1.03,3.24,.38,6.85,2.97,8.94,2.9,2.33,6.88,2.73,10.42,1.96,.45-.1,.26-.79-.19-.69-3.27,.72-6.98,.38-9.68-1.74-2.44-1.91-3.79-5.25-2.83-8.27,.14-.44-.55-.63-.69-.19h0Z"/>
      <path class="cls-19" d="M138.43,130.23c3.17-5.5-1.75-11.16-1.59-16.77,.04-1.53,.47-3.42,2.2-3.8,1.41-.3,2.92,.46,3.94,1.37,2,1.8,3,4.42,3.58,6.98,.36,1.57,.62,3.18,.76,4.78,.2,2.17-.41,3.94-1.34,5.86-.2,.41,.42,.78,.62,.36,.73-1.5,1.42-3.01,1.49-4.7s-.25-3.37-.54-4.99c-.5-2.83-1.35-5.73-3.25-7.95-1.46-1.71-4.27-3.41-6.48-1.98-2.6,1.69-1.72,6.05-1.03,8.48,1.08,3.81,3.22,8.18,1.01,12-.23,.4,.39,.76,.62,.36h0Z"/>
      <path class="cls-19" d="M148.09,122.65c2.82-1.23,6.37-.8,8.73,1.21,1.11,.95,2.09,2.64,1.08,4.02s-3.39,.87-4.6,.14c-.4-.24-.76,.38-.36,.62,1.27,.77,2.92,1.05,4.34,.54,1.24-.45,1.87-1.72,1.72-3-.34-2.9-3.87-4.54-6.43-4.85-1.66-.2-3.32,.05-4.85,.71-.42,.18-.06,.8,.36,.62h0Z"/>
      <path class="cls-19" d="M152.7,133.09c1.19,1.33,3.14,1.97,4.84,1.27,1.57-.64,2.58-2.21,2.3-3.92-.15-.9-.67-1.71-1.43-2.22-.38-.26-.74,.36-.36,.62,.69,.46,1.1,1.27,1.13,2.1,.03,.88-.37,1.68-1.04,2.24-1.51,1.27-3.69,.8-4.94-.6-.31-.34-.81,.16-.51,.51h0Z"/>
      <path class="cls-19" d="M151.51,137.11c1.77,1.3,4,2.66,6.22,1.55,.89-.45,1.49-1.3,1.56-2.29,.08-1.06-.45-2.13-1.25-2.81-.35-.3-.86,.21-.51,.51,.66,.57,1.11,1.41,1.04,2.3s-.69,1.5-1.47,1.79c-1.93,.71-3.75-.56-5.24-1.66-.37-.27-.73,.35-.36,.62h0Z"/>
      <path class="cls-19" d="M149.43,138.48c-.04,2.38,2.36,3.79,4.47,4,1.05,.1,2.09-.22,2.7-1.12,.52-.77,.59-1.78,.19-2.62-.2-.42-.81-.05-.62,.36,.3,.63,.18,1.42-.24,1.97-.53,.7-1.46,.8-2.27,.66-1.65-.27-3.54-1.36-3.51-3.25,0-.46-.71-.46-.72,0h0Z"/>
      <path class="cls-19" d="M128.41,132.95c3.2,1.75,5.88,4.3,8.02,7.24,2.3,3.15,4.25,6.56,5.73,10.16,.17,.42,.87,.24,.69-.19-2.86-6.94-7.32-14.13-14.08-17.82-.4-.22-.77,.4-.36,.62h0Z"/>
      <circle class="cls-23" cx="43.97" cy="72.99" r="8.09"/>
      <ellipse class="cls-19" cx="61.63" cy="94.29" rx="4.66" ry="3.8" transform="translate(-38.75 145.42) rotate(-83.82)"/>
      <ellipse class="cls-19" cx="95.46" cy="99.91" rx="4.66" ry="3.8" transform="translate(-19.45 176.66) rotate(-80.04)"/>
      <path class="cls-19" d="M47.15,65.38c.46,0,.46-.72,0-.72s-.46,.72,0,.72h0Z"/>
      <path class="cls-19" d="M47.15,64.63c-2.66-.25-5.47-.17-7.86,1.17-2.22,1.25-3.34,3.28-3.79,5.73s.06,4.77,1.69,6.67,4.05,2.85,6.5,3.04c.46,.03,.46-.68,0-.72-2.26-.17-4.49-1.07-5.99-2.83-1.62-1.89-1.92-4.2-1.38-6.57,.5-2.22,1.69-3.91,3.76-4.93,2.19-1.07,4.7-1.07,7.07-.85,.46,.04,.45-.67,0-.72h0Z"/>
      <path class="cls-23" d="M43.77,85.87c-1.93-.36-3.98-.63-5.82,.06-2.45,.91-4.09,3.49-4.18,6.11-.03,.77,.07,1.55,.28,2.29,.2,.7,.5,1.38,.93,1.97,1.4,1.92,3.9,2.64,6.24,3.03"/>
      <path class="cls-19" d="M45.03,76.74v4.09c0,.46,.72,.46,.72,0v-4.09c0-.46-.72-.46-.72,0h0Z"/>
      <path class="cls-19" d="M121.84,82.85c-.47,3.28-1.08,6.53-1.55,9.81-.06,.45,.62,.64,.69,.19,.47-3.28,1.08-6.53,1.55-9.81,.06-.45-.62-.64-.69-.19h0Z"/>
      <path class="cls-19" d="M119.92,94.62l-.45,2.62c-.03,.19,.05,.39,.25,.44,.17,.05,.41-.06,.44-.25l.45-2.62c.03-.19-.05-.39-.25-.44-.17-.05-.41,.06-.44,.25h0Z"/>
      <g>
        <path class="cls-19" d="M5.5,115.47c4.06,.79,8.15,1.41,12.26,1.88,.44,.05,.8-.41,.81-.81,0-.48-.38-.76-.81-.81-3.97-.45-7.91-1.06-11.83-1.82-1.02-.2-1.45,1.36-.43,1.56h0Z"/>
        <path class="cls-19" d="M5.7,112.82c4.06,.79,8.15,1.41,12.26,1.88,.44,.05,.8-.41,.81-.81,0-.48-.38-.76-.81-.81-3.97-.45-7.91-1.06-11.83-1.82-1.02-.2-1.45,1.36-.43,1.56h0Z"/>
        <path class="cls-19" d="M6.27,110.14c4.06,.79,8.15,1.41,12.26,1.88,.44,.05,.8-.41,.81-.81,0-.48-.38-.76-.81-.81-3.97-.45-7.91-1.06-11.83-1.82-1.02-.2-1.45,1.36-.43,1.56h0Z"/>
        <path class="cls-19" d="M6.65,107.47c4.06,.79,8.15,1.41,12.26,1.88,.44,.05,.8-.41,.81-.81,0-.48-.38-.76-.81-.81-3.97-.45-7.91-1.06-11.83-1.82-1.02-.2-1.45,1.36-.43,1.56h0Z"/>
      </g>
      <g>
        <path class="cls-19" d="M67.8,12.74c-.45-4.12-.9-8.23-1.34-12.35l-.36,.36c.92-.04,1.85-.02,2.75,.21,.75,.19,.94,.55,1.06,1.28,.09,.54,.18,1.08,.27,1.62,.23,1.4,.46,2.79,.7,4.19,.63,3.82,1.27,7.64,1.9,11.45,1.4,8.41,2.8,16.83,4.19,25.24,.53,3.17,1.06,6.35,1.58,9.52,.08,.45,.76,.26,.69-.19-2.59-15.52-5.16-31.03-7.74-46.55-.26-1.55-.51-3.1-.77-4.64-.11-.66-.12-1.63-.61-2.13-.89-.9-2.91-.78-4.03-.73-.18,0-.38,.16-.36,.36,.44,4.12,.89,8.23,1.34,12.35,.05,.45,.76,.46,.72,0h0Z"/>
        <path class="cls-19" d="M73.62,53.41c-1.14-10.41-3.1-20.75-4.6-31.11-.36-2.49-.72-4.98-1-7.48-.05-.45-.77-.46-.72,0,1.19,10.83,3.15,21.58,4.74,32.36,.31,2.07,.63,4.15,.86,6.23,.05,.45,.77,.46,.72,0h0Z"/>
      </g>
      <path class="cls-19" d="M87.06,55.56c4.71-10.26,9.9-20.3,14.83-30.45,1.13-2.34,2.26-4.67,3.35-7.03,.1-.23,.02-.44-.21-.53-1.21-.47-3.53-1.38-4.53-.12-.69,.87-1.14,2.07-1.66,3.05-1.41,2.64-2.82,5.28-4.23,7.93-3.22,6.02-6.43,12.04-9.65,18.06-1.39,2.6-2.78,5.21-4.16,7.82-.22,.41,.4,.77,.62,.36,5.52-10.41,11.1-20.78,16.64-31.18,.65-1.22,1.3-2.43,1.94-3.65,.26-.48,.51-.97,.77-1.45,.76-1.41,2.87-.59,4.07-.13l-.21-.53c-4.71,10.26-9.9,20.3-14.83,30.45-1.13,2.34-2.26,4.67-3.35,7.03-.19,.42,.43,.78,.62,.36h0Z"/>
      <path class="cls-5" d="M81.3,103.89c.9,.13,1.46,1.07,1.13,1.92-1.09,2.85-3.74,4.8-6.34,4.42s-4.74-2.99-5.29-6.01c-.17-.95,.67-1.79,1.63-1.64l8.87,1.32Z"/>
      <path class="cls-19" d="M81.2,104.23c1.89,.39,.44,2.59-.24,3.44-.77,.96-1.8,1.74-3,2.08-2.57,.73-4.86-1.06-6.01-3.24-.46-.87-1.54-3.1-.05-3.55,.37-.11,.82,.02,1.19,.07l4.47,.66c1.21,.18,2.42,.36,3.64,.54,.45,.07,.64-.62,.19-.69-2.92-.43-5.84-.89-8.76-1.3-.91-.13-1.82,.27-2.12,1.2-.21,.66,.05,1.43,.26,2.06,.24,.71,.56,1.39,.97,2.02,1.53,2.35,4.26,3.82,7.01,2.7,1.47-.6,2.67-1.76,3.46-3.12,.38-.65,.81-1.44,.62-2.22-.17-.7-.74-1.21-1.44-1.35-.45-.09-.64,.6-.19,.69Z"/>
      <g>
        <path class="cls-19" d="M17.17,52.77l10.97,1.71c.43,.07,.86-.11,.99-.56,.11-.38-.13-.93-.56-.99l-10.97-1.71c-.43-.07-.86,.11-.99,.56-.11,.38,.13,.93,.56,.99h0Z"/>
        <path class="cls-19" d="M16.04,55.6l10.97,1.71c.43,.07,.86-.11,.99-.56,.11-.38-.13-.93-.56-.99l-10.97-1.71c-.43-.07-.86,.11-.99,.56-.11,.38,.13,.93,.56,.99h0Z"/>
        <path class="cls-19" d="M15.48,58.42c3.66,.57,7.31,1.14,10.97,1.71,.43,.07,.86-.11,.99-.56,.11-.38-.13-.93-.56-.99l-10.97-1.71c-.43-.07-.86,.11-.99,.56-.11,.38,.13,.93,.56,.99h0Z"/>
      </g>
      <path class="cls-19" d="M103.35,75.02l6.18-3.45c.4-.22,.04-.84-.36-.62l-6.18,3.45c-.4,.22-.04,.84,.36,.62h0Z"/>
      <path class="cls-19" d="M107.58,75.03c.96-.63,1.92-1.26,2.88-1.89,.16-.11,.23-.32,.13-.49-.09-.16-.33-.23-.49-.13-.96,.63-1.92,1.26-2.88,1.89-.16,.11-.23,.32-.13,.49,.09,.16,.33,.23,.49,.13h0Z"/>
      <ellipse class="cls-5" cx="60.92" cy="93.5" rx="1.99" ry="1.62" transform="translate(-38.59 144.01) rotate(-83.82)"/>
      <ellipse class="cls-5" cx="95.01" cy="99.32" rx="1.99" ry="1.62" transform="translate(-13.97 183.08) rotate(-83.82)"/>
      <path class="cls-19" d="M129.92,133.61c-.26,1.16-.51,2.32-.7,3.49-.03,.19,.05,.38,.25,.44,.17,.05,.41-.06,.44-.25,.19-1.17,.45-2.33,.7-3.49,.1-.45-.59-.64-.69-.19h0Z"/>
      <path class="cls-19" d="M131.19,134.63c-.37,1.52-.69,3.05-.99,4.59-.09,.45,.6,.64,.69,.19,.3-1.54,.62-3.07,.99-4.59,.11-.45-.58-.64-.69-.19h0Z"/>
      <path class="cls-19" d="M132.64,135.79c-.51,1.83-1.22,3.62-1.35,5.53-.03,.46,.68,.46,.72,0,.13-1.84,.84-3.58,1.33-5.34,.12-.44-.57-.63-.69-.19h0Z"/>
      <path class="cls-19" d="M133.67,136.85c-.37,2.05-.72,4.1-1.11,6.15-.08,.45,.6,.64,.69,.19,.38-2.05,.73-4.1,1.11-6.15,.08-.45-.61-.64-.69-.19h0Z"/>
      <path class="cls-19" d="M134.97,138.41c-.45,1.99-.45,4.05-1.05,6-.14,.44,.55,.63,.69,.19,.6-1.96,.6-4.02,1.05-6,.1-.45-.59-.64-.69-.19h0Z"/>
      <path class="cls-19" d="M136.52,140.46c-.16,.46-.33,.91-.43,1.39s-.12,.91-.13,1.38c-.01,.92-.18,1.83-.54,2.69-.08,.18-.05,.38,.13,.49,.15,.09,.41,.05,.49-.13,.37-.87,.59-1.79,.63-2.74,.02-.49,0-.97,.1-1.45s.27-.96,.44-1.44c.16-.43-.54-.62-.69-.19h0Z"/>
      <path class="cls-19" d="M137.52,141.92c-.36,1.69-.66,3.39-.89,5.1-.03,.19,.05,.38,.25,.44,.17,.05,.41-.06,.44-.25,.23-1.71,.53-3.41,.89-5.1,.1-.45-.59-.64-.69-.19h0Z"/>
      <path class="cls-19" d="M138.79,143.74c-.39,1.53-.59,3.1-.6,4.68,0,.46,.71,.46,.72,0,0-1.52,.2-3.02,.57-4.49,.11-.45-.58-.64-.69-.19h0Z"/>
      <path class="cls-19" d="M140.1,145.88c-.35,1.06-.43,2.19-.51,3.3-.01,.19,.17,.36,.36,.36,.2,0,.34-.16,.36-.36,.07-1.05,.15-2.1,.49-3.11,.06-.18-.07-.39-.25-.44-.19-.05-.38,.07-.44,.25h0Z"/>
      <circle class="cls-12" cx="45.71" cy="73.07" r="8.09"/>
      <path class="cls-18" d="M121.29,76.15c-2.01,13.72-3.89,22.94-6.36,36.55l-.35,1.73c-.45,2.11-.83,4-1.27,6.12l-.43,1.88c-.48,1.77-1.2,4.61-2.95,5.17-.68,.21-1.4,.13-2.11,.05-1.5-.17-3-.36-4.49-.54,2.1-1.28,3.48-4.23,3.89-6.22,3.12-15.23,6.23-30.48,8.2-45.9,.25-1.97,.47-4.02-.2-5.89-.39-1.11-1.34-2.33-2.58-3.13,.91,.16,1.81,.32,2.71,.48,1.37,.24,2.79,.51,3.9,1.35,2.4,1.81,2.47,5.38,2.04,8.35Z"/>
      <path class="cls-19" d="M114.05,114.48c-.43,2.04-.84,4.08-1.27,6.12-.09,.45,.59,.64,.69,.19,.43-2.04,.84-4.08,1.27-6.12,.09-.45-.59-.64-.69-.19h0Z"/>
      <path class="cls-19" d="M112.16,66.45c4.26,1.68,2.85,7.81,2.38,11.27-.57,4.21-1.23,8.42-1.94,12.61-1.44,8.47-3.11,16.9-4.82,25.32-.45,2.2-.81,4.43-1.38,6.61-.48,1.85-1.27,3.86-3.17,4.63-.42,.17-.24,.86,.19,.69,3.12-1.27,3.67-4.97,4.26-7.89,1-4.89,2-9.78,2.95-14.68,1.87-9.59,3.57-19.21,4.84-28.89,.47-3.61,1.02-8.72-3.12-10.35-.43-.17-.61,.52-.19,.69h0Z"/>
      <circle class="cls-12" cx="42.35" cy="92.41" r="6.78"/>
      <path class="cls-19" d="M43.57,85.18c-1.98-.36-4.01-.5-5.91,.27-1.44,.58-2.62,1.72-3.36,3.08-1.62,3-1.04,7.04,1.72,9.16,1.43,1.1,3.21,1.48,4.98,1.57,.46,.02,.46-.69,0-.72-1.77-.09-3.58-.5-4.92-1.73-1.52-1.39-2.18-3.53-1.93-5.55,.23-1.82,1.24-3.59,2.77-4.62,1.91-1.28,4.29-1.17,6.45-.77,.45,.08,.64-.61,.19-.69h0Z"/>
      <path class="cls-5" d="M40.95,73.53c-.37-.93-.3-1.88,.09-2.76,.2-.46,.47-.89,.78-1.23,.34-.39,.69-.67,1.15-.78,.39-.09,.63-.54,.52-.92-.11-.4-.53-.62-.92-.52-1.3,.31-2.29,1.54-2.82,2.71s-.75,2.65-.24,3.92c.15,.38,.5,.64,.92,.52,.36-.1,.68-.54,.52-.92h0Z"/>
      <path class="cls-5" d="M44.74,68.18c.97,0,.97-1.5,0-1.5s-.97,1.5,0,1.5h0Z"/>
      <path class="cls-19" d="M49.23,73.07c-.02,1.39-.88,2.68-2.21,3.15s-2.84,.06-3.74-1.03-.99-2.64-.28-3.84,2.13-1.84,3.49-1.58c1.58,.3,2.71,1.69,2.73,3.3,0,.46,.72,.46,.72,0-.02-1.69-1.06-3.2-2.64-3.81s-3.48-.1-4.56,1.22-1.24,3.2-.36,4.67,2.58,2.21,4.25,1.91c1.92-.34,3.28-2.07,3.31-3.99,0-.46-.71-.46-.72,0Z"/>
      <path class="cls-19" d="M45.83,69.16v-3.95c0-.31-.47-.31-.47,0v3.95c0,.31,.47,.31,.47,0h0Z"/>
      <path class="cls-19" d="M39.63,77.26c1.05-.52,2.07-1.1,3.06-1.73,.26-.16,.02-.57-.24-.41-.99,.63-2.01,1.2-3.06,1.73-.27,.14-.03,.55,.24,.41h0Z"/>
      <path class="cls-19" d="M49.24,71.15c1.17-.65,2.36-1.25,3.53-1.91,.27-.15,.03-.56-.24-.41-1.17,.65-2.36,1.25-3.53,1.91-.27,.15-.03,.56,.24,.41h0Z"/>
      <path class="cls-19" d="M39.42,68.66c.98,.72,1.96,1.43,2.94,2.15,.1,.08,.26,.02,.32-.09,.07-.12,.02-.25-.09-.32-.98-.72-1.96-1.43-2.94-2.15-.1-.08-.26-.02-.32,.09-.07,.12-.02,.25,.09,.32h0Z"/>
      <path class="cls-19" d="M47.61,69.78c.65-1.2,1.23-2.44,1.86-3.66,.14-.27-.27-.51-.41-.24-.63,1.21-1.21,2.45-1.86,3.66-.15,.27,.26,.51,.41,.24h0Z"/>
      <path class="cls-19" d="M38.18,73l3.67,.08c.31,0,.31-.47,0-.47l-3.67-.08c-.31,0-.31,.47,0,.47h0Z"/>
      <path class="cls-19" d="M41.99,79.96c.68-1.1,1.4-2.17,2.15-3.22,.18-.25-.23-.49-.41-.24-.75,1.05-1.47,2.13-2.15,3.22-.16,.26,.25,.5,.41,.24h0Z"/>
      <path class="cls-19" d="M41.86,66.41c.6,1.17,1.24,2.32,1.91,3.46,.16,.26,.57,.02,.41-.24-.67-1.13-1.31-2.29-1.91-3.46-.14-.27-.55-.03-.41,.24h0Z"/>
      <path class="cls-5" d="M45.67,61.86c.53-1.77,1.25-3.74,2.81-4.86,1.65-1.19,3.85-1.2,5.77-.77,.59,.13,1.22-.18,1.38-.79,.15-.56-.19-1.25-.79-1.38-2.49-.55-5.34-.52-7.5,1s-3.14,3.83-3.84,6.21c-.41,1.39,1.76,1.99,2.17,.6h0Z"/>
      <path class="cls-5" d="M58.49,56.78c1.45,0,1.45-2.25,0-2.25s-1.45,2.25,0,2.25h0Z"/>
      <path class="cls-5" d="M38.87,119.64c2.07,1.59,4.6,2.49,7.2,2.66,.59,.04,1.15-.55,1.12-1.12-.03-.64-.49-1.08-1.12-1.12-.68-.04-.91-.08-1.59-.23-.55-.12-1.09-.29-1.61-.49-.38-.14-.86-.37-1.36-.64-.52-.29-1.02-.63-1.5-.99s-1.28-.09-1.54,.4c-.32,.6-.1,1.15,.4,1.54h0Z"/>
      <path class="cls-5" d="M38.89,91.51c-.02-.21,0-.42,.02-.63l-.04,.3c.04-.28,.12-.56,.23-.82l-.11,.27c.11-.25,.25-.48,.41-.7l-.18,.23c.18-.23,.38-.43,.6-.61l-.23,.18c.19-.15,.4-.27,.62-.36l-.27,.11,.04-.02c.28-.12,.51-.24,.67-.52,.14-.24,.2-.6,.11-.87s-.26-.53-.52-.67-.6-.23-.87-.11c-.49,.21-.89,.44-1.3,.79-.32,.28-.6,.62-.82,.98-.45,.72-.69,1.62-.63,2.46,.02,.3,.11,.58,.33,.8,.2,.2,.52,.34,.8,.33,.57-.03,1.17-.5,1.12-1.12h0Z"/>
      <g>
        <path class="cls-19" d="M26.52,112.24c2.05-.06,4.1,.06,6.12,.4,.99,.17,1.98,.38,2.95,.64,.18,.05,.58,.09,.72,.23,.28,.27,.08,.63-.09,.87-.23,.33-.56,.56-.91,.74-1.41,.72-3.27,.66-4.76,.27-1.61-.42-3.06-1.31-4.15-2.57-.3-.35-.81,.16-.51,.51,2,2.3,5.18,3.44,8.19,2.92,1.24-.21,2.85-.88,3.09-2.29,.14-.82-.53-1.13-1.2-1.32-.94-.26-1.89-.47-2.85-.64-2.18-.39-4.4-.54-6.61-.48-.46,.01-.46,.73,0,.72h0Z"/>
        <path class="cls-19" d="M27.18,106.4c2.05-.06,4.1,.06,6.12,.4,.99,.17,1.98,.38,2.95,.64,.18,.05,.58,.09,.72,.23,.28,.27,.08,.63-.09,.87-.23,.33-.56,.56-.91,.74-1.41,.72-3.27,.66-4.76,.27-1.61-.42-3.06-1.31-4.15-2.57-.3-.35-.81,.16-.51,.51,2,2.3,5.18,3.44,8.19,2.92,1.24-.21,2.85-.88,3.09-2.29,.14-.82-.53-1.13-1.2-1.32-.94-.26-1.89-.47-2.85-.64-2.18-.39-4.4-.54-6.61-.48-.46,.01-.46,.73,0,.72h0Z"/>
        <path class="cls-19" d="M28.12,100.38c2.05-.06,4.1,.06,6.12,.4,.99,.17,1.98,.38,2.95,.64,.18,.05,.58,.09,.72,.23,.28,.27,.08,.63-.09,.87-.23,.33-.56,.56-.91,.74-1.41,.72-3.27,.66-4.76,.27-1.61-.42-3.06-1.31-4.15-2.57-.3-.35-.81,.16-.51,.51,2,2.3,5.18,3.44,8.19,2.92,1.24-.21,2.85-.88,3.09-2.29,.14-.82-.53-1.13-1.2-1.32-.94-.26-1.89-.47-2.85-.64-2.18-.39-4.4-.54-6.61-.48-.46,.01-.46,.73,0,.72h0Z"/>
      </g>
      <g>
        <path class="cls-19" d="M48.91,92.27c-.04,2.68-1.7,5.14-4.25,6.04s-5.41,.11-7.12-1.96-1.93-5.07-.56-7.37,4.09-3.52,6.72-3.02c3.02,.58,5.17,3.26,5.22,6.31,0,.46,.72,.46,.72,0-.04-2.95-1.84-5.61-4.61-6.67s-6.13-.19-8.04,2.15-2.14,5.62-.61,8.17,4.52,3.89,7.43,3.36c3.37-.61,5.78-3.63,5.83-7.01,0-.46-.71-.46-.72,0Z"/>
        <path class="cls-19" d="M45.24,92.27c-.02,1.14-.72,2.19-1.81,2.58s-2.34,.05-3.07-.85-.81-2.17-.23-3.14,1.74-1.51,2.86-1.29c1.3,.25,2.23,1.39,2.25,2.7,0,.46,.72,.46,.72,0-.02-1.44-.9-2.73-2.25-3.24s-2.96-.09-3.87,1.04-1.06,2.73-.31,3.98,2.2,1.88,3.62,1.63c1.63-.29,2.79-1.77,2.81-3.4,0-.46-.71-.46-.72,0Z"/>
      </g>
      <path class="cls-19" d="M39.4,86.58l1.3,2.6c.14,.27,.55,.03,.41-.24l-1.3-2.6c-.14-.27-.55-.03-.41,.24h0Z"/>
      <path class="cls-19" d="M43.46,95.35l1.15,2.82c.05,.12,.16,.2,.29,.17,.11-.03,.21-.17,.17-.29l-1.15-2.82c-.05-.12-.16-.2-.29-.17-.11,.03-.21,.17-.17,.29h0Z"/>
      <path class="cls-19" d="M36.73,95.35c1.02-.43,2.03-.89,3.02-1.37,.28-.13,.03-.54-.24-.41-.96,.46-1.93,.91-2.91,1.32-.12,.05-.2,.16-.17,.29,.03,.11,.17,.22,.29,.17h0Z"/>
      <path class="cls-19" d="M45.43,90.86l2.84-1.38c.27-.13,.03-.54-.24-.41l-2.84,1.38c-.27,.13-.03,.54,.24,.41h0Z"/>
      <path class="cls-19" d="M41.23,95.31c-.28,1.03-.57,2.07-.85,3.1-.08,.3,.38,.42,.46,.13,.28-1.03,.57-2.07,.85-3.1,.08-.3-.38-.42-.46-.13h0Z"/>
      <path class="cls-19" d="M43.61,89.24c.28-1.08,.57-2.15,.86-3.22,.08-.3-.38-.42-.46-.13-.29,1.07-.58,2.15-.86,3.22-.08,.3,.38,.42,.46,.13h0Z"/>
      <path class="cls-19" d="M45.64,93.12l2.9,.92c.29,.09,.42-.37,.13-.46l-2.9-.92c-.29-.09-.42,.37-.13,.46h0Z"/>
      <path class="cls-19" d="M36.23,90.29c1.01,.29,2.01,.63,2.99,1.01,.12,.05,.26-.05,.29-.17,.04-.13-.05-.25-.17-.29-.98-.38-1.98-.72-2.99-1.01-.29-.08-.42,.37-.13,.46h0Z"/>
      <g>
        <path class="cls-19" d="M31,103.32l2.11-2.73c.08-.1,.02-.27-.09-.32-.12-.07-.25-.02-.32,.09l-2.11,2.73c-.08,.1-.02,.27,.09,.32,.12,.07,.25,.02,.32-.09h0Z"/>
        <path class="cls-19" d="M32.86,103.84c.75-1.05,1.6-2.03,2.39-3.05,.08-.1,.1-.24,0-.34-.08-.08-.26-.1-.34,0-.82,1.05-1.69,2.06-2.46,3.14-.08,.1-.02,.26,.09,.32,.12,.07,.25,.02,.32-.09h0Z"/>
        <path class="cls-19" d="M34.82,104.21c.76-1,1.55-1.99,2.36-2.95,.2-.23-.14-.57-.34-.34-.84,1-1.65,2.01-2.44,3.05-.08,.1-.02,.27,.09,.32,.12,.07,.25,.02,.32-.09h0Z"/>
        <path class="cls-19" d="M29.46,102.4c.57-.67,1.16-1.33,1.69-2.03,.08-.1,.02-.27-.09-.32-.12-.07-.25-.02-.32,.09-.51,.67-1.08,1.29-1.62,1.94-.08,.1-.1,.24,0,.34,.08,.08,.25,.1,.34,0h0Z"/>
      </g>
      <g>
        <path class="cls-19" d="M29.87,109.3l2.11-2.73c.08-.1,.02-.27-.09-.32-.12-.07-.25-.02-.32,.09l-2.11,2.73c-.08,.1-.02,.27,.09,.32,.12,.07,.25,.02,.32-.09h0Z"/>
        <path class="cls-19" d="M31.73,109.82c.75-1.05,1.6-2.03,2.39-3.05,.08-.1,.1-.24,0-.34-.08-.08-.26-.1-.34,0-.82,1.05-1.69,2.06-2.46,3.14-.08,.1-.02,.26,.09,.32,.12,.07,.25,.02,.32-.09h0Z"/>
        <path class="cls-19" d="M33.69,110.19c.76-1,1.55-1.99,2.36-2.95,.2-.23-.14-.57-.34-.34-.84,1-1.65,2.01-2.44,3.05-.08,.1-.02,.27,.09,.32,.12,.07,.25,.02,.32-.09h0Z"/>
        <path class="cls-19" d="M28.33,108.37c.57-.67,1.16-1.33,1.69-2.03,.08-.1,.02-.27-.09-.32-.12-.07-.25-.02-.32,.09-.51,.67-1.08,1.29-1.62,1.94-.08,.1-.1,.24,0,.34,.08,.08,.25,.1,.34,0h0Z"/>
      </g>
      <g>
        <path class="cls-19" d="M29.07,115.09l2.11-2.73c.08-.1,.02-.27-.09-.32-.12-.07-.25-.02-.32,.09l-2.11,2.73c-.08,.1-.02,.27,.09,.32,.12,.07,.25,.02,.32-.09h0Z"/>
        <path class="cls-19" d="M30.93,115.61c.75-1.05,1.6-2.03,2.39-3.05,.08-.1,.1-.24,0-.34-.08-.08-.26-.1-.34,0-.82,1.05-1.69,2.06-2.46,3.14-.08,.1-.02,.26,.09,.32,.12,.07,.25,.02,.32-.09h0Z"/>
        <path class="cls-19" d="M32.89,115.97c.76-1,1.55-1.99,2.36-2.95,.2-.23-.14-.57-.34-.34-.84,1-1.65,2.01-2.44,3.05-.08,.1-.02,.27,.09,.32,.12,.07,.25,.02,.32-.09h0Z"/>
        <path class="cls-19" d="M27.53,114.16c.57-.67,1.16-1.33,1.69-2.03,.08-.1,.02-.27-.09-.32-.12-.07-.25-.02-.32,.09-.51,.67-1.08,1.29-1.62,1.94-.08,.1-.1,.24,0,.34,.08,.08,.25,.1,.34,0h0Z"/>
      </g>
      <path class="cls-17" d="M73.41,124.56c4.62,9.22,9.15,19.78,17.23,26.53,8.61,7.21,20.81,9.11,31.69,7.52,6.58-.96,12.84-3.45,18.61-6.7,1.68-.95,.17-3.54-1.51-2.59-9.8,5.52-20.79,8.09-31.98,6.1-5.07-.9-10.03-2.75-14.1-5.97-3.81-3.01-6.84-6.9-9.43-10.98-3.03-4.76-8.04-14.87-8.04-14.87,0,0-3.69-1.47-2.82,.25l.35,.71Z"/>
      <path class="cls-17" d="M91.32,147.57c4.65,7.03,13.2,8.78,21.08,9.19s16.35-.05,23.21-4.44c1.62-1.04,.12-3.64-1.51-2.59-6.17,3.95-13.67,4.37-20.79,4.07s-15.2-1.4-19.39-7.74c-1.06-1.6-3.66-.1-2.59,1.51h0Z"/>
      <path class="cls-5" d="M114.77,138.85c1.45,0,1.45-2.25,0-2.25s-1.45,2.25,0,2.25h0Z"/>
      <path class="cls-5" d="M119.29,138.85c1.66,.09,3.31-.28,4.8-1,.53-.26,.71-1.06,.4-1.54-.35-.55-.97-.68-1.54-.4-.09,.04-.19,.09-.28,.13-.24,.11,.24-.09-.01,0-.17,.06-.33,.13-.5,.18-.33,.11-.66,.2-1,.26-.16,.03-.33,.05-.49,.08,.34-.07,0,0-.08,0s-.15,.01-.23,.02c-.36,.02-.71,.03-1.07,0-.59-.03-1.15,.54-1.12,1.12,.03,.64,.49,1.09,1.12,1.12h0Z"/>
      <path class="cls-19" d="M10.56,73.36l6.24-2.57c.42-.17,.24-.86-.19-.69l-6.24,2.57c-.42,.17-.24,.86,.19,.69h0Z"/>
      <path class="cls-19" d="M14.24,73.55l3.39-1.5c.18-.08,.22-.34,.13-.49-.11-.18-.31-.21-.49-.13l-3.39,1.5c-.18,.08-.22,.34-.13,.49,.11,.18,.31,.21,.49,.13h0Z"/>
      <path class="cls-19" d="M92.87,37.11c1.24-2.01,2.35-4.09,3.32-6.24,.19-.42-.43-.78-.62-.36-.97,2.15-2.08,4.24-3.32,6.24-.24,.39,.38,.75,.62,.36h0Z"/>
      <path class="cls-19" d="M96.32,29.75c.46,0,.46-.72,0-.72s-.46,.72,0,.72h0Z"/>
      <path class="cls-18" d="M64.68,61.71c11.05,1.58,22.13,2.98,33.14,4.82,1.89,.32,2.7-2.58,.8-2.89-11.01-1.84-22.09-3.25-33.14-4.82-.81-.12-1.6,.2-1.85,1.05-.2,.7,.25,1.73,1.05,1.85h0Z"/>
      <path class="cls-18" d="M51.06,119.48c11.1,1.69,22.15,3.79,33.29,5.21,1.91,.24,1.89-2.76,0-3-10.88-1.38-21.66-3.45-32.5-5.1-1.89-.29-2.7,2.6-.8,2.89h0Z"/>
      <path class="cls-19" d="M47.64,64.95c.28-1.42,.45-2.91,1-4.25,.77-1.9,2.38-2.72,4.39-2.64,4.17,.16,8.4,.94,12.54,1.45,8.57,1.06,17.13,2.22,25.67,3.5s16.68,2.35,24.86,4.12c2.05,.44,3.69,1.42,4.4,3.48,.53,1.53,.52,3.22,.35,4.81-.42,4.03-1.2,8.06-1.87,12.06-1.42,8.44-3.05,16.84-4.58,25.27-.08,.45,.61,.64,.69,.19,1.48-8.14,3.05-16.27,4.44-24.42,.71-4.18,1.45-8.36,1.98-12.57,.36-2.83,.28-6.4-2.23-8.29-1.48-1.12-3.43-1.31-5.2-1.63-2.28-.41-4.57-.81-6.86-1.19-4.54-.77-9.08-1.5-13.63-2.19-9-1.37-18.03-2.61-27.07-3.74-2.55-.32-5.1-.63-7.66-.93-2.28-.27-4.91-.94-7.2-.58-3.67,.59-4.13,4.33-4.72,7.36-.09,.45,.6,.64,.69,.19h0Z"/>
      <path class="cls-13" d="M70.16,124.55c.45,1.67,1.31,3.19,2.18,4.67,.7,1.2,1.28,2.46,1.98,3.65,.4,.68,1.37,.98,2.05,.54s.96-1.33,.54-2.05c-.68-1.15-1.23-2.37-1.91-3.53-.4-.68-.8-1.36-1.16-2.06-.09-.17-.17-.34-.25-.51-.04-.09-.08-.17-.12-.26-.04-.1-.07-.18-.02-.03-.15-.4-.29-.8-.41-1.21-.21-.76-1.08-1.3-1.85-1.05s-1.27,1.03-1.05,1.85h0Z"/>
      <path class="cls-19" d="M72.39,123.08c4.76,10.93,10.09,22.84,20.23,29.83,5.1,3.52,11.23,5.16,17.32,5.98,5.45,.73,11.03,.67,16.42-.41,6.06-1.22,11.77-3.82,16.41-7.93,.21-.19,.08-.52-.16-.6-7.41-2.56-12.91-9.5-13.69-17.31-.02-.21-.21-.43-.45-.34-9.99,3.52-21.55,1.29-29.49-5.73-.34-.3-.85,.2-.51,.51,8.12,7.18,19.95,9.52,30.19,5.92l-.45-.34c.82,8.14,6.48,15.32,14.21,18l-.16-.6c-8.32,7.37-19.9,9.46-30.69,8.33-5.95-.62-12.11-2.05-17.25-5.2s-8.84-7.38-11.98-12.16c-3.75-5.73-6.61-12.02-9.34-18.29-.18-.42-.8-.06-.62,.36h0Z"/>
      <path class="cls-19" d="M40.64,98.9c-.48,2.47-.96,4.95-1.25,7.45s-1.04,5.67,0,8.1c.92,2.15,3.2,3.18,5.33,3.75,3.19,.85,6.55,1.27,9.8,1.85,14.4,2.58,28.84,4.96,43.35,6.89,2.12,.28,4.23,.55,6.35,.81,1.65,.2,3.57,.74,5.22,.44,2.41-.44,3.08-3.54,3.62-5.52,.12-.44-.57-.63-.69-.19-.29,1.05-.56,2.12-1.04,3.1-.75,1.55-1.74,2.06-3.47,1.89-3.26-.33-6.5-.78-9.75-1.21-6.72-.89-13.42-1.88-20.11-2.94s-12.95-2.13-19.41-3.27c-3.23-.57-6.47-1.15-9.7-1.74-2.5-.46-5.46-.74-7.51-2.41-2.61-2.13-1.66-6.01-1.34-8.92,.29-2.65,.79-5.26,1.3-7.87,.09-.45-.6-.64-.69-.19h0Z"/>
      <g>
        <path class="cls-19" d="M62.92,1.42c1.48,13.93,3.8,27.77,5.67,41.65,.44,3.28,.88,6.56,1.23,9.86,.05,.45,.76,.46,.72,0-1.48-13.93-3.8-27.77-5.67-41.65-.44-3.28-.88-6.56-1.23-9.86-.05-.45-.76-.46-.72,0h0Z"/>
        <path class="cls-19" d="M63.57,1.6c.06-.07,.13-.14,.21-.2,.05-.04-.07,.04,.02-.01,.02-.01,.04-.03,.06-.04,.04-.03,.09-.06,.14-.09,.22-.13,.39-.21,.62-.28,.48-.17,.91-.25,1.41-.21,.19,.01,.36-.17,.36-.36,0-.2-.16-.34-.36-.36-.55-.04-1.12,.07-1.64,.25-.48,.17-.98,.41-1.32,.79-.13,.14-.14,.36,0,.51,.13,.13,.38,.15,.51,0h0Z"/>
      </g>
      <g>
        <path class="cls-19" d="M62.92,1.42c1.48,13.93,3.8,27.77,5.67,41.65,.44,3.28,.88,6.56,1.23,9.86,.05,.45,.76,.46,.72,0-1.48-13.93-3.8-27.77-5.67-41.65-.44-3.28-.88-6.56-1.23-9.86-.05-.45-.76-.46-.72,0h0Z"/>
        <path class="cls-19" d="M63.57,1.6c.06-.07,.13-.14,.21-.2,.05-.04-.07,.04,.02-.01,.02-.01,.04-.03,.06-.04,.04-.03,.09-.06,.14-.09,.22-.13,.39-.21,.62-.28,.48-.17,.91-.25,1.41-.21,.19,.01,.36-.17,.36-.36,0-.2-.16-.34-.36-.36-.55-.04-1.12,.07-1.64,.25-.48,.17-.98,.41-1.32,.79-.13,.14-.14,.36,0,.51,.13,.13,.38,.15,.51,0h0Z"/>
      </g>
      <path class="cls-19" d="M79,52.4c3.65-6.46,7.29-12.92,10.94-19.39l5.35-9.48c.83-1.46,1.58-3.02,2.54-4.4,1.26-1.8,3.03-2.21,5.08-1.54,.44,.14,.63-.55,.19-.69-1.22-.4-2.64-.54-3.85-.02s-2.02,1.79-2.68,2.92c-2.06,3.54-4.02,7.13-6.03,10.69-4.05,7.18-8.1,14.36-12.15,21.54-.23,.4,.39,.76,.62,.36h0Z"/>
      <path class="cls-23" d="M46.93,80.95c2.24-.72,4.46-1.61,5.68-3.76,1.09-1.93,1.21-4.26,.78-6.4-.19-.95-1.64-.55-1.45,.4,.35,1.74,.25,3.67-.63,5.24-1.01,1.8-2.92,2.48-4.78,3.07-.92,.29-.52,1.74,.4,1.45h0Z"/>
      <path class="cls-19" d="M53.61,73.07c-.04,3.24-2.05,6.19-5.13,7.29s-6.51,.12-8.57-2.36-2.33-6.12-.68-8.89,4.94-4.24,8.1-3.64c3.64,.7,6.23,3.93,6.28,7.6,0,.46,.72,.46,.72,0-.05-3.49-2.18-6.65-5.45-7.9s-7.27-.22-9.54,2.55-2.53,6.66-.72,9.68,5.35,4.6,8.8,3.98c4-.72,6.86-4.29,6.91-8.31,0-.46-.71-.46-.72,0Z"/>
      <path class="cls-19" d="M45.88,80.88c0-1.32,0-2.64,0-3.95,0-.31-.47-.31-.47,0,0,1.32,0,2.64,0,3.95,0,.31,.47,.31,.47,0h0Z"/>
      <path class="cls-19" d="M48.92,75.25l3.03,2.46c.1,.08,.24,.1,.34,0,.08-.08,.1-.25,0-.34l-3.03-2.46c-.1-.08-.24-.1-.34,0-.08,.08-.1,.25,0,.34h0Z"/>
      <path class="cls-19" d="M47.31,76.72c.5,1.13,1,2.25,1.4,3.42,.1,.29,.56,.16,.46-.13-.41-1.2-.93-2.37-1.44-3.53-.12-.28-.53-.04-.41,.24h0Z"/>
      <path class="cls-19" d="M49.62,73.51c1.34,.07,2.68,.14,4.02,.2,.31,.01,.3-.46,0-.47-1.34-.06-2.68-.14-4.02-.2-.31-.01-.3,.46,0,.47h0Z"/>
      <path class="cls-19" d="M58.47,87.79c1.18-1.75,3.74-2.32,5.56-1.26,.4,.23,.76-.39,.36-.62-2.17-1.26-5.14-.56-6.54,1.51-.26,.38,.36,.74,.62,.36h0Z"/>
      <path class="cls-19" d="M94.54,91.65c2.56-.62,5.47,.8,6.5,3.24,.18,.42,.87,.23,.69-.19-1.18-2.81-4.41-4.47-7.38-3.74-.45,.11-.26,.8,.19,.69h0Z"/>
      <circle class="cls-19" cx="137.5" cy="131.72" r=".49"/>
      <circle class="cls-19" cx="30.04" cy="68.17" r=".49"/>
      <circle class="cls-8" cx="264.57" cy="210.7" r="15.19"/>
      <path class="cls-19" d="M273.68,199.31c4.73,3.86,6.77,10.23,4.92,16.09s-7.48,10.17-13.71,10.35-12.09-3.71-14.3-9.55-.52-12.37,4.09-16.43c5.34-4.71,13.42-4.81,19-.46,.36,.28,.87-.22,.51-.51-5.08-3.96-12.14-4.56-17.71-1.22s-8.51,10-7.26,16.37c1.26,6.4,6.61,11.45,13.06,12.36s12.87-2.38,15.91-8.1c3.48-6.55,1.71-14.74-4-19.41-.35-.29-.86,.21-.51,.51Z"/>
      <circle class="cls-8" cx="264.18" cy="210.93" r="10.48"/>
      <g>
        <path class="cls-3" d="M253.48,194.82c-1.13,1.24-1.08,3.35,.07,4.57,1.15,1.22,3.2,1.43,4.61,.53,1.41-.9,2.08-2.79,1.63-4.41"/>
        <path class="cls-19" d="M253.22,194.61c-1.47,1.65-1.13,4.39,.71,5.61s4.47,.65,5.66-1.23c.66-1.04,.86-2.34,.54-3.53-.12-.44-.81-.26-.69,.19,.46,1.72-.42,3.77-2.17,4.34s-3.71-.3-4.16-2.12c-.24-.95-.04-2.02,.62-2.76,.3-.34-.2-.85-.51-.51h0Z"/>
      </g>
      <path class="cls-4" d="M269.84,203.97c2.85,2.33,4.09,6.12,2.98,9.66s-4.46,6.05-8.16,6.16-7.22-2.17-8.53-5.65-.33-7.42,2.45-9.87c3.14-2.77,7.98-2.86,11.27-.29,.75,.59,1.82-.47,1.06-1.06-3.4-2.65-8.09-3.09-11.83-.85-3.74,2.24-5.67,6.68-4.83,10.94s4.38,7.57,8.62,8.18,8.61-1.53,10.65-5.36c2.3-4.34,1.18-9.8-2.61-12.9-.74-.61-1.81,.45-1.06,1.06Z"/>
      <path class="cls-6" d="M253.25,209.44c0-.13,.02-.26,.03-.39,0-.07,.01-.13,.02-.2,.02-.21,0,.03-.01,.1,.08-.27,.1-.58,.16-.86,.13-.57,.31-1.12,.52-1.67,.08-.22,.02,.04-.02,.06,.03-.01,.08-.17,.09-.2,.06-.13,.13-.27,.19-.4,.14-.27,.28-.53,.44-.78,.17-.28,.36-.54,.55-.81,.12-.18-.16,.19-.02,.02,.05-.06,.1-.12,.15-.18,.11-.14,.23-.27,.35-.41,.53-.58,.62-1.55,0-2.12-.57-.53-1.56-.62-2.12,0-1.97,2.18-3.14,4.9-3.33,7.84-.05,.78,.73,1.53,1.5,1.5,.86-.04,1.44-.66,1.5-1.5h0Z"/>
      <path class="cls-5" d="M253.42,208.22c.15-.67,.35-1.33,.62-1.96l-.15,.36c.03-.06,.05-.13,.08-.19,.11-.17,.17-.36,.18-.56,.04-.2,.04-.4-.03-.6-.1-.35-.36-.73-.69-.9-.35-.18-.77-.28-1.16-.15l-.36,.15c-.23,.13-.4,.31-.54,.54-.36,.81-.66,1.64-.85,2.51-.09,.39-.06,.8,.15,1.16,.18,.31,.54,.61,.9,.69,.38,.09,.81,.07,1.16-.15,.32-.21,.61-.51,.69-.9h0Z"/>
      <path class="cls-7" d="M264.79,204.77l1.51,3.07c.06,.13,.19,.22,.33,.24l3.38,.49c.36,.05,.5,.49,.24,.74l-2.45,2.39c-.1,.1-.15,.24-.12,.38l.58,3.37c.06,.35-.31,.63-.63,.46l-3.03-1.59c-.13-.07-.28-.07-.4,0l-3.03,1.59c-.32,.17-.69-.1-.63-.46l.58-3.37c.02-.14-.02-.28-.12-.38l-2.45-2.39c-.26-.25-.12-.69,.24-.74l3.38-.49c.14-.02,.26-.11,.33-.24l1.51-3.07c.16-.32,.62-.32,.78,0Z"/>
      <path class="cls-19" d="M264.34,204.66c.3,.61,.6,1.21,.9,1.82l.57,1.15c.1,.2,.19,.48,.37,.63s.41,.16,.63,.19l1.19,.17c.71,.1,1.5,.33,2.22,.32,.01,0,.07-.14-.04-.07-.09,.07-.17,.17-.25,.25l-.97,.95c-.47,.46-1.03,.9-1.45,1.41-.37,.46-.06,1.27,.03,1.79l.24,1.38c.04,.25,.03,.88,.18,1.08,.02,.02,0,.07,.02,.09,.03,.06,.15-.05,.11-.1-.05-.05-.17-.09-.23-.12l-1.02-.54c-.68-.36-1.36-.78-2.07-1.09-.55-.23-1.06,.19-1.53,.44l-2.25,1.18c-.06,.03-.18,.07-.23,.12-.04,.05,.08,.16,.11,.1,.01-.03,0-.07,.02-.09,.15-.2,.14-.83,.18-1.08,.14-.82,.32-1.64,.42-2.46,.07-.59-.26-.81-.65-1.19l-1.93-1.88c-.09-.09-.19-.17-.28-.27-.02-.02-.08,.07,.04,.08,.35,.03,.78-.11,1.12-.16,.83-.12,1.73-.16,2.54-.37,.61-.16,.86-1.11,1.1-1.61l.71-1.43c.08-.17,.18-.33,.25-.51,.01-.03,.04-.1,.06-.13,.1-.09-.06-.04-.03,0,.29,.36,.79-.15,.51-.51-.68-.83-1.19,.32-1.43,.82-.41,.82-.77,1.68-1.22,2.48-.11,.2-.06,.15-.26,.21-.37,.11-.82,.12-1.2,.17-.77,.11-1.64,.13-2.39,.35-.39,.11-.64,.5-.46,.9,.1,.22,.35,.4,.52,.57l2.03,1.98c.09,.08,.19,.16,.26,.26,.08,.1,.01-.14,.02,.01,.01,.33-.13,.73-.18,1.06-.15,.85-.34,1.7-.44,2.55-.04,.34,.03,.69,.4,.82,.3,.1,.55-.06,.8-.19l2.49-1.31c.14-.08,.31-.14,.44-.23,.09-.06,.23-.06,.07-.09,.23,.04,.53,.28,.73,.39,.81,.43,1.63,.86,2.44,1.28,.64,.33,1.21,.03,1.1-.73-.13-.89-.3-1.77-.45-2.65-.05-.27-.2-.66-.16-.93,0-.05-.06,.1,.05,0s.22-.21,.33-.32l2.03-1.98c.17-.16,.4-.33,.47-.56,.12-.4-.16-.73-.53-.82-.82-.19-1.69-.25-2.52-.37-.33-.05-.77-.03-1.08-.16-.17-.07-.15-.08-.25-.29l-1.24-2.52-.3-.62c-.2-.41-.82-.05-.62,.36Z"/>
      <circle class="cls-19" cx="254.47" cy="214.12" r=".42"/>
      <circle class="cls-19" cx="254.72" cy="232.08" r=".42"/>
      <path class="cls-4" d="M265.94,222.82c2.47-.35,4.87-1.43,6.72-3.11s3.01-3.88,3.59-6.25c.23-.94-1.21-1.34-1.45-.4-.53,2.13-1.56,4.1-3.21,5.58s-3.85,2.41-6.06,2.72c-.4,.06-.62,.57-.52,.92,.12,.43,.52,.58,.92,.52h0Z"/>
      <path class="cls-19" d="M254.5,212.73c-.75-4.42,1.46-8.94,5.53-10.91,3.46-1.68,7.69-1.23,10.71,1.17s4.46,6.47,3.57,10.25-3.92,6.74-7.68,7.57c-4.62,1.02-9.28-1.38-11.34-5.59-.2-.41-.82-.05-.62,.36,1.96,4.02,6.23,6.54,10.71,6.14,4.17-.37,7.81-3.15,9.26-7.08s.42-8.42-2.51-11.36-7.52-3.98-11.46-2.5c-4.93,1.85-7.73,7-6.86,12.15,.08,.45,.77,.26,.69-.19h0Z"/>
    </g>
  </g>
</svg>