<svg xmlns="http://www.w3.org/2000/svg" viewBox="0 0 229.83 177.57"><defs><style>.cls-1,.cls-3{fill:#c2efff;}.cls-1,.cls-2{opacity:0.4;isolation:isolate;}.cls-15,.cls-4{fill:#048edd;}.cls-19,.cls-20,.cls-21,.cls-22,.cls-23,.cls-24,.cls-25,.cls-27,.cls-28,.cls-29,.cls-5,.cls-7{fill:none;stroke-linecap:round;stroke-linejoin:round;}.cls-19,.cls-20,.cls-21,.cls-22,.cls-23,.cls-24,.cls-25,.cls-5{stroke:#000201;}.cls-5{stroke-width:1.76px;}.cls-6{fill:#fc884f;}.cls-27,.cls-28,.cls-7{stroke:#fff;}.cls-29,.cls-7{stroke-width:2px;}.cls-8{fill:#6b838c;}.cls-10,.cls-13,.cls-9{fill:#253b4a;}.cls-10{opacity:0.4;}.cls-11{fill:#d9e1e4;}.cls-12{fill:#a1bcc4;}.cls-13{opacity:0.35;}.cls-14{fill:#3ec4ff;}.cls-15{opacity:0.5;}.cls-16{fill:#fff;}.cls-17{fill:#fc691f;}.cls-18{fill:#000201;}.cls-19{stroke-width:1.58px;}.cls-20{stroke-width:1.44px;}.cls-21{stroke-width:1.09px;}.cls-22{stroke-width:1.08px;}.cls-23{stroke-width:1.28px;}.cls-24{stroke-width:1.62px;}.cls-25{stroke-width:0.96px;}.cls-26{fill:#35545b;}.cls-27{stroke-width:1.25px;}.cls-28{stroke-width:0.75px;}.cls-29{stroke:#f8fffb;}</style></defs><title>Asset 20</title><g id="Layer_2" data-name="Layer 2"><g id="Layer_1-2" data-name="Layer 1"><path class="cls-1" d="M81.09,72.54a27.62,27.62,0,0,0-54.54-6.23A18,18,0,1,0,17,100.13v0h39V100A27.63,27.63,0,0,0,81.09,72.54Z"/><g class="cls-2"><path class="cls-3" d="M229.81,104.87a11.88,11.88,0,0,1-11.24,11.86h-24c-.58,0-1.16,0-1.72-.08a18.23,18.23,0,1,1,19.48-22.26,11.89,11.89,0,0,1,17.52,10.46Z"/><path class="cls-3" d="M194.55,116.75h-1.74v-.08C193.38,116.72,194,116.75,194.55,116.75Z"/><path class="cls-3" d="M218.57,116.73h-.64A4.56,4.56,0,0,0,218.57,116.73Z"/></g><g class="cls-2"><path class="cls-3" d="M171.68,66.31a11.88,11.88,0,0,1-11.25,11.86h-24c-.58,0-1.16,0-1.72-.08a18.23,18.23,0,1,1,19.48-22.26A11.89,11.89,0,0,1,171.7,66.29Z"/><path class="cls-3" d="M136.42,78.19h-1.74v-.08C135.25,78.16,135.82,78.19,136.42,78.19Z"/><path class="cls-3" d="M160.43,78.17h-.63A4.42,4.42,0,0,0,160.43,78.17Z"/></g><path class="cls-4" d="M135.28,136.11a24.3,24.3,0,0,1-5.83.68c-13.27,0-24-10.07-24-22.49s10.76-22.49,24-22.49c2,0,0,.22,1.83.68-10.44,2.42-14.18,11.27-14.18,21.81S124.84,133.69,135.28,136.11Z"/><path class="cls-5" d="M135.28,136.11a24.3,24.3,0,0,1-5.83.68c-13.27,0-24-10.07-24-22.49s10.76-22.49,24-22.49c2,0,0,.22,1.83.68-10.44,2.42-14.18,11.27-14.18,21.81S124.84,133.69,135.28,136.11Z"/><path class="cls-6" d="M46.36,90.8s7.4-14,20.83-13.63c7.7.23,18.12.19,31.59.12a55.13,55.13,0,0,1,32.49,10.4h0"/><line class="cls-7" x1="71.39" y1="77.95" x2="104.7" y2="77.95"/><path class="cls-8" d="M219.57,134.61a27.81,27.81,0,0,1,2.82,12.25v2.06a27.92,27.92,0,0,1-27.93,27.93c-15.43,0-29.79-14.2-27.94-31.93"/><path class="cls-9" d="M221.15,137.81c-11.29,9.47-35.85,15.07-54.54,13.09a27.83,27.83,0,0,1-.17-5.86c17.29,1.88,39.65-2.76,51.89-11l1.24-.24A28.54,28.54,0,0,1,221.15,137.81Z"/><path class="cls-10" d="M221,139.25a63.6,63.6,0,0,1-45,30.5,29.28,29.28,0,0,1-5.75-6.77A28.48,28.48,0,0,1,166,147.39a24.12,24.12,0,0,0,.24,3.41,93.26,93.26,0,0,0,30.91-2.46c9.43-2.32,17.94-6,23.43-10.47Q220.79,138.56,221,139.25Z"/><path class="cls-11" d="M186.69,145.12a7.85,7.85,0,0,0-.31,2.23v1.08a8.08,8.08,0,1,0,16.16,0v-1.08a8,8,0,0,0-1.89-5.19l6.66-1.32a14.38,14.38,0,0,1,1.46,6.31v1.47a14.32,14.32,0,1,1-28.63,0l.11-3.6Z"/><path class="cls-12" d="M186.44,148.77a8.38,8.38,0,0,0,.34,2.09c-2.09.28-4.43.47-6.51.61a14.25,14.25,0,0,1-.21-2.46l.1-3.35c.84,0,1.67-.12,2.52-.2l3.91.06a7.32,7.32,0,0,0-.18,2.16Z"/><path class="cls-12" d="M208.44,145.31c-1.93.78-3.95,1.48-6.05,2.12a8,8,0,0,0-1.87-4.88l6.64-1.3A13.85,13.85,0,0,1,208.44,145.31Z"/><path class="cls-8" d="M71.07,148.92a27.94,27.94,0,0,1-55.88,0"/><path class="cls-13" d="M70.77,149a27.94,27.94,0,0,1-55.87,0h.59a27.93,27.93,0,0,0,55.08,0Z"/><path class="cls-9" d="M71,147.17a27.59,27.59,0,0,1-.5,5.26H15.6a27.59,27.59,0,0,1-.5-5.26Z"/><path class="cls-11" d="M57.44,148.62a14.31,14.31,0,1,1-28.62,0"/><polyline class="cls-14" points="166.83 46.07 168.86 52.52 173.15 52.52 171.59 47.36"/><polyline class="cls-4" points="165.66 42.76 167.69 49.21 171.98 49.21 170.42 44.05"/><path class="cls-14" d="M187.17,110.75s12.07-3.12,4.87-11.49l2.33,4.87s40.31,11.87,30.19,25.12c-9.86,12.89-43.89,20.43-64.91,15.43l.64-13.68,8.77-18.5,7-15.77,6.62-5.65,4.48,2.53L199.63,110"/><path class="cls-4" d="M224.7,129c-9.86,12.89-43.89,20.43-64.91,15.43l.25-5.21c21,4.89,54.84-2.64,64.66-15.48a8.18,8.18,0,0,0,1.06-1.78A6.63,6.63,0,0,1,224.7,129Z"/><path class="cls-15" d="M226,122.22a8.3,8.3,0,0,1-.92,1.48c-9.6,12.55-42.1,20-63.21,15.79,19.51-3.55,39.74-13.55,44.52-31.15C214.29,111.64,223.66,116.59,226,122.22Z"/><path class="cls-14" d="M72.68,149.11H134s23.57,1.56,32.13-11.68l22.4-42.65c-7.87-6.15-10.27-26.28-11-36.53A6.59,6.59,0,0,0,171,52.13h0a6.59,6.59,0,0,0-6.59,6.58V98.12A37.36,37.36,0,0,1,127,135.48h0a19.32,19.32,0,0,1-19.31-19.31v-1.11c0-10.66,8.65-22.31,19.31-22.31h3.38A2.63,2.63,0,0,0,133,90.12h0a2.63,2.63,0,0,0-2.63-2.63H59.51a29.47,29.47,0,0,0-16,4.7l-6.92,7.46"/><path class="cls-16" d="M133.31,90.41a2.61,2.61,0,0,1-.67,1.75l-.1-.1c-.47-.48.87-1.77.15-1.77H59.8a22.11,22.11,0,0,0-8,1.79,30.51,30.51,0,0,0-13.18,10.24h0l-1.74-2.39,6.91-7.45a29.51,29.51,0,0,1,16-4.7h70.89a2.58,2.58,0,0,1,1.85.77A2.62,2.62,0,0,1,133.31,90.41Z"/><path class="cls-4" d="M165.94,137.43l-5.06,5.64c-9.55,7-27.47,5.85-27.47,5.85H72.1l-4.21-26.2C96.22,138.79,144.91,147.36,165.94,137.43Z"/><path class="cls-17" d="M131.16,87.6a2.74,2.74,0,0,0-.76-.11H59.51a29.45,29.45,0,0,0-13,3,31.39,31.39,0,0,1,3.4-4.73,29.64,29.64,0,0,1,9.59-1.6h66.23A55.48,55.48,0,0,1,131.16,87.6Z"/><path class="cls-14" d="M38.63,99.65H59A24.36,24.36,0,0,1,83.39,124v10.2a14.12,14.12,0,0,1-14.12,14.12H15.79A12.93,12.93,0,0,1,2.86,135.41v0A35.76,35.76,0,0,1,38.63,99.65Z"/><path class="cls-12" d="M57.84,149a14.27,14.27,0,0,1-.46,3.6H29.67a14.27,14.27,0,0,1-.46-3.6Z"/><path class="cls-15" d="M61.94,148.91H16.38A12.92,12.92,0,0,1,3.45,136c0-9.87,3.18-19.2,9.65-25.68a34.63,34.63,0,0,1,12.47-8.23C29.08,115,39.79,141.12,61.94,148.91Z"/><path class="cls-4" d="M55.17,147.7a14.27,14.27,0,0,1-4,.57L16,148.52A12.92,12.92,0,0,1,3.06,135.6a35.68,35.68,0,0,1,7.52-21.95C9.45,131.93,16.3,144.9,55.17,147.7Z"/><path class="cls-18" d="M203.71,128.05a.65.65,0,0,1-.2,0,.54.54,0,0,1-.29-.68v0l2.85-6.73a.52.52,0,1,1,1,.41l-2.85,6.72A.51.51,0,0,1,203.71,128.05Z"/><path class="cls-18" d="M207.12,124.92a.45.45,0,0,1-.2,0,.52.52,0,0,1-.29-.67v0l1.52-3.6a.53.53,0,0,1,1,.41l-1.53,3.6A.52.52,0,0,1,207.12,124.92Z"/><path class="cls-18" d="M62.72,114.22a.45.45,0,0,1-.2,0,.51.51,0,0,1-.29-.67v0l2.84-6.73a.53.53,0,0,1,1,.41l-2.85,6.73A.52.52,0,0,1,62.72,114.22Z"/><path class="cls-18" d="M66.13,111.09a.52.52,0,0,1-.21,0,.51.51,0,0,1-.28-.67v0l1.52-3.61a.52.52,0,0,1,1,.41l-1.53,3.6A.5.5,0,0,1,66.13,111.09Z"/><path class="cls-19" d="M21.77,103.86a35.61,35.61,0,0,1,16.86-4.21H59A24.35,24.35,0,0,1,83.39,124v10.2a14.12,14.12,0,0,1-14.12,14.12H15.79A12.92,12.92,0,0,1,2.86,135.41h0A35.65,35.65,0,0,1,13.2,110.26"/><path class="cls-20" d="M71.07,148.92a27.94,27.94,0,0,1-55.88,0"/><path class="cls-21" d="M57.44,148.62a14.31,14.31,0,1,1-28.62,0"/><path class="cls-22" d="M51.21,148.43a8.08,8.08,0,0,1-16.16,0"/><path class="cls-20" d="M214.48,168.4a27.94,27.94,0,0,1-48-19.48"/><path class="cls-20" d="M222.37,150.08a27.7,27.7,0,0,1-3.72,12.81"/><path class="cls-21" d="M201.75,151.92a8.09,8.09,0,0,1-15.28-2.22"/><path class="cls-20" d="M219.57,134.61a27.81,27.81,0,0,1,2.82,12.25"/><path class="cls-21" d="M207.31,140.84a14.38,14.38,0,0,1,1.46,6.31"/><path class="cls-21" d="M200.85,142.62a8,8,0,0,1,1.49,4.68"/><path class="cls-21" d="M186.38,147.35a7.85,7.85,0,0,1,.31-2.23"/><path class="cls-19" d="M71.68,149.11H131c1.37,0,4.75.11,6.13,0,5-.23,21.57-.19,29-11.72"/><line class="cls-22" x1="80" y1="143.71" x2="132.28" y2="143.71"/><path class="cls-19" d="M91.79,77.34l7,0a55.25,55.25,0,0,1,26.81,6.81"/><path class="cls-19" d="M80.2,77.31c3.15,0,4.61,0,6.92,0"/><path class="cls-19" d="M48.77,87.18c3.19-4.13,9.47-10.27,18.42-10l3.17.07"/><line class="cls-23" x1="171.59" y1="47.36" x2="173.14" y2="52.52"/><line class="cls-23" x1="168.86" y1="52.52" x2="166.83" y2="46.07"/><path class="cls-14" d="M187.44,46.15l-15.62,1.06a8.8,8.8,0,0,1-9.39-8.78h0a8.79,8.79,0,0,1,10-8.71l15.36,2.07A4.93,4.93,0,0,1,192,36.67v4.57A4.92,4.92,0,0,1,187.44,46.15Z"/><path class="cls-4" d="M192.23,37.15v3.7a4.94,4.94,0,0,1-4.59,4.92l-15.62,1a8.79,8.79,0,0,1-9.39-8.77,8.6,8.6,0,0,1,.2-1.85A8.78,8.78,0,0,0,172,43.12l15.62-1A4.94,4.94,0,0,0,192.23,37.15Z"/><polyline class="cls-23" points="155.23 7.92 161.66 7.92 169.83 33.04"/><path class="cls-11" d="M148.53,5.92c0-1.42,2.05-2.28,3.67-1.56,2.15.95,3.6,2.71,3.6,4.72S154.26,13,152,13.89c-1.56.64-3.46-.3-3.46-1.64Z"/><path class="cls-24" d="M148.53,3.23a2.42,2.42,0,0,1,3.67-2.07A7.26,7.26,0,0,1,152,13.82a2.39,2.39,0,0,1-3.46-2.17Z"/><path class="cls-23" d="M187.44,46,171.82,47a8.8,8.8,0,0,1-9.39-8.78h0a8.8,8.8,0,0,1,10-8.72l1.54.21,13.82,1.87A4.93,4.93,0,0,1,192,36.48v4.57A4.92,4.92,0,0,1,187.44,46Z"/><circle class="cls-4" cx="10.62" cy="126.23" r="1.31"/><circle class="cls-4" cx="15.44" cy="133.82" r="2.78"/><circle class="cls-4" cx="25.59" cy="138.57" r="1.83"/><circle class="cls-4" cx="35.96" cy="144.41" r="2.26"/><circle class="cls-4" cx="30.56" cy="139.3" r="0.8"/><circle class="cls-4" cx="21.72" cy="132.8" r="0.73"/><circle class="cls-4" cx="17.34" cy="126.23" r="0.58"/><circle class="cls-4" cx="186.45" cy="140.95" r="2.78"/><circle class="cls-4" cx="197" cy="137.18" r="1.83"/><circle class="cls-4" cx="208.48" cy="134.04" r="2.26"/><circle class="cls-4" cx="201.04" cy="134.21" r="0.8"/><circle class="cls-4" cx="190.19" cy="135.81" r="0.73"/><circle class="cls-4" cx="182.45" cy="134.22" r="0.58"/><circle class="cls-18" cx="16.73" cy="107.02" r="1.16"/><circle class="cls-18" cx="74.57" cy="77.29" r="1.16"/><circle class="cls-18" cx="164.59" cy="63.03" r="1.16"/><circle class="cls-18" cx="163.99" cy="103.54" r="1.16"/><circle class="cls-16" cx="36.3" cy="103.32" r="1.16"/><rect class="cls-16" x="38.91" y="102.57" width="10.09" height="1.34" rx="0.67"/><line class="cls-25" x1="18.77" y1="134.94" x2="64.96" y2="134.94"/><line class="cls-25" x1="18.77" y1="128.23" x2="64.96" y2="128.23"/><line class="cls-25" x1="18.77" y1="121.51" x2="64.96" y2="121.51"/><line class="cls-25" x1="184.05" y1="38.35" x2="191.74" y2="38.35"/><line class="cls-25" x1="178.95" y1="38.35" x2="180.64" y2="38.35"/><rect class="cls-8" x="144.91" y="34.6" width="22.01" height="6.23" rx="3.12"/><path class="cls-26" d="M166.72,37.62a3.11,3.11,0,0,1-3.12,3.12H147.83a3.12,3.12,0,0,1-3.12-3.12,2.89,2.89,0,0,1,.33-1.37,3.1,3.1,0,0,0,3,2.25H163.8a3.11,3.11,0,0,0,2.2-.91,3,3,0,0,0,.59-.85A2.89,2.89,0,0,1,166.72,37.62Z"/><circle class="cls-18" cx="202.48" cy="149.38" r="0.71"/><circle class="cls-18" cx="216.72" cy="165.96" r="0.71"/><path class="cls-27" d="M33.11,155.34a11.18,11.18,0,0,0,4.33,3.81"/><circle class="cls-16" cx="31.99" cy="153.06" r="0.83"/><path class="cls-27" d="M184.5,155.49a11.19,11.19,0,0,0,4.32,3.81"/><circle class="cls-16" cx="183.38" cy="153.2" r="0.83"/><path class="cls-27" d="M200.63,160.31a11.08,11.08,0,0,0,4.47-3.63"/><circle class="cls-16" cx="198.18" cy="161.03" r="0.83"/><path class="cls-22" d="M21.81,159.38a21.34,21.34,0,0,0,7.46,8.88"/><path class="cls-22" d="M59,155.69A11.33,11.33,0,0,1,55.25,161"/><path class="cls-22" d="M173.34,159.92a21.35,21.35,0,0,0,7.46,8.87"/><path class="cls-22" d="M210.53,154.91a11.33,11.33,0,0,1-3.75,5.28"/><line class="cls-7" x1="165.62" y1="67.9" x2="165.82" y2="95.17"/><line class="cls-19" x1="164.38" y1="98.12" x2="164.38" y2="67.12"/><circle class="cls-13" cx="43.94" cy="165.3" r="0.66"/><circle class="cls-13" cx="33.49" cy="169.07" r="1.27"/><circle class="cls-13" cx="26.05" cy="160.94" r="0.83"/><circle class="cls-9" cx="22.88" cy="155.05" r="0.49"/><circle class="cls-13" cx="54.14" cy="172.77" r="0.58"/><circle class="cls-9" cx="64.17" cy="160.6" r="0.19"/><circle class="cls-9" cx="68.01" cy="151.4" r="0.93"/><circle class="cls-9" cx="62.71" cy="152.81" r="1.36"/><circle class="cls-13" cx="63.73" cy="157.34" r="0.54"/><circle class="cls-9" cx="20.5" cy="152.37" r="1.61"/><circle class="cls-9" cx="25.8" cy="154.47" r="0.39"/><circle class="cls-16" cx="205.33" cy="143.76" r="0.29"/><circle class="cls-9" cx="190.57" cy="157.12" r="0.07"/><circle class="cls-9" cx="171.55" cy="150.95" r="0.77"/><circle class="cls-9" cx="175.93" cy="154.97" r="0.62"/><circle class="cls-9" cx="212.78" cy="142.59" r="1.53"/><circle class="cls-9" cx="174.47" cy="151.83" r="1.13"/><circle class="cls-9" cx="216.72" cy="144.08" r="0.69"/><path class="cls-4" d="M188.82,112.14a1,1,0,0,1-.16-2c.22,0,4.9-.85,5.81-5.07a1,1,0,0,1,1.18-.76,1,1,0,0,1,.77,1.19c-1.2,5.57-7.19,6.57-7.44,6.61Z"/><path class="cls-19" d="M187.17,110.75s12.07-3.12,4.87-11.49"/><path class="cls-19" d="M194.37,104.13s40.31,11.87,30.19,25.12c-9.86,12.89-43.89,20.43-64.91,15.43"/><line class="cls-7" x1="174.8" y1="31.58" x2="186.1" y2="33.24"/><circle class="cls-26" cx="148.56" cy="38.25" r="0.83"/><circle class="cls-26" cx="150.9" cy="37.43" r="0.39"/><circle class="cls-26" cx="153.35" cy="38.62" r="0.85"/><circle class="cls-26" cx="155.96" cy="37.86" r="0.15"/><circle class="cls-26" cx="147.02" cy="36.77" r="0.32"/><circle class="cls-18" cx="153.84" cy="34.58" r="0.66"/><line class="cls-28" x1="147.44" y1="35.33" x2="150.53" y2="35.33"/><path class="cls-23" d="M156.43,34.6h7.37a3.12,3.12,0,0,1,3.11,3.12h0a3.11,3.11,0,0,1-3.11,3.11H148a3.11,3.11,0,0,1-3.11-3.11h0A3.12,3.12,0,0,1,148,34.6h3.07"/><path class="cls-29" d="M137.26,135.43s18.84-3.65,25.56-22.93"/><path class="cls-19" d="M36.62,99.65l3-3.28A27.14,27.14,0,0,1,58.1,87.53c.47,0,.94,0,1.41,0H130.4A2.63,2.63,0,0,1,133,90.12h0a2.63,2.63,0,0,1-2.63,2.63H130a22.31,22.31,0,0,0-22.31,22.31v1.11"/><circle class="cls-18" cx="108.05" cy="120.24" r="1.16"/><path class="cls-19" d="M109.2,123.61A19.31,19.31,0,0,0,127,135.48h0a37.39,37.39,0,0,0,36-27.14"/><path class="cls-7" d="M165.89,57.44s1.17-3.95,4.24-4.24"/><path class="cls-21" d="M208.41,151.84a14.32,14.32,0,0,1-28.27-3.22"/><path class="cls-7" d="M176.55,64.45s2,25.41,10.23,30.23"/><path class="cls-19" d="M164.38,58.71A6.59,6.59,0,0,1,171,52.13h0a6.59,6.59,0,0,1,6.57,6.12c.72,10.25,3.12,30.38,11,36.53"/><circle class="cls-4" cx="94.47" cy="134.31" r="3.31"/><circle class="cls-4" cx="89.5" cy="128.37" r="1.85"/><circle class="cls-4" cx="93.45" cy="126.38" r="0.54"/><circle class="cls-4" cx="102.16" cy="133.05" r="2.14"/><circle class="cls-4" cx="98.9" cy="127.54" r="0.73"/><circle class="cls-4" cx="95.93" cy="128.08" r="0.89"/><path class="cls-25" d="M135.29,143.75a39.27,39.27,0,0,0,13.43-2"/><line class="cls-25" x1="55.37" y1="81.5" x2="60" y2="81.5"/><ellipse class="cls-16" cx="55.42" cy="91.78" rx="3.12" ry="1.85"/><ellipse class="cls-16" cx="61.75" cy="92.17" rx="1.07" ry="0.88"/><ellipse class="cls-16" cx="59.99" cy="89.78" rx="0.77" ry="0.63"/><ellipse class="cls-16" cx="65.65" cy="79.75" rx="1.36" ry="0.83"/><circle class="cls-16" cx="69.49" cy="80.21" r="0.58"/><circle class="cls-16" cx="168.01" cy="82.56" r="0.51"/><circle class="cls-16" cx="166.66" cy="72.59" r="1.13"/><circle class="cls-16" cx="169.1" cy="69.78" r="1.02"/></g></g></svg>